solid OpenSCAD_Model
  facet normal 0.707107 0 0.707107
    outer loop
      vertex -1.5 1.5 -1.83697e-16
      vertex 1.83697e-16 1.5 -1.5
      vertex 1.83697e-16 82.1 -1.5
    endloop
  endfacet
  facet normal 0.707107 0 0.707107
    outer loop
      vertex -1.5 82.1 -1.83697e-16
      vertex -1.5 1.5 -1.83697e-16
      vertex 1.83697e-16 82.1 -1.5
    endloop
  endfacet
  facet normal 1 0 1.22465e-16
    outer loop
      vertex 1.83697e-16 82.1 -1.5
      vertex 1.83697e-16 1.5 -1.5
      vertex 4.22515e-15 1.5 -34.501
    endloop
  endfacet
  facet normal 1 0 1.22465e-16
    outer loop
      vertex 4.22515e-15 82.1 -34.501
      vertex 1.83697e-16 82.1 -1.5
      vertex 4.22515e-15 1.5 -34.501
    endloop
  endfacet
  facet normal 0.707107 -0.707107 8.65956e-17
    outer loop
      vertex 4.22515e-15 1.5 -34.501
      vertex 1.83697e-16 1.5 -1.5
      vertex -1.5 0 -1.5
    endloop
  endfacet
  facet normal 0.707107 -0.707107 8.65956e-17
    outer loop
      vertex -1.5 0 -34.501
      vertex 4.22515e-15 1.5 -34.501
      vertex -1.5 0 -1.5
    endloop
  endfacet
  facet normal 0.57735 -0.57735 0.57735
    outer loop
      vertex -1.5 0 -1.5
      vertex 1.83697e-16 1.5 -1.5
      vertex -1.5 1.5 -1.83697e-16
    endloop
  endfacet
  facet normal -8.65956e-17 -0.707107 0.707107
    outer loop
      vertex -1.925 0 -1.5
      vertex -1.5 0 -1.5
      vertex -1.5 1.5 -1.83697e-16
    endloop
  endfacet
  facet normal -8.65956e-17 -0.707107 0.707107
    outer loop
      vertex -1.925 1.5 -2.35745e-16
      vertex -1.925 0 -1.5
      vertex -1.5 1.5 -1.83697e-16
    endloop
  endfacet
  facet normal -1.22465e-16 0 1
    outer loop
      vertex -1.925 1.5 -2.35745e-16
      vertex -1.5 1.5 -1.83697e-16
      vertex -1.5 82.1 -1.83697e-16
    endloop
  endfacet
  facet normal -1.22465e-16 0 1
    outer loop
      vertex -1.925 81.665 -2.35745e-16
      vertex -1.925 1.5 -2.35745e-16
      vertex -1.5 82.1 -1.83697e-16
    endloop
  endfacet
  facet normal -1.22465e-16 0 1
    outer loop
      vertex -63 1.5 -7.71527e-15
      vertex -62.575 1.5 -7.66323e-15
      vertex -63 82.1 -7.71527e-15
    endloop
  endfacet
  facet normal -1.22465e-16 0 1
    outer loop
      vertex -63 82.1 -7.71527e-15
      vertex -62.575 81.665 -7.66323e-15
      vertex -1.5 82.1 -1.83697e-16
    endloop
  endfacet
  facet normal -1.22465e-16 0 1
    outer loop
      vertex -62.575 81.665 -7.66323e-15
      vertex -1.925 81.665 -2.35745e-16
      vertex -1.5 82.1 -1.83697e-16
    endloop
  endfacet
  facet normal -1.22465e-16 0 1
    outer loop
      vertex -62.575 1.5 -7.66323e-15
      vertex -62.575 81.665 -7.66323e-15
      vertex -63 82.1 -7.71527e-15
    endloop
  endfacet
  facet normal -8.65956e-17 0.707107 0.707107
    outer loop
      vertex -1.5 82.1 -1.83697e-16
      vertex -1.5 83.6 -1.5
      vertex -63 82.1 -7.71527e-15
    endloop
  endfacet
  facet normal -8.65956e-17 0.707107 0.707107
    outer loop
      vertex -63 82.1 -7.71527e-15
      vertex -1.5 83.6 -1.5
      vertex -63 83.6 -1.5
    endloop
  endfacet
  facet normal 0.57735 0.57735 0.57735
    outer loop
      vertex -1.5 82.1 -1.83697e-16
      vertex 1.83697e-16 82.1 -1.5
      vertex -1.5 83.6 -1.5
    endloop
  endfacet
  facet normal 0.707107 0.707107 8.65956e-17
    outer loop
      vertex 1.83697e-16 82.1 -1.5
      vertex 4.22515e-15 82.1 -34.501
      vertex -1.5 83.6 -1.5
    endloop
  endfacet
  facet normal 0.707107 0.707107 8.65956e-17
    outer loop
      vertex -1.5 83.6 -1.5
      vertex 4.22515e-15 82.1 -34.501
      vertex -1.5 83.6 -34.501
    endloop
  endfacet
  facet normal 0.577222 0.577222 -0.577607
    outer loop
      vertex -1.5 83.6 -34.501
      vertex 4.22515e-15 82.1 -34.501
      vertex -1.5 82.1 -36
    endloop
  endfacet
  facet normal 0.706871 0 -0.707343
    outer loop
      vertex 4.22515e-15 1.5 -34.501
      vertex -1.5 1.5 -36
      vertex 4.22515e-15 82.1 -34.501
    endloop
  endfacet
  facet normal 0.706871 0 -0.707343
    outer loop
      vertex 4.22515e-15 82.1 -34.501
      vertex -1.5 1.5 -36
      vertex -1.5 82.1 -36
    endloop
  endfacet
  facet normal 0.577222 -0.577222 -0.577607
    outer loop
      vertex -1.5 1.5 -36
      vertex 4.22515e-15 1.5 -34.501
      vertex -1.5 0 -34.501
    endloop
  endfacet
  facet normal 0 -1 0
    outer loop
      vertex -1.5 0 -34.501
      vertex -1.5 0 -1.5
      vertex -1.925 0 -1.5
    endloop
  endfacet
  facet normal 0 -1 0
    outer loop
      vertex -2.975 0 -21.269
      vertex -1.5 0 -34.501
      vertex -1.925 0 -5.5
    endloop
  endfacet
  facet normal 0 -1 0
    outer loop
      vertex -1.925 0 -5.5
      vertex -1.5 0 -34.501
      vertex -1.925 0 -1.5
    endloop
  endfacet
  facet normal 0 -1 0
    outer loop
      vertex -61.025 0 -21.269
      vertex -58.4752 0 -9.97
      vertex -61.525 0 -21.269
    endloop
  endfacet
  facet normal 0 -1 0
    outer loop
      vertex -6.025 0 -5.5
      vertex -5.525 0 -8.099
      vertex -1.925 0 -5.5
    endloop
  endfacet
  facet normal 0 -1 0
    outer loop
      vertex -5.525 0 -8.099
      vertex -3.475 0 -21.269
      vertex -1.925 0 -5.5
    endloop
  endfacet
  facet normal 0 -1 0
    outer loop
      vertex -3.475 0 -21.269
      vertex -2.975 0 -21.269
      vertex -1.925 0 -5.5
    endloop
  endfacet
  facet normal 0 -1 0
    outer loop
      vertex -2.975 0 -22.94
      vertex -1.5 0 -34.501
      vertex -2.975 0 -21.269
    endloop
  endfacet
  facet normal 0 -1 0
    outer loop
      vertex -3.475 0 -22.94
      vertex -3.475 0 -33.54
      vertex -1.5 0 -34.501
    endloop
  endfacet
  facet normal 0 -1 0
    outer loop
      vertex -5.525 0 -9.97
      vertex -3.475 0 -21.269
      vertex -5.525 0 -8.099
    endloop
  endfacet
  facet normal 0 -1 0
    outer loop
      vertex -61.025 0 -33.54
      vertex -1.5 0 -34.501
      vertex -3.475 0 -33.54
    endloop
  endfacet
  facet normal 0 -1 0
    outer loop
      vertex -63 0 -34.501
      vertex -1.5 0 -34.501
      vertex -61.025 0 -33.54
    endloop
  endfacet
  facet normal 0 -1 0
    outer loop
      vertex -61.525 0 -22.94
      vertex -61.025 0 -33.54
      vertex -61.025 0 -22.94
    endloop
  endfacet
  facet normal 0 -1 0
    outer loop
      vertex -62.575 0 -5.5
      vertex -61.025 0 -33.54
      vertex -61.525 0 -22.94
    endloop
  endfacet
  facet normal 0 -1 0
    outer loop
      vertex -62.575 0 -5.5
      vertex -61.525 0 -22.94
      vertex -61.525 0 -21.269
    endloop
  endfacet
  facet normal 0 -1 0
    outer loop
      vertex -58.475 0 -8.099
      vertex -58.475 0 -5.5
      vertex -58.975 0 -8.099
    endloop
  endfacet
  facet normal 0 -1 0
    outer loop
      vertex -58.975 0 -9.97
      vertex -61.525 0 -21.269
      vertex -58.4752 0 -9.97
    endloop
  endfacet
  facet normal 0 -1 0
    outer loop
      vertex -58.975 0 -8.099
      vertex -61.525 0 -21.269
      vertex -58.975 0 -9.97
    endloop
  endfacet
  facet normal 0 -1 0
    outer loop
      vertex -58.475 0 -5.5
      vertex -61.525 0 -21.269
      vertex -58.975 0 -8.099
    endloop
  endfacet
  facet normal 0 -1 0
    outer loop
      vertex -62.575 0 -5.5
      vertex -61.525 0 -21.269
      vertex -58.475 0 -5.5
    endloop
  endfacet
  facet normal 0 -1 0
    outer loop
      vertex -63 0 -1.5
      vertex -61.025 0 -33.54
      vertex -62.575 0 -5.5
    endloop
  endfacet
  facet normal 0 -1 0
    outer loop
      vertex -63 0 -1.5
      vertex -62.575 0 -5.5
      vertex -62.575 0 -1.5
    endloop
  endfacet
  facet normal 0 -1 0
    outer loop
      vertex -63 0 -34.501
      vertex -61.025 0 -33.54
      vertex -63 0 -1.5
    endloop
  endfacet
  facet normal 0 -1 0
    outer loop
      vertex -2.975 0 -22.94
      vertex -3.475 0 -22.94
      vertex -1.5 0 -34.501
    endloop
  endfacet
  facet normal 0 -1 0
    outer loop
      vertex -6.025 0 -8.099
      vertex -5.525 0 -8.099
      vertex -6.025 0 -5.5
    endloop
  endfacet
  facet normal 0 -1 0
    outer loop
      vertex -6.02477 0 -9.97
      vertex -3.475 0 -21.269
      vertex -5.525 0 -9.97
    endloop
  endfacet
  facet normal 8.66245e-17 -0.706871 -0.707343
    outer loop
      vertex -1.5 0 -34.501
      vertex -63 0 -34.501
      vertex -1.5 1.5 -36
    endloop
  endfacet
  facet normal 8.66245e-17 -0.706871 -0.707343
    outer loop
      vertex -1.5 1.5 -36
      vertex -63 0 -34.501
      vertex -63 1.5 -36
    endloop
  endfacet
  facet normal -1 0 -1.22465e-16
    outer loop
      vertex -1.925 81.665 -2.35745e-16
      vertex -1.925 81.665 -5.5
      vertex -1.925 1.5 -2.35745e-16
    endloop
  endfacet
  facet normal -1 0 -1.22465e-16
    outer loop
      vertex -1.925 1.5 -2.35745e-16
      vertex -1.925 81.665 -5.5
      vertex -1.925 0 -5.5
    endloop
  endfacet
  facet normal -1 0 -1.22465e-16
    outer loop
      vertex -1.925 1.5 -2.35745e-16
      vertex -1.925 0 -5.5
      vertex -1.925 0 -1.5
    endloop
  endfacet
  facet normal 0 -1 0
    outer loop
      vertex -58.475 81.665 -8.099
      vertex -3.475 81.665 -33.54
      vertex -58.475 81.665 -5.5
    endloop
  endfacet
  facet normal 0 -1 0
    outer loop
      vertex -62.575 81.665 -7.66323e-15
      vertex -62.575 81.665 -5.5
      vertex -58.475 81.665 -5.5
    endloop
  endfacet
  facet normal 0 -1 0
    outer loop
      vertex -58.975 81.665 -8.099
      vertex -58.975 81.665 -9.97
      vertex -58.475 81.665 -8.099
    endloop
  endfacet
  facet normal 0 -1 0
    outer loop
      vertex -3.475 81.665 -33.54
      vertex -62.575 81.665 -7.66323e-15
      vertex -58.475 81.665 -5.5
    endloop
  endfacet
  facet normal 0 -1 0
    outer loop
      vertex -58.4752 81.665 -9.97
      vertex -3.475 81.665 -33.54
      vertex -58.475 81.665 -8.099
    endloop
  endfacet
  facet normal 0 -1 0
    outer loop
      vertex -61.525 81.665 -21.269
      vertex -61.525 81.665 -22.94
      vertex -61.025 81.665 -21.269
    endloop
  endfacet
  facet normal 0 -1 0
    outer loop
      vertex -58.975 81.665 -9.97
      vertex -58.4752 81.665 -9.97
      vertex -58.475 81.665 -8.099
    endloop
  endfacet
  facet normal 0 -1 0
    outer loop
      vertex -61.025 81.665 -21.269
      vertex -61.025 81.665 -22.94
      vertex -58.4752 81.665 -9.97
    endloop
  endfacet
  facet normal 0 -1 0
    outer loop
      vertex -3.475 81.665 -22.94
      vertex -2.975 81.665 -22.94
      vertex -62.575 81.665 -7.66323e-15
    endloop
  endfacet
  facet normal 0 -1 0
    outer loop
      vertex -61.525 81.665 -22.94
      vertex -61.025 81.665 -22.94
      vertex -61.025 81.665 -21.269
    endloop
  endfacet
  facet normal 0 -1 0
    outer loop
      vertex -61.025 81.665 -22.94
      vertex -61.025 81.665 -33.54
      vertex -58.4752 81.665 -9.97
    endloop
  endfacet
  facet normal 0 -1 0
    outer loop
      vertex -61.025 81.665 -33.54
      vertex -3.475 81.665 -33.54
      vertex -58.4752 81.665 -9.97
    endloop
  endfacet
  facet normal 0 -1 0
    outer loop
      vertex -3.475 81.665 -33.54
      vertex -3.475 81.665 -22.94
      vertex -62.575 81.665 -7.66323e-15
    endloop
  endfacet
  facet normal 0 -1 0
    outer loop
      vertex -6.02477 81.665 -9.97
      vertex -5.525 81.665 -9.97
      vertex -62.575 81.665 -7.66323e-15
    endloop
  endfacet
  facet normal 0 -1 0
    outer loop
      vertex -6.025 81.665 -8.099
      vertex -6.025 81.665 -5.5
      vertex -62.575 81.665 -7.66323e-15
    endloop
  endfacet
  facet normal 0 -1 0
    outer loop
      vertex -2.975 81.665 -22.94
      vertex -3.475 81.665 -21.269
      vertex -62.575 81.665 -7.66323e-15
    endloop
  endfacet
  facet normal 0 -1 0
    outer loop
      vertex -2.975 81.665 -22.94
      vertex -2.975 81.665 -21.269
      vertex -3.475 81.665 -21.269
    endloop
  endfacet
  facet normal 0 -1 0
    outer loop
      vertex -6.025 81.665 -5.5
      vertex -1.925 81.665 -5.5
      vertex -62.575 81.665 -7.66323e-15
    endloop
  endfacet
  facet normal 0 -1 0
    outer loop
      vertex -5.525 81.665 -9.97
      vertex -6.025 81.665 -8.099
      vertex -62.575 81.665 -7.66323e-15
    endloop
  endfacet
  facet normal 0 -1 0
    outer loop
      vertex -5.525 81.665 -9.97
      vertex -5.525 81.665 -8.099
      vertex -6.025 81.665 -8.099
    endloop
  endfacet
  facet normal 0 -1 0
    outer loop
      vertex -1.925 81.665 -5.5
      vertex -1.925 81.665 -2.35745e-16
      vertex -62.575 81.665 -7.66323e-15
    endloop
  endfacet
  facet normal 0 -1 0
    outer loop
      vertex -3.475 81.665 -21.269
      vertex -6.02477 81.665 -9.97
      vertex -62.575 81.665 -7.66323e-15
    endloop
  endfacet
  facet normal 1 0 1.22465e-16
    outer loop
      vertex -62.575 0 -5.5
      vertex -62.575 81.665 -5.5
      vertex -62.575 81.665 -7.66323e-15
    endloop
  endfacet
  facet normal 1 0 1.22465e-16
    outer loop
      vertex -62.575 0 -1.5
      vertex -62.575 0 -5.5
      vertex -62.575 1.5 -7.66323e-15
    endloop
  endfacet
  facet normal 1 0 1.22465e-16
    outer loop
      vertex -62.575 1.5 -7.66323e-15
      vertex -62.575 0 -5.5
      vertex -62.575 81.665 -7.66323e-15
    endloop
  endfacet
  facet normal -8.65956e-17 -0.707107 0.707107
    outer loop
      vertex -63 0 -1.5
      vertex -62.575 0 -1.5
      vertex -62.575 1.5 -7.66323e-15
    endloop
  endfacet
  facet normal -8.65956e-17 -0.707107 0.707107
    outer loop
      vertex -63 1.5 -7.71527e-15
      vertex -63 0 -1.5
      vertex -62.575 1.5 -7.66323e-15
    endloop
  endfacet
  facet normal -0.57735 -0.57735 0.57735
    outer loop
      vertex -64.5 1.5 -1.5
      vertex -63 0 -1.5
      vertex -63 1.5 -7.71527e-15
    endloop
  endfacet
  facet normal -0.707107 0 0.707107
    outer loop
      vertex -63 1.5 -7.71527e-15
      vertex -63 82.1 -7.71527e-15
      vertex -64.5 1.5 -1.5
    endloop
  endfacet
  facet normal -0.707107 0 0.707107
    outer loop
      vertex -64.5 1.5 -1.5
      vertex -63 82.1 -7.71527e-15
      vertex -64.5 82.1 -1.5
    endloop
  endfacet
  facet normal -0.57735 0.57735 0.57735
    outer loop
      vertex -64.5 82.1 -1.5
      vertex -63 82.1 -7.71527e-15
      vertex -63 83.6 -1.5
    endloop
  endfacet
  facet normal 0 1 0
    outer loop
      vertex -1.5 83.6 -1.5
      vertex -1.5 83.6 -34.501
      vertex -63 83.6 -1.5
    endloop
  endfacet
  facet normal 0 1 0
    outer loop
      vertex -63 83.6 -1.5
      vertex -1.5 83.6 -34.501
      vertex -63 83.6 -34.501
    endloop
  endfacet
  facet normal -0.707107 0.707107 -8.65956e-17
    outer loop
      vertex -63 83.6 -1.5
      vertex -63 83.6 -34.501
      vertex -64.5 82.1 -1.5
    endloop
  endfacet
  facet normal -0.707107 0.707107 -8.65956e-17
    outer loop
      vertex -64.5 82.1 -1.5
      vertex -63 83.6 -34.501
      vertex -64.5 82.1 -34.501
    endloop
  endfacet
  facet normal 8.66245e-17 0.706871 -0.707343
    outer loop
      vertex -1.5 82.1 -36
      vertex -63 82.1 -36
      vertex -1.5 83.6 -34.501
    endloop
  endfacet
  facet normal 8.66245e-17 0.706871 -0.707343
    outer loop
      vertex -1.5 83.6 -34.501
      vertex -63 82.1 -36
      vertex -63 83.6 -34.501
    endloop
  endfacet
  facet normal 1.22465e-16 0 -1
    outer loop
      vertex -1.5 1.5 -36
      vertex -63 1.5 -36
      vertex -1.5 82.1 -36
    endloop
  endfacet
  facet normal 1.22465e-16 0 -1
    outer loop
      vertex -1.5 82.1 -36
      vertex -63 1.5 -36
      vertex -63 82.1 -36
    endloop
  endfacet
  facet normal -0.707107 -0.707107 -8.65956e-17
    outer loop
      vertex -63 0 -34.501
      vertex -63 0 -1.5
      vertex -64.5 1.5 -1.5
    endloop
  endfacet
  facet normal -0.707107 -0.707107 -8.65956e-17
    outer loop
      vertex -64.5 1.5 -34.501
      vertex -63 0 -34.501
      vertex -64.5 1.5 -1.5
    endloop
  endfacet
  facet normal -0.577222 -0.577222 -0.577607
    outer loop
      vertex -63 1.5 -36
      vertex -63 0 -34.501
      vertex -64.5 1.5 -34.501
    endloop
  endfacet
  facet normal -1.22465e-16 0 1
    outer loop
      vertex -58.475 81.665 -5.5
      vertex -62.575 81.665 -5.5
      vertex -62.575 0 -5.5
    endloop
  endfacet
  facet normal -1.22465e-16 0 1
    outer loop
      vertex -58.475 0 -5.5
      vertex -58.475 81.665 -5.5
      vertex -62.575 0 -5.5
    endloop
  endfacet
  facet normal 1 0 1.22465e-16
    outer loop
      vertex -58.475 0 -8.099
      vertex -58.475 81.665 -8.099
      vertex -58.475 81.665 -5.5
    endloop
  endfacet
  facet normal 1 0 1.22465e-16
    outer loop
      vertex -58.475 0 -5.5
      vertex -58.475 0 -8.099
      vertex -58.475 81.665 -5.5
    endloop
  endfacet
  facet normal 1.22465e-16 0 -1
    outer loop
      vertex -58.975 81.665 -8.099
      vertex -58.475 81.665 -8.099
      vertex -58.975 0 -8.099
    endloop
  endfacet
  facet normal 1.22465e-16 0 -1
    outer loop
      vertex -58.975 0 -8.099
      vertex -58.475 81.665 -8.099
      vertex -58.475 0 -8.099
    endloop
  endfacet
  facet normal 1 0 1.22465e-16
    outer loop
      vertex -58.975 0 -9.97
      vertex -58.975 81.665 -9.97
      vertex -58.975 81.665 -8.099
    endloop
  endfacet
  facet normal 1 0 1.22465e-16
    outer loop
      vertex -58.975 0 -8.099
      vertex -58.975 0 -9.97
      vertex -58.975 81.665 -8.099
    endloop
  endfacet
  facet normal -1.22465e-16 0 1
    outer loop
      vertex -58.4752 81.665 -9.97
      vertex -58.975 81.665 -9.97
      vertex -58.975 0 -9.97
    endloop
  endfacet
  facet normal -1.22465e-16 0 1
    outer loop
      vertex -58.4752 0 -9.97
      vertex -58.4752 81.665 -9.97
      vertex -58.975 0 -9.97
    endloop
  endfacet
  facet normal 0.975471 0 -0.220128
    outer loop
      vertex -61.025 0 -21.269
      vertex -61.025 81.665 -21.269
      vertex -58.4752 81.665 -9.97
    endloop
  endfacet
  facet normal 0.975471 0 -0.220128
    outer loop
      vertex -58.4752 0 -9.97
      vertex -61.025 0 -21.269
      vertex -58.4752 81.665 -9.97
    endloop
  endfacet
  facet normal 1.22465e-16 0 -1
    outer loop
      vertex -61.525 81.665 -21.269
      vertex -61.025 81.665 -21.269
      vertex -61.525 0 -21.269
    endloop
  endfacet
  facet normal 1.22465e-16 0 -1
    outer loop
      vertex -61.525 0 -21.269
      vertex -61.025 81.665 -21.269
      vertex -61.025 0 -21.269
    endloop
  endfacet
  facet normal 1 0 1.22465e-16
    outer loop
      vertex -61.525 0 -22.94
      vertex -61.525 81.665 -22.94
      vertex -61.525 81.665 -21.269
    endloop
  endfacet
  facet normal 1 0 1.22465e-16
    outer loop
      vertex -61.525 0 -21.269
      vertex -61.525 0 -22.94
      vertex -61.525 81.665 -21.269
    endloop
  endfacet
  facet normal -1.22465e-16 0 1
    outer loop
      vertex -61.025 81.665 -22.94
      vertex -61.525 81.665 -22.94
      vertex -61.525 0 -22.94
    endloop
  endfacet
  facet normal -1.22465e-16 0 1
    outer loop
      vertex -61.025 0 -22.94
      vertex -61.025 81.665 -22.94
      vertex -61.525 0 -22.94
    endloop
  endfacet
  facet normal 1 0 1.22465e-16
    outer loop
      vertex -61.025 0 -33.54
      vertex -61.025 81.665 -33.54
      vertex -61.025 81.665 -22.94
    endloop
  endfacet
  facet normal 1 0 1.22465e-16
    outer loop
      vertex -61.025 0 -22.94
      vertex -61.025 0 -33.54
      vertex -61.025 81.665 -22.94
    endloop
  endfacet
  facet normal -1.22465e-16 0 1
    outer loop
      vertex -3.475 81.665 -33.54
      vertex -61.025 81.665 -33.54
      vertex -61.025 0 -33.54
    endloop
  endfacet
  facet normal -1.22465e-16 0 1
    outer loop
      vertex -3.475 0 -33.54
      vertex -3.475 81.665 -33.54
      vertex -61.025 0 -33.54
    endloop
  endfacet
  facet normal -1 0 -1.22465e-16
    outer loop
      vertex -3.475 81.665 -33.54
      vertex -3.475 0 -33.54
      vertex -3.475 81.665 -22.94
    endloop
  endfacet
  facet normal -1 0 -1.22465e-16
    outer loop
      vertex -3.475 81.665 -22.94
      vertex -3.475 0 -33.54
      vertex -3.475 0 -22.94
    endloop
  endfacet
  facet normal -1.22465e-16 0 1
    outer loop
      vertex -2.975 81.665 -22.94
      vertex -3.475 81.665 -22.94
      vertex -3.475 0 -22.94
    endloop
  endfacet
  facet normal -1.22465e-16 0 1
    outer loop
      vertex -2.975 0 -22.94
      vertex -2.975 81.665 -22.94
      vertex -3.475 0 -22.94
    endloop
  endfacet
  facet normal -1 0 -1.22465e-16
    outer loop
      vertex -2.975 81.665 -22.94
      vertex -2.975 0 -22.94
      vertex -2.975 81.665 -21.269
    endloop
  endfacet
  facet normal -1 0 -1.22465e-16
    outer loop
      vertex -2.975 81.665 -21.269
      vertex -2.975 0 -22.94
      vertex -2.975 0 -21.269
    endloop
  endfacet
  facet normal 1.22465e-16 0 -1
    outer loop
      vertex -3.475 81.665 -21.269
      vertex -2.975 81.665 -21.269
      vertex -3.475 0 -21.269
    endloop
  endfacet
  facet normal 1.22465e-16 0 -1
    outer loop
      vertex -3.475 0 -21.269
      vertex -2.975 81.665 -21.269
      vertex -2.975 0 -21.269
    endloop
  endfacet
  facet normal -0.975471 0 -0.220128
    outer loop
      vertex -6.02477 81.665 -9.97
      vertex -3.475 81.665 -21.269
      vertex -6.02477 0 -9.97
    endloop
  endfacet
  facet normal -0.975471 0 -0.220128
    outer loop
      vertex -6.02477 0 -9.97
      vertex -3.475 81.665 -21.269
      vertex -3.475 0 -21.269
    endloop
  endfacet
  facet normal -1.22465e-16 0 1
    outer loop
      vertex -5.525 81.665 -9.97
      vertex -6.02477 81.665 -9.97
      vertex -6.02477 0 -9.97
    endloop
  endfacet
  facet normal -1.22465e-16 0 1
    outer loop
      vertex -5.525 0 -9.97
      vertex -5.525 81.665 -9.97
      vertex -6.02477 0 -9.97
    endloop
  endfacet
  facet normal -1 0 -1.22465e-16
    outer loop
      vertex -5.525 81.665 -9.97
      vertex -5.525 0 -9.97
      vertex -5.525 81.665 -8.099
    endloop
  endfacet
  facet normal -1 0 -1.22465e-16
    outer loop
      vertex -5.525 81.665 -8.099
      vertex -5.525 0 -9.97
      vertex -5.525 0 -8.099
    endloop
  endfacet
  facet normal 1.22465e-16 0 -1
    outer loop
      vertex -6.025 81.665 -8.099
      vertex -5.525 81.665 -8.099
      vertex -6.025 0 -8.099
    endloop
  endfacet
  facet normal 1.22465e-16 0 -1
    outer loop
      vertex -6.025 0 -8.099
      vertex -5.525 81.665 -8.099
      vertex -5.525 0 -8.099
    endloop
  endfacet
  facet normal -1 0 -1.22465e-16
    outer loop
      vertex -6.025 81.665 -8.099
      vertex -6.025 0 -8.099
      vertex -6.025 81.665 -5.5
    endloop
  endfacet
  facet normal -1 0 -1.22465e-16
    outer loop
      vertex -6.025 81.665 -5.5
      vertex -6.025 0 -8.099
      vertex -6.025 0 -5.5
    endloop
  endfacet
  facet normal -1.22465e-16 0 1
    outer loop
      vertex -1.925 81.665 -5.5
      vertex -6.025 81.665 -5.5
      vertex -6.025 0 -5.5
    endloop
  endfacet
  facet normal -1.22465e-16 0 1
    outer loop
      vertex -1.925 0 -5.5
      vertex -1.925 81.665 -5.5
      vertex -6.025 0 -5.5
    endloop
  endfacet
  facet normal -0.706871 0 -0.707343
    outer loop
      vertex -63 1.5 -36
      vertex -64.5 1.5 -34.501
      vertex -63 82.1 -36
    endloop
  endfacet
  facet normal -0.706871 0 -0.707343
    outer loop
      vertex -63 82.1 -36
      vertex -64.5 1.5 -34.501
      vertex -64.5 82.1 -34.501
    endloop
  endfacet
  facet normal -1 0 -1.22465e-16
    outer loop
      vertex -64.5 1.5 -1.5
      vertex -64.5 82.1 -1.5
      vertex -64.5 1.5 -34.501
    endloop
  endfacet
  facet normal -1 0 -1.22465e-16
    outer loop
      vertex -64.5 1.5 -34.501
      vertex -64.5 82.1 -1.5
      vertex -64.5 82.1 -34.501
    endloop
  endfacet
  facet normal -0.577222 0.577222 -0.577607
    outer loop
      vertex -63 83.6 -34.501
      vertex -63 82.1 -36
      vertex -64.5 82.1 -34.501
    endloop
  endfacet
endsolid OpenSCAD_Model
