solid OpenSCAD_Model
  facet normal -1 0 0
    outer loop
      vertex -3.6 -2.07 -3.65
      vertex -3.6 -2.07 5.814
      vertex -3.6 46.569 -3.65
    endloop
  endfacet
  facet normal -1 0 0
    outer loop
      vertex -3.6 46.569 -3.65
      vertex -3.6 -2.07 5.814
      vertex -3.6 46.569 5.814
    endloop
  endfacet
  facet normal -0.825274 -0.564732 0
    outer loop
      vertex -3.6 -2.07 -3.65
      vertex -2.25 -4.04283 -2.558
      vertex -3.6 -2.07 5.814
    endloop
  endfacet
  facet normal -0.825274 -0.564732 0
    outer loop
      vertex -3.6 -2.07 5.814
      vertex -2.25 -4.04283 -2.558
      vertex -2.25 -4.04283 6.906
    endloop
  endfacet
  facet normal -0.476656 -0.652348 -0.589272
    outer loop
      vertex -2.25 -4.04283 -2.558
      vertex -3.6 -2.07 -3.65
      vertex -1.69081 -2.07 -5.19432
    endloop
  endfacet
  facet normal -0.476656 -0.652348 -0.589272
    outer loop
      vertex -0.340812 -4.04283 -4.10232
      vertex -2.25 -4.04283 -2.558
      vertex -1.69081 -2.07 -5.19432
    endloop
  endfacet
  facet normal -0.6289 0 -0.777486
    outer loop
      vertex -3.6 -2.07 -3.65
      vertex -3.6 46.569 -3.65
      vertex -1.69081 -2.07 -5.19432
    endloop
  endfacet
  facet normal -0.6289 0 -0.777486
    outer loop
      vertex -1.69081 -2.07 -5.19432
      vertex -3.6 46.569 -3.65
      vertex -1.69081 46.569 -5.19432
    endloop
  endfacet
  facet normal -0.825274 0.564732 0
    outer loop
      vertex -3.6 46.569 -3.65
      vertex -3.6 46.569 5.814
      vertex -2.25 48.5418 -2.558
    endloop
  endfacet
  facet normal -0.825274 0.564732 0
    outer loop
      vertex -2.25 48.5418 -2.558
      vertex -3.6 46.569 5.814
      vertex -2.25 48.5418 6.906
    endloop
  endfacet
  facet normal -0.476656 0.652348 -0.589272
    outer loop
      vertex -3.6 46.569 -3.65
      vertex -2.25 48.5418 -2.558
      vertex -1.69081 46.569 -5.19432
    endloop
  endfacet
  facet normal -0.476656 0.652348 -0.589272
    outer loop
      vertex -1.69081 46.569 -5.19432
      vertex -2.25 48.5418 -2.558
      vertex -0.340812 48.5418 -4.10232
    endloop
  endfacet
  facet normal -0.6289 0 0.777486
    outer loop
      vertex -3.6 46.569 5.814
      vertex -3.6 -2.07 5.814
      vertex -2.25 -0.0971721 6.906
    endloop
  endfacet
  facet normal -0.6289 0 0.777486
    outer loop
      vertex -2.25 48.5418 6.906
      vertex -3.6 46.569 5.814
      vertex -2.25 -0.0971721 6.906
    endloop
  endfacet
  facet normal -0.6289 -2.65226e-33 0.777486
    outer loop
      vertex -2.25 -0.0971721 6.906
      vertex -3.6 -2.07 5.814
      vertex -2.25 -4.04283 6.906
    endloop
  endfacet
  facet normal -0.6289 -2.65226e-33 0.777486
    outer loop
      vertex -0.9 -2.07 7.998
      vertex -2.25 -0.0971721 6.906
      vertex -2.25 -4.04283 6.906
    endloop
  endfacet
  facet normal 0 -1 0
    outer loop
      vertex 0 -4.04283 0
      vertex -2.25 -4.04283 -2.558
      vertex 44.82 -4.04283 -2.558
    endloop
  endfacet
  facet normal 0 -1 0
    outer loop
      vertex 44.82 -4.04283 6.906
      vertex 44.3 -4.04283 2.001
      vertex 44.82 -4.04283 -2.558
    endloop
  endfacet
  facet normal 0 -1 0
    outer loop
      vertex 44.82 -4.04283 6.906
      vertex 40.9 -4.04283 6.906
      vertex 44.3 -4.04283 2.001
    endloop
  endfacet
  facet normal 0 -1 0
    outer loop
      vertex 44.3 -4.04283 2.001
      vertex 44.3 -4.04283 0
      vertex 44.82 -4.04283 -2.558
    endloop
  endfacet
  facet normal 0 -1 0
    outer loop
      vertex 0 -4.04283 2.001
      vertex 3.4 -4.04283 6.63736
      vertex -2.25 -4.04283 6.906
    endloop
  endfacet
  facet normal 0 -1 0
    outer loop
      vertex -2.25 -4.04283 6.906
      vertex -2.25 -4.04283 -2.558
      vertex 0 -4.04283 0
    endloop
  endfacet
  facet normal 0 -1 0
    outer loop
      vertex 3.4 -4.04283 6.63736
      vertex 3.4 -4.04283 6.906
      vertex -2.25 -4.04283 6.906
    endloop
  endfacet
  facet normal 0 -1 0
    outer loop
      vertex -2.25 -4.04283 6.906
      vertex 0 -4.04283 0
      vertex 0 -4.04283 2.001
    endloop
  endfacet
  facet normal 0 -1 0
    outer loop
      vertex 40.9 -4.04283 6.63736
      vertex 44.3 -4.04283 2.001
      vertex 40.9 -4.04283 6.906
    endloop
  endfacet
  facet normal 0 -1 0
    outer loop
      vertex 44.3 -4.04283 0
      vertex 0 -4.04283 0
      vertex 44.82 -4.04283 -2.558
    endloop
  endfacet
  facet normal 0 -0.484282 0.874912
    outer loop
      vertex -0.9 -2.07 7.998
      vertex -2.25 -4.04283 6.906
      vertex 3.4 -4.04283 6.906
    endloop
  endfacet
  facet normal 0 -0.484282 0.874912
    outer loop
      vertex 3.4 -2.07 7.998
      vertex -0.9 -2.07 7.998
      vertex 3.4 -4.04283 6.906
    endloop
  endfacet
  facet normal 0 -1 -1.00287e-16
    outer loop
      vertex 44.82 -4.04283 -2.558
      vertex -2.25 -4.04283 -2.558
      vertex -0.340812 -4.04283 -4.10232
    endloop
  endfacet
  facet normal 0 -1 -1.00287e-16
    outer loop
      vertex 46.7292 -4.04283 -4.10232
      vertex 44.82 -4.04283 -2.558
      vertex -0.340812 -4.04283 -4.10232
    endloop
  endfacet
  facet normal 0 -0.484282 -0.874912
    outer loop
      vertex -1.69081 -2.07 -5.19432
      vertex 45.3792 -2.07 -5.19432
      vertex -0.340812 -4.04283 -4.10232
    endloop
  endfacet
  facet normal 0 -0.484282 -0.874912
    outer loop
      vertex -0.340812 -4.04283 -4.10232
      vertex 45.3792 -2.07 -5.19432
      vertex 46.7292 -4.04283 -4.10232
    endloop
  endfacet
  facet normal 0 0 -1
    outer loop
      vertex 24.2713 24.2713 -5.19432
      vertex -1.69081 46.569 -5.19432
      vertex 45.3792 46.569 -5.19432
    endloop
  endfacet
  facet normal 0 0 -1
    outer loop
      vertex -1.69081 -2.07 -5.19432
      vertex -1.69081 46.569 -5.19432
      vertex 19.15 22.15 -5.19432
    endloop
  endfacet
  facet normal 0 0 -1
    outer loop
      vertex -1.69081 -2.07 -5.19432
      vertex 19.15 22.15 -5.19432
      vertex 19.2076 21.5647 -5.19432
    endloop
  endfacet
  facet normal 0 0 -1
    outer loop
      vertex -1.69081 -2.07 -5.19432
      vertex 19.2076 21.5647 -5.19432
      vertex 19.3784 21.0019 -5.19432
    endloop
  endfacet
  facet normal 0 0 -1
    outer loop
      vertex -1.69081 -2.07 -5.19432
      vertex 19.3784 21.0019 -5.19432
      vertex 19.6556 20.4833 -5.19432
    endloop
  endfacet
  facet normal 0 0 -1
    outer loop
      vertex -1.69081 -2.07 -5.19432
      vertex 19.6556 20.4833 -5.19432
      vertex 20.0287 20.0287 -5.19432
    endloop
  endfacet
  facet normal 0 0 -1
    outer loop
      vertex -1.69081 -2.07 -5.19432
      vertex 20.0287 20.0287 -5.19432
      vertex 45.3792 -2.07 -5.19432
    endloop
  endfacet
  facet normal 0 0 -1
    outer loop
      vertex 20.0287 20.0287 -5.19432
      vertex 20.4833 19.6556 -5.19432
      vertex 45.3792 -2.07 -5.19432
    endloop
  endfacet
  facet normal 0 0 -1
    outer loop
      vertex 21.5647 19.2076 -5.19432
      vertex 45.3792 -2.07 -5.19432
      vertex 21.0019 19.3784 -5.19432
    endloop
  endfacet
  facet normal 0 0 -1
    outer loop
      vertex 22.15 19.15 -5.19432
      vertex 45.3792 -2.07 -5.19432
      vertex 21.5647 19.2076 -5.19432
    endloop
  endfacet
  facet normal 0 0 -1
    outer loop
      vertex 22.7353 19.2076 -5.19432
      vertex 45.3792 -2.07 -5.19432
      vertex 22.15 19.15 -5.19432
    endloop
  endfacet
  facet normal 0 0 -1
    outer loop
      vertex 24.2713 20.0287 -5.19432
      vertex 45.3792 -2.07 -5.19432
      vertex 23.8167 19.6556 -5.19432
    endloop
  endfacet
  facet normal 0 0 -1
    outer loop
      vertex 19.2076 22.7353 -5.19432
      vertex -1.69081 46.569 -5.19432
      vertex 19.3784 23.298 -5.19432
    endloop
  endfacet
  facet normal 0 0 -1
    outer loop
      vertex 22.7353 19.2076 -5.19432
      vertex 23.298 19.3784 -5.19432
      vertex 45.3792 -2.07 -5.19432
    endloop
  endfacet
  facet normal 0 0 -1
    outer loop
      vertex 19.3784 23.298 -5.19432
      vertex -1.69081 46.569 -5.19432
      vertex 19.6556 23.8167 -5.19432
    endloop
  endfacet
  facet normal 0 0 -1
    outer loop
      vertex 23.298 19.3784 -5.19432
      vertex 23.8167 19.6556 -5.19432
      vertex 45.3792 -2.07 -5.19432
    endloop
  endfacet
  facet normal 0 0 -1
    outer loop
      vertex 19.6556 23.8167 -5.19432
      vertex -1.69081 46.569 -5.19432
      vertex 20.0287 24.2713 -5.19432
    endloop
  endfacet
  facet normal 0 0 -1
    outer loop
      vertex 45.3792 -2.07 -5.19432
      vertex 24.2713 20.0287 -5.19432
      vertex 24.6444 20.4833 -5.19432
    endloop
  endfacet
  facet normal 0 0 -1
    outer loop
      vertex 45.3792 -2.07 -5.19432
      vertex 24.6444 20.4833 -5.19432
      vertex 45.3792 46.569 -5.19432
    endloop
  endfacet
  facet normal 0 0 -1
    outer loop
      vertex 20.0287 24.2713 -5.19432
      vertex -1.69081 46.569 -5.19432
      vertex 20.4833 24.6444 -5.19432
    endloop
  endfacet
  facet normal 0 0 -1
    outer loop
      vertex 23.298 24.9216 -5.19432
      vertex -1.69081 46.569 -5.19432
      vertex 23.8167 24.6444 -5.19432
    endloop
  endfacet
  facet normal 0 0 -1
    outer loop
      vertex 20.4833 24.6444 -5.19432
      vertex -1.69081 46.569 -5.19432
      vertex 21.0019 24.9216 -5.19432
    endloop
  endfacet
  facet normal 0 0 -1
    outer loop
      vertex 24.9216 21.0019 -5.19432
      vertex 25.0924 21.5647 -5.19432
      vertex 45.3792 46.569 -5.19432
    endloop
  endfacet
  facet normal 0 0 -1
    outer loop
      vertex 21.0019 24.9216 -5.19432
      vertex -1.69081 46.569 -5.19432
      vertex 21.5647 25.0924 -5.19432
    endloop
  endfacet
  facet normal 0 0 -1
    outer loop
      vertex 25.0924 21.5647 -5.19432
      vertex 25.15 22.15 -5.19432
      vertex 45.3792 46.569 -5.19432
    endloop
  endfacet
  facet normal 0 0 -1
    outer loop
      vertex 21.5647 25.0924 -5.19432
      vertex -1.69081 46.569 -5.19432
      vertex 22.15 25.15 -5.19432
    endloop
  endfacet
  facet normal 0 0 -1
    outer loop
      vertex 25.15 22.15 -5.19432
      vertex 25.0924 22.7353 -5.19432
      vertex 45.3792 46.569 -5.19432
    endloop
  endfacet
  facet normal 0 0 -1
    outer loop
      vertex 22.15 25.15 -5.19432
      vertex -1.69081 46.569 -5.19432
      vertex 22.7353 25.0924 -5.19432
    endloop
  endfacet
  facet normal 0 0 -1
    outer loop
      vertex 25.0924 22.7353 -5.19432
      vertex 24.9216 23.298 -5.19432
      vertex 45.3792 46.569 -5.19432
    endloop
  endfacet
  facet normal 0 0 -1
    outer loop
      vertex 22.7353 25.0924 -5.19432
      vertex -1.69081 46.569 -5.19432
      vertex 23.298 24.9216 -5.19432
    endloop
  endfacet
  facet normal 0 0 -1
    outer loop
      vertex 24.9216 23.298 -5.19432
      vertex 24.6444 23.8167 -5.19432
      vertex 45.3792 46.569 -5.19432
    endloop
  endfacet
  facet normal 0 0 -1
    outer loop
      vertex 23.8167 24.6444 -5.19432
      vertex -1.69081 46.569 -5.19432
      vertex 24.2713 24.2713 -5.19432
    endloop
  endfacet
  facet normal 0 0 -1
    outer loop
      vertex 24.6444 23.8167 -5.19432
      vertex 24.2713 24.2713 -5.19432
      vertex 45.3792 46.569 -5.19432
    endloop
  endfacet
  facet normal 0 0 -1
    outer loop
      vertex 24.9216 21.0019 -5.19432
      vertex 45.3792 46.569 -5.19432
      vertex 24.6444 20.4833 -5.19432
    endloop
  endfacet
  facet normal 0 0 -1
    outer loop
      vertex 19.15 22.15 -5.19432
      vertex -1.69081 46.569 -5.19432
      vertex 19.2076 22.7353 -5.19432
    endloop
  endfacet
  facet normal 0 0 -1
    outer loop
      vertex 21.0019 19.3784 -5.19432
      vertex 45.3792 -2.07 -5.19432
      vertex 20.4833 19.6556 -5.19432
    endloop
  endfacet
  facet normal 0 0.484282 -0.874912
    outer loop
      vertex -1.69081 46.569 -5.19432
      vertex -0.340812 48.5418 -4.10232
      vertex 45.3792 46.569 -5.19432
    endloop
  endfacet
  facet normal 0 0.484282 -0.874912
    outer loop
      vertex 45.3792 46.569 -5.19432
      vertex -0.340812 48.5418 -4.10232
      vertex 46.7292 48.5418 -4.10232
    endloop
  endfacet
  facet normal -8.11214e-17 1 0
    outer loop
      vertex -2.25 48.5418 -2.558
      vertex -2.25 48.5418 6.906
      vertex -0.340812 48.5418 -4.10232
    endloop
  endfacet
  facet normal -8.11214e-17 1 0
    outer loop
      vertex -0.340812 48.5418 -4.10232
      vertex -2.25 48.5418 6.906
      vertex -0.340812 48.5418 5.36168
    endloop
  endfacet
  facet normal 0 1 1.00287e-16
    outer loop
      vertex -2.25 48.5418 6.906
      vertex 3.4 48.5418 6.906
      vertex -0.340812 48.5418 5.36168
    endloop
  endfacet
  facet normal 0 1 1.00287e-16
    outer loop
      vertex -0.340812 48.5418 5.36168
      vertex 3.4 48.5418 6.906
      vertex 3.4 48.5418 6.63736
    endloop
  endfacet
  facet normal 0 1 1.00287e-16
    outer loop
      vertex -0.340812 48.5418 5.36168
      vertex 3.4 48.5418 6.63736
      vertex 2.4645 48.5418 5.36168
    endloop
  endfacet
  facet normal 0 0.484282 0.874912
    outer loop
      vertex 3.4 48.5418 6.906
      vertex -2.25 48.5418 6.906
      vertex -0.9 46.569 7.998
    endloop
  endfacet
  facet normal 0 0.484282 0.874912
    outer loop
      vertex 3.4 46.569 7.998
      vertex 3.4 48.5418 6.906
      vertex -0.9 46.569 7.998
    endloop
  endfacet
  facet normal -0.6289 0 0.777486
    outer loop
      vertex -2.25 48.5418 6.906
      vertex -2.25 -0.0971721 6.906
      vertex -0.9 -2.07 7.998
    endloop
  endfacet
  facet normal -0.6289 0 0.777486
    outer loop
      vertex -0.9 46.569 7.998
      vertex -2.25 48.5418 6.906
      vertex -0.9 -2.07 7.998
    endloop
  endfacet
  facet normal 0 1 0
    outer loop
      vertex 44.3 48.5418 0
      vertex 46.7292 48.5418 -4.10232
      vertex 0 48.5418 0
    endloop
  endfacet
  facet normal 0 1 0
    outer loop
      vertex -0.340812 48.5418 -4.10232
      vertex -0.340812 48.5418 5.36168
      vertex 0 48.5418 2.001
    endloop
  endfacet
  facet normal 0 1 0
    outer loop
      vertex -0.340812 48.5418 -4.10232
      vertex 0 48.5418 2.001
      vertex 0 48.5418 0
    endloop
  endfacet
  facet normal 0 1 0
    outer loop
      vertex -0.340812 48.5418 -4.10232
      vertex 0 48.5418 0
      vertex 46.7292 48.5418 -4.10232
    endloop
  endfacet
  facet normal 0 1 0
    outer loop
      vertex 46.7292 48.5418 -4.10232
      vertex 44.3 48.5418 0
      vertex 44.3 48.5418 2.001
    endloop
  endfacet
  facet normal 0 1 0
    outer loop
      vertex 44.3 48.5418 2.001
      vertex 41.8355 48.5418 5.36168
      vertex 46.7292 48.5418 5.36168
    endloop
  endfacet
  facet normal 0 1 0
    outer loop
      vertex 44.3 48.5418 2.001
      vertex 46.7292 48.5418 5.36168
      vertex 46.7292 48.5418 -4.10232
    endloop
  endfacet
  facet normal 0 1 0
    outer loop
      vertex 0 48.5418 2.001
      vertex -0.340812 48.5418 5.36168
      vertex 2.4645 48.5418 5.36168
    endloop
  endfacet
  facet normal 0 0 1
    outer loop
      vertex -0.9 46.569 7.998
      vertex -0.9 -2.07 7.998
      vertex 3.4 -2.07 7.998
    endloop
  endfacet
  facet normal 0 0 1
    outer loop
      vertex 3.4 46.569 7.998
      vertex -0.9 46.569 7.998
      vertex 3.4 -2.07 7.998
    endloop
  endfacet
  facet normal 1 0 0
    outer loop
      vertex 3.4 48.5418 6.63736
      vertex 3.4 48.5418 6.906
      vertex 3.4 46.569 7.998
    endloop
  endfacet
  facet normal 1 0 0
    outer loop
      vertex 3.4 -4.04283 6.906
      vertex 3.4 48.5418 6.63736
      vertex 3.4 -2.07 7.998
    endloop
  endfacet
  facet normal 1 0 0
    outer loop
      vertex 3.4 -2.07 7.998
      vertex 3.4 48.5418 6.63736
      vertex 3.4 46.569 7.998
    endloop
  endfacet
  facet normal 1 0 0
    outer loop
      vertex 3.4 -4.04283 6.63736
      vertex 3.4 48.5418 6.63736
      vertex 3.4 -4.04283 6.906
    endloop
  endfacet
  facet normal 0.806405 0 -0.591364
    outer loop
      vertex 0 48.5418 2.001
      vertex 2.4645 48.5418 5.36168
      vertex 3.4 48.5418 6.63736
    endloop
  endfacet
  facet normal 0.806405 0 -0.591364
    outer loop
      vertex 0 -4.04283 2.001
      vertex 0 48.5418 2.001
      vertex 3.4 -4.04283 6.63736
    endloop
  endfacet
  facet normal 0.806405 0 -0.591364
    outer loop
      vertex 3.4 -4.04283 6.63736
      vertex 0 48.5418 2.001
      vertex 3.4 48.5418 6.63736
    endloop
  endfacet
  facet normal 1 0 0
    outer loop
      vertex 0 48.5418 0
      vertex 0 48.5418 2.001
      vertex 0 -4.04283 2.001
    endloop
  endfacet
  facet normal 1 0 0
    outer loop
      vertex 0 -4.04283 0
      vertex 0 48.5418 0
      vertex 0 -4.04283 2.001
    endloop
  endfacet
  facet normal 0 0 1
    outer loop
      vertex 19.4833 26.1411 0
      vertex 44.3 48.5418 0
      vertex 0 48.5418 0
    endloop
  endfacet
  facet normal 0 0 1
    outer loop
      vertex 26.95 22.15 0
      vertex 26.8578 21.2136 0
      vertex 44.3 -4.04283 0
    endloop
  endfacet
  facet normal 0 0 1
    outer loop
      vertex 0 -4.04283 0
      vertex 17.35 22.15 0
      vertex 0 48.5418 0
    endloop
  endfacet
  facet normal 0 0 1
    outer loop
      vertex 17.35 22.15 0
      vertex 17.4422 23.0864 0
      vertex 0 48.5418 0
    endloop
  endfacet
  facet normal 0 0 1
    outer loop
      vertex 17.4422 23.0864 0
      vertex 17.7154 23.9869 0
      vertex 0 48.5418 0
    endloop
  endfacet
  facet normal 0 0 1
    outer loop
      vertex 17.7154 23.9869 0
      vertex 18.1589 24.8167 0
      vertex 0 48.5418 0
    endloop
  endfacet
  facet normal 0 0 1
    outer loop
      vertex 18.1589 24.8167 0
      vertex 18.7559 25.5441 0
      vertex 0 48.5418 0
    endloop
  endfacet
  facet normal 0 0 1
    outer loop
      vertex 20.3131 26.5846 0
      vertex 44.3 48.5418 0
      vertex 19.4833 26.1411 0
    endloop
  endfacet
  facet normal 0 0 1
    outer loop
      vertex 25.5441 18.7559 0
      vertex 24.8167 18.1589 0
      vertex 44.3 -4.04283 0
    endloop
  endfacet
  facet normal 0 0 1
    outer loop
      vertex 21.2136 26.8578 0
      vertex 44.3 48.5418 0
      vertex 20.3131 26.5846 0
    endloop
  endfacet
  facet normal 0 0 1
    outer loop
      vertex 22.15 26.95 0
      vertex 44.3 48.5418 0
      vertex 21.2136 26.8578 0
    endloop
  endfacet
  facet normal 0 0 1
    outer loop
      vertex 23.0864 26.8578 0
      vertex 44.3 48.5418 0
      vertex 22.15 26.95 0
    endloop
  endfacet
  facet normal 0 0 1
    outer loop
      vertex 23.9869 26.5846 0
      vertex 44.3 48.5418 0
      vertex 23.0864 26.8578 0
    endloop
  endfacet
  facet normal 0 0 1
    outer loop
      vertex 26.8578 21.2136 0
      vertex 26.5846 20.3131 0
      vertex 44.3 -4.04283 0
    endloop
  endfacet
  facet normal 0 0 1
    outer loop
      vertex 24.8167 26.1411 0
      vertex 44.3 48.5418 0
      vertex 23.9869 26.5846 0
    endloop
  endfacet
  facet normal 0 0 1
    outer loop
      vertex 25.5441 25.5441 0
      vertex 44.3 48.5418 0
      vertex 24.8167 26.1411 0
    endloop
  endfacet
  facet normal 0 0 1
    outer loop
      vertex 26.1411 24.8167 0
      vertex 44.3 48.5418 0
      vertex 25.5441 25.5441 0
    endloop
  endfacet
  facet normal 0 0 1
    outer loop
      vertex 44.3 -4.04283 0
      vertex 44.3 48.5418 0
      vertex 26.1411 24.8167 0
    endloop
  endfacet
  facet normal 0 0 1
    outer loop
      vertex 26.8578 23.0864 0
      vertex 26.95 22.15 0
      vertex 44.3 -4.04283 0
    endloop
  endfacet
  facet normal 0 0 1
    outer loop
      vertex 44.3 -4.04283 0
      vertex 26.1411 24.8167 0
      vertex 26.5846 23.9869 0
    endloop
  endfacet
  facet normal 0 0 1
    outer loop
      vertex 26.1411 19.4833 0
      vertex 25.5441 18.7559 0
      vertex 44.3 -4.04283 0
    endloop
  endfacet
  facet normal 0 0 1
    outer loop
      vertex 26.5846 20.3131 0
      vertex 26.1411 19.4833 0
      vertex 44.3 -4.04283 0
    endloop
  endfacet
  facet normal 0 0 1
    outer loop
      vertex 23.0864 17.4422 0
      vertex 22.15 17.35 0
      vertex 44.3 -4.04283 0
    endloop
  endfacet
  facet normal 0 0 1
    outer loop
      vertex 26.5846 23.9869 0
      vertex 26.8578 23.0864 0
      vertex 44.3 -4.04283 0
    endloop
  endfacet
  facet normal 0 0 1
    outer loop
      vertex 23.9869 17.7154 0
      vertex 23.0864 17.4422 0
      vertex 44.3 -4.04283 0
    endloop
  endfacet
  facet normal 0 0 1
    outer loop
      vertex 0 -4.04283 0
      vertex 44.3 -4.04283 0
      vertex 22.15 17.35 0
    endloop
  endfacet
  facet normal 0 0 1
    outer loop
      vertex 0 -4.04283 0
      vertex 22.15 17.35 0
      vertex 21.2136 17.4422 0
    endloop
  endfacet
  facet normal 0 0 1
    outer loop
      vertex 0 -4.04283 0
      vertex 21.2136 17.4422 0
      vertex 20.3131 17.7154 0
    endloop
  endfacet
  facet normal 0 0 1
    outer loop
      vertex 0 -4.04283 0
      vertex 20.3131 17.7154 0
      vertex 19.4833 18.1589 0
    endloop
  endfacet
  facet normal 0 0 1
    outer loop
      vertex 0 -4.04283 0
      vertex 19.4833 18.1589 0
      vertex 18.7559 18.7559 0
    endloop
  endfacet
  facet normal 0 0 1
    outer loop
      vertex 0 -4.04283 0
      vertex 18.7559 18.7559 0
      vertex 18.1589 19.4833 0
    endloop
  endfacet
  facet normal 0 0 1
    outer loop
      vertex 0 -4.04283 0
      vertex 18.1589 19.4833 0
      vertex 17.7154 20.3131 0
    endloop
  endfacet
  facet normal 0 0 1
    outer loop
      vertex 0 -4.04283 0
      vertex 17.4422 21.2136 0
      vertex 17.35 22.15 0
    endloop
  endfacet
  facet normal 0 0 1
    outer loop
      vertex 0 -4.04283 0
      vertex 17.7154 20.3131 0
      vertex 17.4422 21.2136 0
    endloop
  endfacet
  facet normal 0 0 1
    outer loop
      vertex 24.8167 18.1589 0
      vertex 23.9869 17.7154 0
      vertex 44.3 -4.04283 0
    endloop
  endfacet
  facet normal 0 0 1
    outer loop
      vertex 18.7559 25.5441 0
      vertex 19.4833 26.1411 0
      vertex 0 48.5418 0
    endloop
  endfacet
  facet normal -1 0 0
    outer loop
      vertex 44.3 48.5418 2.001
      vertex 44.3 48.5418 0
      vertex 44.3 -4.04283 2.001
    endloop
  endfacet
  facet normal -1 0 0
    outer loop
      vertex 44.3 -4.04283 2.001
      vertex 44.3 48.5418 0
      vertex 44.3 -4.04283 0
    endloop
  endfacet
  facet normal -0.806405 0 -0.591364
    outer loop
      vertex 41.8355 48.5418 5.36168
      vertex 44.3 48.5418 2.001
      vertex 40.9 48.5418 6.63736
    endloop
  endfacet
  facet normal -0.806405 0 -0.591364
    outer loop
      vertex 40.9 48.5418 6.63736
      vertex 44.3 48.5418 2.001
      vertex 44.3 -4.04283 2.001
    endloop
  endfacet
  facet normal -0.806405 0 -0.591364
    outer loop
      vertex 40.9 48.5418 6.63736
      vertex 44.3 -4.04283 2.001
      vertex 40.9 -4.04283 6.63736
    endloop
  endfacet
  facet normal -1 0 0
    outer loop
      vertex 40.9 -2.07 7.998
      vertex 40.9 46.569 7.998
      vertex 40.9 -4.04283 6.906
    endloop
  endfacet
  facet normal -1 0 0
    outer loop
      vertex 40.9 -4.04283 6.906
      vertex 40.9 46.569 7.998
      vertex 40.9 48.5418 6.906
    endloop
  endfacet
  facet normal -1 0 0
    outer loop
      vertex 40.9 -4.04283 6.906
      vertex 40.9 48.5418 6.906
      vertex 40.9 48.5418 6.63736
    endloop
  endfacet
  facet normal -1 0 0
    outer loop
      vertex 40.9 -4.04283 6.906
      vertex 40.9 48.5418 6.63736
      vertex 40.9 -4.04283 6.63736
    endloop
  endfacet
  facet normal 0 -0.484282 0.874912
    outer loop
      vertex 40.9 -2.07 7.998
      vertex 40.9 -4.04283 6.906
      vertex 44.82 -4.04283 6.906
    endloop
  endfacet
  facet normal 0 -0.484282 0.874912
    outer loop
      vertex 46.17 -2.07 7.998
      vertex 40.9 -2.07 7.998
      vertex 44.82 -4.04283 6.906
    endloop
  endfacet
  facet normal 0.476656 -0.652348 0.589272
    outer loop
      vertex 46.17 -2.07 7.998
      vertex 44.82 -4.04283 6.906
      vertex 46.7292 -4.04283 5.36168
    endloop
  endfacet
  facet normal 0.476656 -0.652348 0.589272
    outer loop
      vertex 48.0792 -2.07 6.45368
      vertex 46.17 -2.07 7.998
      vertex 46.7292 -4.04283 5.36168
    endloop
  endfacet
  facet normal 8.11214e-17 -1 0
    outer loop
      vertex 44.82 -4.04283 6.906
      vertex 44.82 -4.04283 -2.558
      vertex 46.7292 -4.04283 -4.10232
    endloop
  endfacet
  facet normal 8.11214e-17 -1 0
    outer loop
      vertex 46.7292 -4.04283 5.36168
      vertex 44.82 -4.04283 6.906
      vertex 46.7292 -4.04283 -4.10232
    endloop
  endfacet
  facet normal 0.825274 -0.564732 0
    outer loop
      vertex 46.7292 -4.04283 5.36168
      vertex 46.7292 -4.04283 -4.10232
      vertex 48.0792 -2.07 -3.01032
    endloop
  endfacet
  facet normal 0.825274 -0.564732 0
    outer loop
      vertex 48.0792 -2.07 6.45368
      vertex 46.7292 -4.04283 5.36168
      vertex 48.0792 -2.07 -3.01032
    endloop
  endfacet
  facet normal 0.6289 0 -0.777486
    outer loop
      vertex 46.7292 -4.04283 -4.10232
      vertex 46.7292 44.5962 -4.10232
      vertex 48.0792 -2.07 -3.01032
    endloop
  endfacet
  facet normal 0.6289 0 -0.777486
    outer loop
      vertex 48.0792 -2.07 -3.01032
      vertex 46.7292 44.5962 -4.10232
      vertex 48.0792 46.569 -3.01032
    endloop
  endfacet
  facet normal 0.6289 0 -0.777486
    outer loop
      vertex 45.3792 -2.07 -5.19432
      vertex 45.3792 46.569 -5.19432
      vertex 46.7292 -4.04283 -4.10232
    endloop
  endfacet
  facet normal 0.6289 0 -0.777486
    outer loop
      vertex 46.7292 -4.04283 -4.10232
      vertex 45.3792 46.569 -5.19432
      vertex 46.7292 44.5962 -4.10232
    endloop
  endfacet
  facet normal 0.6289 2.65226e-33 -0.777486
    outer loop
      vertex 45.3792 46.569 -5.19432
      vertex 46.7292 48.5418 -4.10232
      vertex 46.7292 44.5962 -4.10232
    endloop
  endfacet
  facet normal 0.6289 2.65226e-33 -0.777486
    outer loop
      vertex 46.7292 44.5962 -4.10232
      vertex 46.7292 48.5418 -4.10232
      vertex 48.0792 46.569 -3.01032
    endloop
  endfacet
  facet normal 0.995185 -0.0980169 0
    outer loop
      vertex 19.2076 22.7353 -5.19432
      vertex 19.2076 22.7353 -3
      vertex 19.15 22.15 -3
    endloop
  endfacet
  facet normal 0.995185 -0.0980169 0
    outer loop
      vertex 19.15 22.15 -5.19432
      vertex 19.2076 22.7353 -5.19432
      vertex 19.15 22.15 -3
    endloop
  endfacet
  facet normal 0.995185 0.0980169 0
    outer loop
      vertex 19.15 22.15 -3
      vertex 19.2076 21.5647 -3
      vertex 19.2076 21.5647 -5.19432
    endloop
  endfacet
  facet normal 0.995185 0.0980169 0
    outer loop
      vertex 19.15 22.15 -5.19432
      vertex 19.15 22.15 -3
      vertex 19.2076 21.5647 -5.19432
    endloop
  endfacet
  facet normal 0.95694 -0.290284 0
    outer loop
      vertex 19.3784 23.298 -5.19432
      vertex 19.3784 23.298 -3
      vertex 19.2076 22.7353 -3
    endloop
  endfacet
  facet normal 0.95694 -0.290284 0
    outer loop
      vertex 19.2076 22.7353 -5.19432
      vertex 19.3784 23.298 -5.19432
      vertex 19.2076 22.7353 -3
    endloop
  endfacet
  facet normal 0.881921 -0.471397 0
    outer loop
      vertex 19.6556 23.8167 -5.19432
      vertex 19.6556 23.8167 -3
      vertex 19.3784 23.298 -3
    endloop
  endfacet
  facet normal 0.881921 -0.471397 0
    outer loop
      vertex 19.3784 23.298 -5.19432
      vertex 19.6556 23.8167 -5.19432
      vertex 19.3784 23.298 -3
    endloop
  endfacet
  facet normal 0.77301 -0.634394 0
    outer loop
      vertex 20.0287 24.2713 -5.19432
      vertex 20.0287 24.2713 -3
      vertex 19.6556 23.8167 -3
    endloop
  endfacet
  facet normal 0.77301 -0.634394 0
    outer loop
      vertex 19.6556 23.8167 -5.19432
      vertex 20.0287 24.2713 -5.19432
      vertex 19.6556 23.8167 -3
    endloop
  endfacet
  facet normal 0.634394 -0.77301 0
    outer loop
      vertex 20.4833 24.6444 -5.19432
      vertex 20.4833 24.6444 -3
      vertex 20.0287 24.2713 -3
    endloop
  endfacet
  facet normal 0.634394 -0.77301 0
    outer loop
      vertex 20.0287 24.2713 -5.19432
      vertex 20.4833 24.6444 -5.19432
      vertex 20.0287 24.2713 -3
    endloop
  endfacet
  facet normal 0.471397 -0.881921 0
    outer loop
      vertex 21.0019 24.9216 -5.19432
      vertex 21.0019 24.9216 -3
      vertex 20.4833 24.6444 -3
    endloop
  endfacet
  facet normal 0.471397 -0.881921 0
    outer loop
      vertex 20.4833 24.6444 -5.19432
      vertex 21.0019 24.9216 -5.19432
      vertex 20.4833 24.6444 -3
    endloop
  endfacet
  facet normal 0.290284 -0.95694 0
    outer loop
      vertex 21.5647 25.0924 -5.19432
      vertex 21.5647 25.0924 -3
      vertex 21.0019 24.9216 -3
    endloop
  endfacet
  facet normal 0.290284 -0.95694 0
    outer loop
      vertex 21.0019 24.9216 -5.19432
      vertex 21.5647 25.0924 -5.19432
      vertex 21.0019 24.9216 -3
    endloop
  endfacet
  facet normal 0.0980169 -0.995185 0
    outer loop
      vertex 22.15 25.15 -5.19432
      vertex 22.15 25.15 -3
      vertex 21.5647 25.0924 -3
    endloop
  endfacet
  facet normal 0.0980169 -0.995185 0
    outer loop
      vertex 21.5647 25.0924 -5.19432
      vertex 22.15 25.15 -5.19432
      vertex 21.5647 25.0924 -3
    endloop
  endfacet
  facet normal -0.0980169 -0.995185 0
    outer loop
      vertex 22.7353 25.0924 -5.19432
      vertex 22.7353 25.0924 -3
      vertex 22.15 25.15 -3
    endloop
  endfacet
  facet normal -0.0980169 -0.995185 0
    outer loop
      vertex 22.15 25.15 -5.19432
      vertex 22.7353 25.0924 -5.19432
      vertex 22.15 25.15 -3
    endloop
  endfacet
  facet normal -0.290284 -0.95694 0
    outer loop
      vertex 23.298 24.9216 -5.19432
      vertex 23.298 24.9216 -3
      vertex 22.7353 25.0924 -3
    endloop
  endfacet
  facet normal -0.290284 -0.95694 0
    outer loop
      vertex 22.7353 25.0924 -5.19432
      vertex 23.298 24.9216 -5.19432
      vertex 22.7353 25.0924 -3
    endloop
  endfacet
  facet normal -0.471397 -0.881921 0
    outer loop
      vertex 23.8167 24.6444 -5.19432
      vertex 23.8167 24.6444 -3
      vertex 23.298 24.9216 -3
    endloop
  endfacet
  facet normal -0.471397 -0.881921 0
    outer loop
      vertex 23.298 24.9216 -5.19432
      vertex 23.8167 24.6444 -5.19432
      vertex 23.298 24.9216 -3
    endloop
  endfacet
  facet normal -0.634394 -0.77301 0
    outer loop
      vertex 24.2713 24.2713 -5.19432
      vertex 24.2713 24.2713 -3
      vertex 23.8167 24.6444 -3
    endloop
  endfacet
  facet normal -0.634394 -0.77301 0
    outer loop
      vertex 23.8167 24.6444 -5.19432
      vertex 24.2713 24.2713 -5.19432
      vertex 23.8167 24.6444 -3
    endloop
  endfacet
  facet normal -0.77301 -0.634394 0
    outer loop
      vertex 24.6444 23.8167 -3
      vertex 24.2713 24.2713 -3
      vertex 24.6444 23.8167 -5.19432
    endloop
  endfacet
  facet normal -0.77301 -0.634394 0
    outer loop
      vertex 24.6444 23.8167 -5.19432
      vertex 24.2713 24.2713 -3
      vertex 24.2713 24.2713 -5.19432
    endloop
  endfacet
  facet normal -0.881921 -0.471397 0
    outer loop
      vertex 24.9216 23.298 -3
      vertex 24.6444 23.8167 -3
      vertex 24.9216 23.298 -5.19432
    endloop
  endfacet
  facet normal -0.881921 -0.471397 0
    outer loop
      vertex 24.9216 23.298 -5.19432
      vertex 24.6444 23.8167 -3
      vertex 24.6444 23.8167 -5.19432
    endloop
  endfacet
  facet normal -0.95694 -0.290284 0
    outer loop
      vertex 25.0924 22.7353 -3
      vertex 24.9216 23.298 -3
      vertex 25.0924 22.7353 -5.19432
    endloop
  endfacet
  facet normal -0.95694 -0.290284 0
    outer loop
      vertex 25.0924 22.7353 -5.19432
      vertex 24.9216 23.298 -3
      vertex 24.9216 23.298 -5.19432
    endloop
  endfacet
  facet normal -0.995185 -0.0980169 0
    outer loop
      vertex 25.15 22.15 -3
      vertex 25.0924 22.7353 -3
      vertex 25.15 22.15 -5.19432
    endloop
  endfacet
  facet normal -0.995185 -0.0980169 0
    outer loop
      vertex 25.15 22.15 -5.19432
      vertex 25.0924 22.7353 -3
      vertex 25.0924 22.7353 -5.19432
    endloop
  endfacet
  facet normal -0.995185 0.0980169 0
    outer loop
      vertex 25.15 22.15 -3
      vertex 25.15 22.15 -5.19432
      vertex 25.0924 21.5647 -3
    endloop
  endfacet
  facet normal -0.995185 0.0980169 0
    outer loop
      vertex 25.0924 21.5647 -3
      vertex 25.15 22.15 -5.19432
      vertex 25.0924 21.5647 -5.19432
    endloop
  endfacet
  facet normal -0.95694 0.290284 0
    outer loop
      vertex 25.0924 21.5647 -3
      vertex 25.0924 21.5647 -5.19432
      vertex 24.9216 21.0019 -3
    endloop
  endfacet
  facet normal -0.95694 0.290284 0
    outer loop
      vertex 24.9216 21.0019 -3
      vertex 25.0924 21.5647 -5.19432
      vertex 24.9216 21.0019 -5.19432
    endloop
  endfacet
  facet normal -0.881921 0.471397 0
    outer loop
      vertex 24.9216 21.0019 -3
      vertex 24.9216 21.0019 -5.19432
      vertex 24.6444 20.4833 -3
    endloop
  endfacet
  facet normal -0.881921 0.471397 0
    outer loop
      vertex 24.6444 20.4833 -3
      vertex 24.9216 21.0019 -5.19432
      vertex 24.6444 20.4833 -5.19432
    endloop
  endfacet
  facet normal -0.77301 0.634394 0
    outer loop
      vertex 24.6444 20.4833 -3
      vertex 24.6444 20.4833 -5.19432
      vertex 24.2713 20.0287 -3
    endloop
  endfacet
  facet normal -0.77301 0.634394 0
    outer loop
      vertex 24.2713 20.0287 -3
      vertex 24.6444 20.4833 -5.19432
      vertex 24.2713 20.0287 -5.19432
    endloop
  endfacet
  facet normal -0.634394 0.77301 0
    outer loop
      vertex 24.2713 20.0287 -3
      vertex 24.2713 20.0287 -5.19432
      vertex 23.8167 19.6556 -3
    endloop
  endfacet
  facet normal -0.634394 0.77301 0
    outer loop
      vertex 23.8167 19.6556 -3
      vertex 24.2713 20.0287 -5.19432
      vertex 23.8167 19.6556 -5.19432
    endloop
  endfacet
  facet normal -0.471397 0.881921 0
    outer loop
      vertex 23.8167 19.6556 -3
      vertex 23.8167 19.6556 -5.19432
      vertex 23.298 19.3784 -3
    endloop
  endfacet
  facet normal -0.471397 0.881921 0
    outer loop
      vertex 23.298 19.3784 -3
      vertex 23.8167 19.6556 -5.19432
      vertex 23.298 19.3784 -5.19432
    endloop
  endfacet
  facet normal -0.290284 0.95694 0
    outer loop
      vertex 23.298 19.3784 -3
      vertex 23.298 19.3784 -5.19432
      vertex 22.7353 19.2076 -3
    endloop
  endfacet
  facet normal -0.290284 0.95694 0
    outer loop
      vertex 22.7353 19.2076 -3
      vertex 23.298 19.3784 -5.19432
      vertex 22.7353 19.2076 -5.19432
    endloop
  endfacet
  facet normal -0.0980169 0.995185 0
    outer loop
      vertex 22.7353 19.2076 -3
      vertex 22.7353 19.2076 -5.19432
      vertex 22.15 19.15 -3
    endloop
  endfacet
  facet normal -0.0980169 0.995185 0
    outer loop
      vertex 22.15 19.15 -3
      vertex 22.7353 19.2076 -5.19432
      vertex 22.15 19.15 -5.19432
    endloop
  endfacet
  facet normal 0.0980169 0.995185 0
    outer loop
      vertex 22.15 19.15 -3
      vertex 22.15 19.15 -5.19432
      vertex 21.5647 19.2076 -3
    endloop
  endfacet
  facet normal 0.0980169 0.995185 0
    outer loop
      vertex 21.5647 19.2076 -3
      vertex 22.15 19.15 -5.19432
      vertex 21.5647 19.2076 -5.19432
    endloop
  endfacet
  facet normal 0.290284 0.95694 0
    outer loop
      vertex 21.5647 19.2076 -3
      vertex 21.5647 19.2076 -5.19432
      vertex 21.0019 19.3784 -3
    endloop
  endfacet
  facet normal 0.290284 0.95694 0
    outer loop
      vertex 21.0019 19.3784 -3
      vertex 21.5647 19.2076 -5.19432
      vertex 21.0019 19.3784 -5.19432
    endloop
  endfacet
  facet normal 0.471397 0.881921 0
    outer loop
      vertex 21.0019 19.3784 -3
      vertex 21.0019 19.3784 -5.19432
      vertex 20.4833 19.6556 -3
    endloop
  endfacet
  facet normal 0.471397 0.881921 0
    outer loop
      vertex 20.4833 19.6556 -3
      vertex 21.0019 19.3784 -5.19432
      vertex 20.4833 19.6556 -5.19432
    endloop
  endfacet
  facet normal 0.634394 0.77301 0
    outer loop
      vertex 20.4833 19.6556 -3
      vertex 20.4833 19.6556 -5.19432
      vertex 20.0287 20.0287 -3
    endloop
  endfacet
  facet normal 0.634394 0.77301 0
    outer loop
      vertex 20.0287 20.0287 -3
      vertex 20.4833 19.6556 -5.19432
      vertex 20.0287 20.0287 -5.19432
    endloop
  endfacet
  facet normal 0.77301 0.634394 0
    outer loop
      vertex 19.6556 20.4833 -3
      vertex 20.0287 20.0287 -3
      vertex 20.0287 20.0287 -5.19432
    endloop
  endfacet
  facet normal 0.77301 0.634394 0
    outer loop
      vertex 19.6556 20.4833 -5.19432
      vertex 19.6556 20.4833 -3
      vertex 20.0287 20.0287 -5.19432
    endloop
  endfacet
  facet normal 0.881921 0.471397 0
    outer loop
      vertex 19.3784 21.0019 -3
      vertex 19.6556 20.4833 -3
      vertex 19.6556 20.4833 -5.19432
    endloop
  endfacet
  facet normal 0.881921 0.471397 0
    outer loop
      vertex 19.3784 21.0019 -5.19432
      vertex 19.3784 21.0019 -3
      vertex 19.6556 20.4833 -5.19432
    endloop
  endfacet
  facet normal 0.95694 0.290284 0
    outer loop
      vertex 19.2076 21.5647 -3
      vertex 19.3784 21.0019 -3
      vertex 19.3784 21.0019 -5.19432
    endloop
  endfacet
  facet normal 0.95694 0.290284 0
    outer loop
      vertex 19.2076 21.5647 -5.19432
      vertex 19.2076 21.5647 -3
      vertex 19.3784 21.0019 -5.19432
    endloop
  endfacet
  facet normal 0.825274 0.564732 0
    outer loop
      vertex 48.0792 46.569 -3.01032
      vertex 46.7292 48.5418 -4.10232
      vertex 46.7292 48.5418 5.36168
    endloop
  endfacet
  facet normal 0.825274 0.564732 0
    outer loop
      vertex 48.0792 46.569 6.45368
      vertex 48.0792 46.569 -3.01032
      vertex 46.7292 48.5418 5.36168
    endloop
  endfacet
  facet normal 0 1 1.00287e-16
    outer loop
      vertex 40.9 48.5418 6.906
      vertex 44.82 48.5418 6.906
      vertex 40.9 48.5418 6.63736
    endloop
  endfacet
  facet normal 0 1 1.00287e-16
    outer loop
      vertex 40.9 48.5418 6.63736
      vertex 44.82 48.5418 6.906
      vertex 46.7292 48.5418 5.36168
    endloop
  endfacet
  facet normal 0 1 1.00287e-16
    outer loop
      vertex 40.9 48.5418 6.63736
      vertex 46.7292 48.5418 5.36168
      vertex 41.8355 48.5418 5.36168
    endloop
  endfacet
  facet normal 0.476656 0.652348 0.589272
    outer loop
      vertex 44.82 48.5418 6.906
      vertex 46.17 46.569 7.998
      vertex 46.7292 48.5418 5.36168
    endloop
  endfacet
  facet normal 0.476656 0.652348 0.589272
    outer loop
      vertex 46.7292 48.5418 5.36168
      vertex 46.17 46.569 7.998
      vertex 48.0792 46.569 6.45368
    endloop
  endfacet
  facet normal 0.995185 0.0980175 0
    outer loop
      vertex 17.35 22.15 0
      vertex 17.4422 21.2136 0
      vertex 17.4422 21.2136 -3
    endloop
  endfacet
  facet normal 0.995185 0.0980175 0
    outer loop
      vertex 17.35 22.15 -3
      vertex 17.35 22.15 0
      vertex 17.4422 21.2136 -3
    endloop
  endfacet
  facet normal 0.995185 -0.0980175 0
    outer loop
      vertex 17.4422 23.0864 -3
      vertex 17.4422 23.0864 0
      vertex 17.35 22.15 0
    endloop
  endfacet
  facet normal 0.995185 -0.0980175 0
    outer loop
      vertex 17.35 22.15 -3
      vertex 17.4422 23.0864 -3
      vertex 17.35 22.15 0
    endloop
  endfacet
  facet normal 0.95694 0.290284 0
    outer loop
      vertex 17.4422 21.2136 0
      vertex 17.7154 20.3131 0
      vertex 17.7154 20.3131 -3
    endloop
  endfacet
  facet normal 0.95694 0.290284 0
    outer loop
      vertex 17.4422 21.2136 -3
      vertex 17.4422 21.2136 0
      vertex 17.7154 20.3131 -3
    endloop
  endfacet
  facet normal 0.881921 0.471397 0
    outer loop
      vertex 17.7154 20.3131 0
      vertex 18.1589 19.4833 0
      vertex 18.1589 19.4833 -3
    endloop
  endfacet
  facet normal 0.881921 0.471397 0
    outer loop
      vertex 17.7154 20.3131 -3
      vertex 17.7154 20.3131 0
      vertex 18.1589 19.4833 -3
    endloop
  endfacet
  facet normal 0.773011 0.634393 0
    outer loop
      vertex 18.1589 19.4833 0
      vertex 18.7559 18.7559 0
      vertex 18.7559 18.7559 -3
    endloop
  endfacet
  facet normal 0.773011 0.634393 0
    outer loop
      vertex 18.1589 19.4833 -3
      vertex 18.1589 19.4833 0
      vertex 18.7559 18.7559 -3
    endloop
  endfacet
  facet normal 0.634393 0.773011 0
    outer loop
      vertex 19.4833 18.1589 0
      vertex 19.4833 18.1589 -3
      vertex 18.7559 18.7559 0
    endloop
  endfacet
  facet normal 0.634393 0.773011 0
    outer loop
      vertex 18.7559 18.7559 0
      vertex 19.4833 18.1589 -3
      vertex 18.7559 18.7559 -3
    endloop
  endfacet
  facet normal 0.471397 0.881921 0
    outer loop
      vertex 20.3131 17.7154 0
      vertex 20.3131 17.7154 -3
      vertex 19.4833 18.1589 0
    endloop
  endfacet
  facet normal 0.471397 0.881921 0
    outer loop
      vertex 19.4833 18.1589 0
      vertex 20.3131 17.7154 -3
      vertex 19.4833 18.1589 -3
    endloop
  endfacet
  facet normal 0.290284 0.95694 0
    outer loop
      vertex 21.2136 17.4422 0
      vertex 21.2136 17.4422 -3
      vertex 20.3131 17.7154 0
    endloop
  endfacet
  facet normal 0.290284 0.95694 0
    outer loop
      vertex 20.3131 17.7154 0
      vertex 21.2136 17.4422 -3
      vertex 20.3131 17.7154 -3
    endloop
  endfacet
  facet normal 0.0980175 0.995185 0
    outer loop
      vertex 22.15 17.35 0
      vertex 22.15 17.35 -3
      vertex 21.2136 17.4422 0
    endloop
  endfacet
  facet normal 0.0980175 0.995185 0
    outer loop
      vertex 21.2136 17.4422 0
      vertex 22.15 17.35 -3
      vertex 21.2136 17.4422 -3
    endloop
  endfacet
  facet normal -0.0980175 0.995185 0
    outer loop
      vertex 23.0864 17.4422 0
      vertex 23.0864 17.4422 -3
      vertex 22.15 17.35 0
    endloop
  endfacet
  facet normal -0.0980175 0.995185 0
    outer loop
      vertex 22.15 17.35 0
      vertex 23.0864 17.4422 -3
      vertex 22.15 17.35 -3
    endloop
  endfacet
  facet normal -0.290284 0.95694 0
    outer loop
      vertex 23.9869 17.7154 0
      vertex 23.9869 17.7154 -3
      vertex 23.0864 17.4422 0
    endloop
  endfacet
  facet normal -0.290284 0.95694 0
    outer loop
      vertex 23.0864 17.4422 0
      vertex 23.9869 17.7154 -3
      vertex 23.0864 17.4422 -3
    endloop
  endfacet
  facet normal -0.471397 0.881921 0
    outer loop
      vertex 24.8167 18.1589 0
      vertex 24.8167 18.1589 -3
      vertex 23.9869 17.7154 0
    endloop
  endfacet
  facet normal -0.471397 0.881921 0
    outer loop
      vertex 23.9869 17.7154 0
      vertex 24.8167 18.1589 -3
      vertex 23.9869 17.7154 -3
    endloop
  endfacet
  facet normal -0.634393 0.773011 0
    outer loop
      vertex 25.5441 18.7559 0
      vertex 25.5441 18.7559 -3
      vertex 24.8167 18.1589 0
    endloop
  endfacet
  facet normal -0.634393 0.773011 0
    outer loop
      vertex 24.8167 18.1589 0
      vertex 25.5441 18.7559 -3
      vertex 24.8167 18.1589 -3
    endloop
  endfacet
  facet normal -0.773011 0.634393 0
    outer loop
      vertex 26.1411 19.4833 0
      vertex 26.1411 19.4833 -3
      vertex 25.5441 18.7559 0
    endloop
  endfacet
  facet normal -0.773011 0.634393 0
    outer loop
      vertex 25.5441 18.7559 0
      vertex 26.1411 19.4833 -3
      vertex 25.5441 18.7559 -3
    endloop
  endfacet
  facet normal -0.881921 0.471397 0
    outer loop
      vertex 26.5846 20.3131 0
      vertex 26.5846 20.3131 -3
      vertex 26.1411 19.4833 0
    endloop
  endfacet
  facet normal -0.881921 0.471397 0
    outer loop
      vertex 26.1411 19.4833 0
      vertex 26.5846 20.3131 -3
      vertex 26.1411 19.4833 -3
    endloop
  endfacet
  facet normal -0.95694 0.290284 0
    outer loop
      vertex 26.8578 21.2136 0
      vertex 26.8578 21.2136 -3
      vertex 26.5846 20.3131 0
    endloop
  endfacet
  facet normal -0.95694 0.290284 0
    outer loop
      vertex 26.5846 20.3131 0
      vertex 26.8578 21.2136 -3
      vertex 26.5846 20.3131 -3
    endloop
  endfacet
  facet normal -0.995185 0.0980175 0
    outer loop
      vertex 26.95 22.15 0
      vertex 26.95 22.15 -3
      vertex 26.8578 21.2136 0
    endloop
  endfacet
  facet normal -0.995185 0.0980175 0
    outer loop
      vertex 26.8578 21.2136 0
      vertex 26.95 22.15 -3
      vertex 26.8578 21.2136 -3
    endloop
  endfacet
  facet normal -0.995185 -0.0980175 0
    outer loop
      vertex 26.95 22.15 0
      vertex 26.8578 23.0864 0
      vertex 26.95 22.15 -3
    endloop
  endfacet
  facet normal -0.995185 -0.0980175 0
    outer loop
      vertex 26.95 22.15 -3
      vertex 26.8578 23.0864 0
      vertex 26.8578 23.0864 -3
    endloop
  endfacet
  facet normal -0.95694 -0.290284 0
    outer loop
      vertex 26.8578 23.0864 0
      vertex 26.5846 23.9869 0
      vertex 26.8578 23.0864 -3
    endloop
  endfacet
  facet normal -0.95694 -0.290284 0
    outer loop
      vertex 26.8578 23.0864 -3
      vertex 26.5846 23.9869 0
      vertex 26.5846 23.9869 -3
    endloop
  endfacet
  facet normal -0.881921 -0.471397 0
    outer loop
      vertex 26.5846 23.9869 0
      vertex 26.1411 24.8167 0
      vertex 26.5846 23.9869 -3
    endloop
  endfacet
  facet normal -0.881921 -0.471397 0
    outer loop
      vertex 26.5846 23.9869 -3
      vertex 26.1411 24.8167 0
      vertex 26.1411 24.8167 -3
    endloop
  endfacet
  facet normal -0.773011 -0.634393 0
    outer loop
      vertex 26.1411 24.8167 0
      vertex 25.5441 25.5441 0
      vertex 26.1411 24.8167 -3
    endloop
  endfacet
  facet normal -0.773011 -0.634393 0
    outer loop
      vertex 26.1411 24.8167 -3
      vertex 25.5441 25.5441 0
      vertex 25.5441 25.5441 -3
    endloop
  endfacet
  facet normal -0.634393 -0.773011 0
    outer loop
      vertex 25.5441 25.5441 -3
      vertex 25.5441 25.5441 0
      vertex 24.8167 26.1411 0
    endloop
  endfacet
  facet normal -0.634393 -0.773011 0
    outer loop
      vertex 24.8167 26.1411 -3
      vertex 25.5441 25.5441 -3
      vertex 24.8167 26.1411 0
    endloop
  endfacet
  facet normal -0.471397 -0.881921 0
    outer loop
      vertex 24.8167 26.1411 -3
      vertex 24.8167 26.1411 0
      vertex 23.9869 26.5846 0
    endloop
  endfacet
  facet normal -0.471397 -0.881921 0
    outer loop
      vertex 23.9869 26.5846 -3
      vertex 24.8167 26.1411 -3
      vertex 23.9869 26.5846 0
    endloop
  endfacet
  facet normal -0.290284 -0.95694 0
    outer loop
      vertex 23.9869 26.5846 -3
      vertex 23.9869 26.5846 0
      vertex 23.0864 26.8578 0
    endloop
  endfacet
  facet normal -0.290284 -0.95694 0
    outer loop
      vertex 23.0864 26.8578 -3
      vertex 23.9869 26.5846 -3
      vertex 23.0864 26.8578 0
    endloop
  endfacet
  facet normal -0.0980175 -0.995185 0
    outer loop
      vertex 23.0864 26.8578 -3
      vertex 23.0864 26.8578 0
      vertex 22.15 26.95 0
    endloop
  endfacet
  facet normal -0.0980175 -0.995185 0
    outer loop
      vertex 22.15 26.95 -3
      vertex 23.0864 26.8578 -3
      vertex 22.15 26.95 0
    endloop
  endfacet
  facet normal 0.0980175 -0.995185 0
    outer loop
      vertex 22.15 26.95 -3
      vertex 22.15 26.95 0
      vertex 21.2136 26.8578 0
    endloop
  endfacet
  facet normal 0.0980175 -0.995185 0
    outer loop
      vertex 21.2136 26.8578 -3
      vertex 22.15 26.95 -3
      vertex 21.2136 26.8578 0
    endloop
  endfacet
  facet normal 0.290284 -0.95694 0
    outer loop
      vertex 21.2136 26.8578 -3
      vertex 21.2136 26.8578 0
      vertex 20.3131 26.5846 0
    endloop
  endfacet
  facet normal 0.290284 -0.95694 0
    outer loop
      vertex 20.3131 26.5846 -3
      vertex 21.2136 26.8578 -3
      vertex 20.3131 26.5846 0
    endloop
  endfacet
  facet normal 0.471397 -0.881921 0
    outer loop
      vertex 20.3131 26.5846 -3
      vertex 20.3131 26.5846 0
      vertex 19.4833 26.1411 0
    endloop
  endfacet
  facet normal 0.471397 -0.881921 0
    outer loop
      vertex 19.4833 26.1411 -3
      vertex 20.3131 26.5846 -3
      vertex 19.4833 26.1411 0
    endloop
  endfacet
  facet normal 0.634393 -0.773011 0
    outer loop
      vertex 19.4833 26.1411 -3
      vertex 19.4833 26.1411 0
      vertex 18.7559 25.5441 0
    endloop
  endfacet
  facet normal 0.634393 -0.773011 0
    outer loop
      vertex 18.7559 25.5441 -3
      vertex 19.4833 26.1411 -3
      vertex 18.7559 25.5441 0
    endloop
  endfacet
  facet normal 0.773011 -0.634393 0
    outer loop
      vertex 18.7559 25.5441 -3
      vertex 18.7559 25.5441 0
      vertex 18.1589 24.8167 0
    endloop
  endfacet
  facet normal 0.773011 -0.634393 0
    outer loop
      vertex 18.1589 24.8167 -3
      vertex 18.7559 25.5441 -3
      vertex 18.1589 24.8167 0
    endloop
  endfacet
  facet normal 0.881921 -0.471397 0
    outer loop
      vertex 18.1589 24.8167 -3
      vertex 18.1589 24.8167 0
      vertex 17.7154 23.9869 0
    endloop
  endfacet
  facet normal 0.881921 -0.471397 0
    outer loop
      vertex 17.7154 23.9869 -3
      vertex 18.1589 24.8167 -3
      vertex 17.7154 23.9869 0
    endloop
  endfacet
  facet normal 0.95694 -0.290284 0
    outer loop
      vertex 17.7154 23.9869 -3
      vertex 17.7154 23.9869 0
      vertex 17.4422 23.0864 0
    endloop
  endfacet
  facet normal 0.95694 -0.290284 0
    outer loop
      vertex 17.4422 23.0864 -3
      vertex 17.7154 23.9869 -3
      vertex 17.4422 23.0864 0
    endloop
  endfacet
  facet normal 0 0.484282 0.874912
    outer loop
      vertex 40.9 48.5418 6.906
      vertex 40.9 46.569 7.998
      vertex 46.17 46.569 7.998
    endloop
  endfacet
  facet normal 0 0.484282 0.874912
    outer loop
      vertex 44.82 48.5418 6.906
      vertex 40.9 48.5418 6.906
      vertex 46.17 46.569 7.998
    endloop
  endfacet
  facet normal 0 0 1
    outer loop
      vertex 40.9 46.569 7.998
      vertex 40.9 -2.07 7.998
      vertex 46.17 -2.07 7.998
    endloop
  endfacet
  facet normal 0 0 1
    outer loop
      vertex 46.17 46.569 7.998
      vertex 40.9 46.569 7.998
      vertex 46.17 -2.07 7.998
    endloop
  endfacet
  facet normal 0.6289 0 0.777486
    outer loop
      vertex 46.17 46.569 7.998
      vertex 46.17 -2.07 7.998
      vertex 48.0792 -2.07 6.45368
    endloop
  endfacet
  facet normal 0.6289 0 0.777486
    outer loop
      vertex 48.0792 46.569 6.45368
      vertex 46.17 46.569 7.998
      vertex 48.0792 -2.07 6.45368
    endloop
  endfacet
  facet normal 1 0 0
    outer loop
      vertex 48.0792 -2.07 6.45368
      vertex 48.0792 -2.07 -3.01032
      vertex 48.0792 46.569 -3.01032
    endloop
  endfacet
  facet normal 1 0 0
    outer loop
      vertex 48.0792 46.569 6.45368
      vertex 48.0792 -2.07 6.45368
      vertex 48.0792 46.569 -3.01032
    endloop
  endfacet
  facet normal 0 0 1
    outer loop
      vertex 17.4422 21.2136 -3
      vertex 17.7154 20.3131 -3
      vertex 18.1589 19.4833 -3
    endloop
  endfacet
  facet normal 0 0 1
    outer loop
      vertex 19.4833 18.1589 -3
      vertex 17.4422 21.2136 -3
      vertex 18.7559 18.7559 -3
    endloop
  endfacet
  facet normal 0 0 1
    outer loop
      vertex 18.7559 18.7559 -3
      vertex 17.4422 21.2136 -3
      vertex 18.1589 19.4833 -3
    endloop
  endfacet
  facet normal 0 0 1
    outer loop
      vertex 20.3131 17.7154 -3
      vertex 17.4422 21.2136 -3
      vertex 19.4833 18.1589 -3
    endloop
  endfacet
  facet normal 0 0 1
    outer loop
      vertex 21.2136 17.4422 -3
      vertex 17.4422 21.2136 -3
      vertex 20.3131 17.7154 -3
    endloop
  endfacet
  facet normal 0 0 1
    outer loop
      vertex 22.15 17.35 -3
      vertex 17.4422 21.2136 -3
      vertex 21.2136 17.4422 -3
    endloop
  endfacet
  facet normal 0 0 1
    outer loop
      vertex 23.0864 17.4422 -3
      vertex 17.4422 21.2136 -3
      vertex 22.15 17.35 -3
    endloop
  endfacet
  facet normal 0 0 1
    outer loop
      vertex 23.9869 17.7154 -3
      vertex 17.4422 21.2136 -3
      vertex 23.0864 17.4422 -3
    endloop
  endfacet
  facet normal 0 0 1
    outer loop
      vertex 21.0019 19.3784 -3
      vertex 17.4422 21.2136 -3
      vertex 23.9869 17.7154 -3
    endloop
  endfacet
  facet normal 0 0 1
    outer loop
      vertex 20.4833 19.6556 -3
      vertex 20.0287 20.0287 -3
      vertex 17.4422 21.2136 -3
    endloop
  endfacet
  facet normal 0 0 1
    outer loop
      vertex 22.7353 19.2076 -3
      vertex 22.15 19.15 -3
      vertex 24.8167 18.1589 -3
    endloop
  endfacet
  facet normal 0 0 1
    outer loop
      vertex 23.8167 19.6556 -3
      vertex 23.298 19.3784 -3
      vertex 25.5441 18.7559 -3
    endloop
  endfacet
  facet normal 0 0 1
    outer loop
      vertex 24.2713 20.0287 -3
      vertex 23.8167 19.6556 -3
      vertex 26.1411 19.4833 -3
    endloop
  endfacet
  facet normal 0 0 1
    outer loop
      vertex 24.9216 21.0019 -3
      vertex 24.6444 20.4833 -3
      vertex 26.5846 20.3131 -3
    endloop
  endfacet
  facet normal 0 0 1
    outer loop
      vertex 25.0924 21.5647 -3
      vertex 24.9216 21.0019 -3
      vertex 26.8578 21.2136 -3
    endloop
  endfacet
  facet normal 0 0 1
    outer loop
      vertex 25.15 22.15 -3
      vertex 25.0924 21.5647 -3
      vertex 26.95 22.15 -3
    endloop
  endfacet
  facet normal 0 0 1
    outer loop
      vertex 23.8167 24.6444 -3
      vertex 24.2713 24.2713 -3
      vertex 25.5441 25.5441 -3
    endloop
  endfacet
  facet normal 0 0 1
    outer loop
      vertex 21.0019 24.9216 -3
      vertex 21.5647 25.0924 -3
      vertex 23.0864 26.8578 -3
    endloop
  endfacet
  facet normal 0 0 1
    outer loop
      vertex 22.15 25.15 -3
      vertex 22.7353 25.0924 -3
      vertex 23.9869 26.5846 -3
    endloop
  endfacet
  facet normal 0 0 1
    outer loop
      vertex 21.2136 26.8578 -3
      vertex 17.4422 21.2136 -3
      vertex 22.15 26.95 -3
    endloop
  endfacet
  facet normal 0 0 1
    outer loop
      vertex 20.3131 26.5846 -3
      vertex 17.4422 21.2136 -3
      vertex 21.2136 26.8578 -3
    endloop
  endfacet
  facet normal 0 0 1
    outer loop
      vertex 19.4833 26.1411 -3
      vertex 17.4422 21.2136 -3
      vertex 20.3131 26.5846 -3
    endloop
  endfacet
  facet normal 0 0 1
    outer loop
      vertex 18.7559 25.5441 -3
      vertex 17.4422 21.2136 -3
      vertex 19.4833 26.1411 -3
    endloop
  endfacet
  facet normal 0 0 1
    outer loop
      vertex 18.1589 24.8167 -3
      vertex 17.4422 21.2136 -3
      vertex 18.7559 25.5441 -3
    endloop
  endfacet
  facet normal 0 0 1
    outer loop
      vertex 17.7154 23.9869 -3
      vertex 17.4422 21.2136 -3
      vertex 18.1589 24.8167 -3
    endloop
  endfacet
  facet normal 0 0 1
    outer loop
      vertex 17.4422 23.0864 -3
      vertex 17.4422 21.2136 -3
      vertex 17.7154 23.9869 -3
    endloop
  endfacet
  facet normal 0 0 1
    outer loop
      vertex 17.35 22.15 -3
      vertex 17.4422 21.2136 -3
      vertex 17.4422 23.0864 -3
    endloop
  endfacet
  facet normal 0 0 1
    outer loop
      vertex 24.2713 24.2713 -3
      vertex 24.6444 23.8167 -3
      vertex 26.1411 24.8167 -3
    endloop
  endfacet
  facet normal 0 0 1
    outer loop
      vertex 19.6556 20.4833 -3
      vertex 19.3784 21.0019 -3
      vertex 17.4422 21.2136 -3
    endloop
  endfacet
  facet normal 0 0 1
    outer loop
      vertex 20.0287 24.2713 -3
      vertex 20.4833 24.6444 -3
      vertex 22.15 26.95 -3
    endloop
  endfacet
  facet normal 0 0 1
    outer loop
      vertex 22.7353 25.0924 -3
      vertex 23.298 24.9216 -3
      vertex 24.8167 26.1411 -3
    endloop
  endfacet
  facet normal 0 0 1
    outer loop
      vertex 19.6556 23.8167 -3
      vertex 17.4422 21.2136 -3
      vertex 19.3784 23.298 -3
    endloop
  endfacet
  facet normal 0 0 1
    outer loop
      vertex 22.15 26.95 -3
      vertex 17.4422 21.2136 -3
      vertex 19.6556 23.8167 -3
    endloop
  endfacet
  facet normal 0 0 1
    outer loop
      vertex 22.15 26.95 -3
      vertex 19.6556 23.8167 -3
      vertex 20.0287 24.2713 -3
    endloop
  endfacet
  facet normal 0 0 1
    outer loop
      vertex 22.15 26.95 -3
      vertex 20.4833 24.6444 -3
      vertex 23.0864 26.8578 -3
    endloop
  endfacet
  facet normal 0 0 1
    outer loop
      vertex 20.4833 24.6444 -3
      vertex 21.0019 24.9216 -3
      vertex 23.0864 26.8578 -3
    endloop
  endfacet
  facet normal 0 0 1
    outer loop
      vertex 23.0864 26.8578 -3
      vertex 21.5647 25.0924 -3
      vertex 23.9869 26.5846 -3
    endloop
  endfacet
  facet normal 0 0 1
    outer loop
      vertex 21.5647 25.0924 -3
      vertex 22.15 25.15 -3
      vertex 23.9869 26.5846 -3
    endloop
  endfacet
  facet normal 0 0 1
    outer loop
      vertex 23.9869 26.5846 -3
      vertex 22.7353 25.0924 -3
      vertex 24.8167 26.1411 -3
    endloop
  endfacet
  facet normal 0 0 1
    outer loop
      vertex 19.2076 22.7353 -3
      vertex 19.3784 23.298 -3
      vertex 17.4422 21.2136 -3
    endloop
  endfacet
  facet normal 0 0 1
    outer loop
      vertex 24.8167 26.1411 -3
      vertex 23.298 24.9216 -3
      vertex 25.5441 25.5441 -3
    endloop
  endfacet
  facet normal 0 0 1
    outer loop
      vertex 23.298 24.9216 -3
      vertex 23.8167 24.6444 -3
      vertex 25.5441 25.5441 -3
    endloop
  endfacet
  facet normal 0 0 1
    outer loop
      vertex 25.5441 25.5441 -3
      vertex 24.2713 24.2713 -3
      vertex 26.1411 24.8167 -3
    endloop
  endfacet
  facet normal 0 0 1
    outer loop
      vertex 24.9216 23.298 -3
      vertex 25.0924 22.7353 -3
      vertex 26.8578 23.0864 -3
    endloop
  endfacet
  facet normal 0 0 1
    outer loop
      vertex 26.1411 24.8167 -3
      vertex 24.6444 23.8167 -3
      vertex 26.5846 23.9869 -3
    endloop
  endfacet
  facet normal 0 0 1
    outer loop
      vertex 19.15 22.15 -3
      vertex 19.2076 22.7353 -3
      vertex 17.4422 21.2136 -3
    endloop
  endfacet
  facet normal 0 0 1
    outer loop
      vertex 26.5846 23.9869 -3
      vertex 24.9216 23.298 -3
      vertex 26.8578 23.0864 -3
    endloop
  endfacet
  facet normal 0 0 1
    outer loop
      vertex 19.3784 21.0019 -3
      vertex 19.2076 21.5647 -3
      vertex 17.4422 21.2136 -3
    endloop
  endfacet
  facet normal 0 0 1
    outer loop
      vertex 26.8578 23.0864 -3
      vertex 25.0924 22.7353 -3
      vertex 26.95 22.15 -3
    endloop
  endfacet
  facet normal 0 0 1
    outer loop
      vertex 25.0924 22.7353 -3
      vertex 25.15 22.15 -3
      vertex 26.95 22.15 -3
    endloop
  endfacet
  facet normal 0 0 1
    outer loop
      vertex 26.95 22.15 -3
      vertex 25.0924 21.5647 -3
      vertex 26.8578 21.2136 -3
    endloop
  endfacet
  facet normal 0 0 1
    outer loop
      vertex 26.8578 21.2136 -3
      vertex 24.9216 21.0019 -3
      vertex 26.5846 20.3131 -3
    endloop
  endfacet
  facet normal 0 0 1
    outer loop
      vertex 26.5846 20.3131 -3
      vertex 24.6444 20.4833 -3
      vertex 26.1411 19.4833 -3
    endloop
  endfacet
  facet normal 0 0 1
    outer loop
      vertex 24.6444 20.4833 -3
      vertex 24.2713 20.0287 -3
      vertex 26.1411 19.4833 -3
    endloop
  endfacet
  facet normal 0 0 1
    outer loop
      vertex 26.1411 19.4833 -3
      vertex 23.8167 19.6556 -3
      vertex 25.5441 18.7559 -3
    endloop
  endfacet
  facet normal 0 0 1
    outer loop
      vertex 25.5441 18.7559 -3
      vertex 23.298 19.3784 -3
      vertex 24.8167 18.1589 -3
    endloop
  endfacet
  facet normal 0 0 1
    outer loop
      vertex 23.298 19.3784 -3
      vertex 22.7353 19.2076 -3
      vertex 24.8167 18.1589 -3
    endloop
  endfacet
  facet normal 0 0 1
    outer loop
      vertex 24.8167 18.1589 -3
      vertex 22.15 19.15 -3
      vertex 23.9869 17.7154 -3
    endloop
  endfacet
  facet normal 0 0 1
    outer loop
      vertex 22.15 19.15 -3
      vertex 21.5647 19.2076 -3
      vertex 23.9869 17.7154 -3
    endloop
  endfacet
  facet normal 0 0 1
    outer loop
      vertex 21.5647 19.2076 -3
      vertex 21.0019 19.3784 -3
      vertex 23.9869 17.7154 -3
    endloop
  endfacet
  facet normal 0 0 1
    outer loop
      vertex 20.4833 19.6556 -3
      vertex 17.4422 21.2136 -3
      vertex 21.0019 19.3784 -3
    endloop
  endfacet
  facet normal 0 0 1
    outer loop
      vertex 20.0287 20.0287 -3
      vertex 19.6556 20.4833 -3
      vertex 17.4422 21.2136 -3
    endloop
  endfacet
  facet normal 0 0 1
    outer loop
      vertex 24.6444 23.8167 -3
      vertex 24.9216 23.298 -3
      vertex 26.5846 23.9869 -3
    endloop
  endfacet
  facet normal 0 0 1
    outer loop
      vertex 19.2076 21.5647 -3
      vertex 19.15 22.15 -3
      vertex 17.4422 21.2136 -3
    endloop
  endfacet
endsolid OpenSCAD_Model
