solid OpenSCAD_Model
  facet normal -0.707107 -0.707107 0
    outer loop
      vertex 0 2 3.001
      vertex 0 2 0
      vertex 2 0 0
    endloop
  endfacet
  facet normal -0.707107 -0.707107 0
    outer loop
      vertex 2 0 3.001
      vertex 0 2 3.001
      vertex 2 0 0
    endloop
  endfacet
  facet normal 0 0 -1
    outer loop
      vertex 0 2 0
      vertex 0 13 0
      vertex 2 0 0
    endloop
  endfacet
  facet normal 0 0 -1
    outer loop
      vertex 2 0 0
      vertex 0 13 0
      vertex 2 15 0
    endloop
  endfacet
  facet normal 0 0 -1
    outer loop
      vertex 3.35 11.5 0
      vertex 2 15 0
      vertex 40 15 0
    endloop
  endfacet
  facet normal 0 0 -1
    outer loop
      vertex 36.35 11.5 0
      vertex 40 15 0
      vertex 42 13 0
    endloop
  endfacet
  facet normal 0 0 -1
    outer loop
      vertex 38.65 3.5 0
      vertex 42 13 0
      vertex 42 2 0
    endloop
  endfacet
  facet normal 0 0 -1
    outer loop
      vertex 2 0 0
      vertex 42 2 0
      vertex 40 0 0
    endloop
  endfacet
  facet normal 0 0 -1
    outer loop
      vertex 2 0 0
      vertex 2 15 0
      vertex 3.35 11.5 0
    endloop
  endfacet
  facet normal 0 0 -1
    outer loop
      vertex 5.65 11.5 0
      vertex 3.35 11.5 0
      vertex 40 15 0
    endloop
  endfacet
  facet normal 0 0 -1
    outer loop
      vertex 2 0 0
      vertex 3.35 11.5 0
      vertex 3.35 3.5 0
    endloop
  endfacet
  facet normal 0 0 -1
    outer loop
      vertex 2 0 0
      vertex 3.35 3.5 0
      vertex 5.65 3.5 0
    endloop
  endfacet
  facet normal 0 0 -1
    outer loop
      vertex 2 0 0
      vertex 5.65 3.5 0
      vertex 40 15 0
    endloop
  endfacet
  facet normal 0 0 -1
    outer loop
      vertex 31 4.5 0
      vertex 42 2 0
      vertex 30.6084 4.52567 0
    endloop
  endfacet
  facet normal 0 0 -1
    outer loop
      vertex 36.35 3.5 0
      vertex 32.5 4.90192 0
      vertex 32.8263 5.11994 0
    endloop
  endfacet
  facet normal 0 0 -1
    outer loop
      vertex 2 0 0
      vertex 28 7.5 0
      vertex 28.0257 7.10842 0
    endloop
  endfacet
  facet normal 0 0 -1
    outer loop
      vertex 2 0 0
      vertex 28.0257 7.10842 0
      vertex 28.1022 6.72354 0
    endloop
  endfacet
  facet normal 0 0 -1
    outer loop
      vertex 2 0 0
      vertex 28.1022 6.72354 0
      vertex 28.2284 6.35195 0
    endloop
  endfacet
  facet normal 0 0 -1
    outer loop
      vertex 2 0 0
      vertex 28.2284 6.35195 0
      vertex 28.4019 6 0
    endloop
  endfacet
  facet normal 0 0 -1
    outer loop
      vertex 2 0 0
      vertex 28.4019 6 0
      vertex 28.6199 5.67372 0
    endloop
  endfacet
  facet normal 0 0 -1
    outer loop
      vertex 2 0 0
      vertex 28.6199 5.67372 0
      vertex 28.8787 5.37868 0
    endloop
  endfacet
  facet normal 0 0 -1
    outer loop
      vertex 2 0 0
      vertex 28.8787 5.37868 0
      vertex 29.1737 5.11994 0
    endloop
  endfacet
  facet normal 0 0 -1
    outer loop
      vertex 36.35 3.5 0
      vertex 42 2 0
      vertex 31.7765 4.60222 0
    endloop
  endfacet
  facet normal 0 0 -1
    outer loop
      vertex 2 0 0
      vertex 29.1737 5.11994 0
      vertex 29.5 4.90192 0
    endloop
  endfacet
  facet normal 0 0 -1
    outer loop
      vertex 2 0 0
      vertex 29.5 4.90192 0
      vertex 29.8519 4.72836 0
    endloop
  endfacet
  facet normal 0 0 -1
    outer loop
      vertex 2 0 0
      vertex 29.8519 4.72836 0
      vertex 30.2235 4.60222 0
    endloop
  endfacet
  facet normal 0 0 -1
    outer loop
      vertex 2 0 0
      vertex 30.2235 4.60222 0
      vertex 42 2 0
    endloop
  endfacet
  facet normal 0 0 -1
    outer loop
      vertex 30.2235 4.60222 0
      vertex 30.6084 4.52567 0
      vertex 42 2 0
    endloop
  endfacet
  facet normal 0 0 -1
    outer loop
      vertex 31.3916 4.52567 0
      vertex 42 2 0
      vertex 31 4.5 0
    endloop
  endfacet
  facet normal 0 0 -1
    outer loop
      vertex 31.7765 4.60222 0
      vertex 42 2 0
      vertex 31.3916 4.52567 0
    endloop
  endfacet
  facet normal 0 0 -1
    outer loop
      vertex 36.35 3.5 0
      vertex 33.1213 5.37868 0
      vertex 33.3801 5.67372 0
    endloop
  endfacet
  facet normal 0 0 -1
    outer loop
      vertex 36.35 3.5 0
      vertex 32.8263 5.11994 0
      vertex 33.1213 5.37868 0
    endloop
  endfacet
  facet normal 0 0 -1
    outer loop
      vertex 32.148 10.2716 0
      vertex 40 15 0
      vertex 32.5 10.0981 0
    endloop
  endfacet
  facet normal 0 0 -1
    outer loop
      vertex 29.5 10.0981 0
      vertex 2 0 0
      vertex 29.8519 10.2716 0
    endloop
  endfacet
  facet normal 0 0 -1
    outer loop
      vertex 31.7765 10.3978 0
      vertex 40 15 0
      vertex 32.148 10.2716 0
    endloop
  endfacet
  facet normal 0 0 -1
    outer loop
      vertex 31.3916 10.4743 0
      vertex 40 15 0
      vertex 31.7765 10.3978 0
    endloop
  endfacet
  facet normal 0 0 -1
    outer loop
      vertex 31 10.5 0
      vertex 40 15 0
      vertex 31.3916 10.4743 0
    endloop
  endfacet
  facet normal 0 0 -1
    outer loop
      vertex 30.6084 10.4743 0
      vertex 40 15 0
      vertex 31 10.5 0
    endloop
  endfacet
  facet normal 0 0 -1
    outer loop
      vertex 30.2235 10.3978 0
      vertex 40 15 0
      vertex 30.6084 10.4743 0
    endloop
  endfacet
  facet normal 0 0 -1
    outer loop
      vertex 29.8519 10.2716 0
      vertex 40 15 0
      vertex 30.2235 10.3978 0
    endloop
  endfacet
  facet normal 0 0 -1
    outer loop
      vertex 2 0 0
      vertex 40 15 0
      vertex 29.8519 10.2716 0
    endloop
  endfacet
  facet normal 0 0 -1
    outer loop
      vertex 29.1737 9.88006 0
      vertex 2 0 0
      vertex 29.5 10.0981 0
    endloop
  endfacet
  facet normal 0 0 -1
    outer loop
      vertex 28.8787 9.62132 0
      vertex 2 0 0
      vertex 29.1737 9.88006 0
    endloop
  endfacet
  facet normal 0 0 -1
    outer loop
      vertex 28.6199 9.32628 0
      vertex 2 0 0
      vertex 28.8787 9.62132 0
    endloop
  endfacet
  facet normal 0 0 -1
    outer loop
      vertex 28.4019 9 0
      vertex 2 0 0
      vertex 28.6199 9.32628 0
    endloop
  endfacet
  facet normal 0 0 -1
    outer loop
      vertex 28.2284 8.64805 0
      vertex 2 0 0
      vertex 28.4019 9 0
    endloop
  endfacet
  facet normal 0 0 -1
    outer loop
      vertex 28.1022 8.27646 0
      vertex 2 0 0
      vertex 28.2284 8.64805 0
    endloop
  endfacet
  facet normal 0 0 -1
    outer loop
      vertex 28.0257 7.89158 0
      vertex 2 0 0
      vertex 28.1022 8.27646 0
    endloop
  endfacet
  facet normal 0 0 -1
    outer loop
      vertex 36.35 11.5 0
      vertex 42 13 0
      vertex 38.65 11.5 0
    endloop
  endfacet
  facet normal 0 0 -1
    outer loop
      vertex 2 0 0
      vertex 28.0257 7.89158 0
      vertex 28 7.5 0
    endloop
  endfacet
  facet normal 0 0 -1
    outer loop
      vertex 32.5 10.0981 0
      vertex 40 15 0
      vertex 36.35 11.5 0
    endloop
  endfacet
  facet normal 0 0 -1
    outer loop
      vertex 36.35 3.5 0
      vertex 32.148 4.72836 0
      vertex 32.5 4.90192 0
    endloop
  endfacet
  facet normal 0 0 -1
    outer loop
      vertex 36.35 3.5 0
      vertex 33.3801 5.67372 0
      vertex 33.5981 6 0
    endloop
  endfacet
  facet normal 0 0 -1
    outer loop
      vertex 5.65 11.5 0
      vertex 40 15 0
      vertex 5.65 3.5 0
    endloop
  endfacet
  facet normal 0 0 -1
    outer loop
      vertex 32.148 4.72836 0
      vertex 36.35 3.5 0
      vertex 31.7765 4.60222 0
    endloop
  endfacet
  facet normal 0 0 -1
    outer loop
      vertex 36.35 3.5 0
      vertex 33.5981 6 0
      vertex 33.7716 6.35195 0
    endloop
  endfacet
  facet normal 0 0 -1
    outer loop
      vertex 36.35 3.5 0
      vertex 33.7716 6.35195 0
      vertex 33.8978 6.72354 0
    endloop
  endfacet
  facet normal 0 0 -1
    outer loop
      vertex 36.35 3.5 0
      vertex 33.8978 6.72354 0
      vertex 33.9743 7.10842 0
    endloop
  endfacet
  facet normal 0 0 -1
    outer loop
      vertex 36.35 3.5 0
      vertex 33.9743 7.10842 0
      vertex 34 7.5 0
    endloop
  endfacet
  facet normal 0 0 -1
    outer loop
      vertex 36.35 3.5 0
      vertex 34 7.5 0
      vertex 33.9743 7.89158 0
    endloop
  endfacet
  facet normal 0 0 -1
    outer loop
      vertex 36.35 3.5 0
      vertex 33.9743 7.89158 0
      vertex 33.8978 8.27646 0
    endloop
  endfacet
  facet normal 0 0 -1
    outer loop
      vertex 36.35 3.5 0
      vertex 33.8978 8.27646 0
      vertex 33.7716 8.64805 0
    endloop
  endfacet
  facet normal 0 0 -1
    outer loop
      vertex 36.35 3.5 0
      vertex 33.7716 8.64805 0
      vertex 33.5981 9 0
    endloop
  endfacet
  facet normal 0 0 -1
    outer loop
      vertex 32.8263 9.88006 0
      vertex 32.5 10.0981 0
      vertex 36.35 11.5 0
    endloop
  endfacet
  facet normal 0 0 -1
    outer loop
      vertex 33.1213 9.62132 0
      vertex 32.8263 9.88006 0
      vertex 36.35 11.5 0
    endloop
  endfacet
  facet normal 0 0 -1
    outer loop
      vertex 33.3801 9.32628 0
      vertex 33.1213 9.62132 0
      vertex 36.35 11.5 0
    endloop
  endfacet
  facet normal 0 0 -1
    outer loop
      vertex 33.5981 9 0
      vertex 33.3801 9.32628 0
      vertex 36.35 11.5 0
    endloop
  endfacet
  facet normal 0 0 -1
    outer loop
      vertex 36.35 3.5 0
      vertex 33.5981 9 0
      vertex 36.35 11.5 0
    endloop
  endfacet
  facet normal 0 0 -1
    outer loop
      vertex 38.65 11.5 0
      vertex 42 13 0
      vertex 38.65 3.5 0
    endloop
  endfacet
  facet normal 0 0 -1
    outer loop
      vertex 38.65 3.5 0
      vertex 42 2 0
      vertex 36.35 3.5 0
    endloop
  endfacet
  facet normal -1 0 0
    outer loop
      vertex 0 2 0
      vertex 0 2 3.001
      vertex 0 13 0
    endloop
  endfacet
  facet normal -1 0 0
    outer loop
      vertex 0 13 0
      vertex 0 2 3.001
      vertex 0 13 3.001
    endloop
  endfacet
  facet normal 0 0 1
    outer loop
      vertex 0 13 3.001
      vertex 0 2 3.001
      vertex 2 0 3.001
    endloop
  endfacet
  facet normal 0 0 1
    outer loop
      vertex 3.35 3.5 3.001
      vertex 0 13 3.001
      vertex 2 0 3.001
    endloop
  endfacet
  facet normal 0 0 1
    outer loop
      vertex 40 15 3.001
      vertex 0 13 3.001
      vertex 42 13 3.001
    endloop
  endfacet
  facet normal 0 0 1
    outer loop
      vertex 2 15 3.001
      vertex 0 13 3.001
      vertex 40 15 3.001
    endloop
  endfacet
  facet normal 0 0 1
    outer loop
      vertex 40 0 3.001
      vertex 3.35 3.5 3.001
      vertex 2 0 3.001
    endloop
  endfacet
  facet normal 0 0 1
    outer loop
      vertex 3.35 11.5 3.001
      vertex 0 13 3.001
      vertex 3.35 3.5 3.001
    endloop
  endfacet
  facet normal 0 0 1
    outer loop
      vertex 5.65 11.5 3.001
      vertex 9.16152 9.33848 3.001
      vertex 9.41722 9.56272 3.001
    endloop
  endfacet
  facet normal 0 0 1
    outer loop
      vertex 12.3 9.75167 3.001
      vertex 12.5828 9.56272 3.001
      vertex 28.8787 5.37868 3.001
    endloop
  endfacet
  facet normal 0 0 1
    outer loop
      vertex 40 0 3.001
      vertex 5.65 3.5 3.001
      vertex 3.35 3.5 3.001
    endloop
  endfacet
  facet normal 0 0 1
    outer loop
      vertex 13.2517 8.8 3.001
      vertex 13.4021 8.49498 3.001
      vertex 40 0 3.001
    endloop
  endfacet
  facet normal 0 0 1
    outer loop
      vertex 8.48859 6.82707 3.001
      vertex 8.42224 7.16063 3.001
      vertex 5.65 3.5 3.001
    endloop
  endfacet
  facet normal 0 0 1
    outer loop
      vertex 10.005 9.90209 3.001
      vertex 10.3271 10.0114 3.001
      vertex 5.65 11.5 3.001
    endloop
  endfacet
  facet normal 0 0 1
    outer loop
      vertex 11 10.1 3.001
      vertex 11.3394 10.0778 3.001
      vertex 0 13 3.001
    endloop
  endfacet
  facet normal 0 0 1
    outer loop
      vertex 31.7765 10.3978 3.001
      vertex 32.148 10.2716 3.001
      vertex 36.35 11.5 3.001
    endloop
  endfacet
  facet normal 0 0 1
    outer loop
      vertex 13.5114 6.82707 3.001
      vertex 13.4021 6.50502 3.001
      vertex 40 0 3.001
    endloop
  endfacet
  facet normal 0 0 1
    outer loop
      vertex 36.35 3.5 3.001
      vertex 31.7765 4.60222 3.001
      vertex 42 2 3.001
    endloop
  endfacet
  facet normal 0 0 1
    outer loop
      vertex 32.148 4.72836 3.001
      vertex 31.7765 4.60222 3.001
      vertex 36.35 3.5 3.001
    endloop
  endfacet
  facet normal 0 0 1
    outer loop
      vertex 36.35 3.5 3.001
      vertex 33.9743 7.10842 3.001
      vertex 33.8978 6.72354 3.001
    endloop
  endfacet
  facet normal 0 0 1
    outer loop
      vertex 36.35 3.5 3.001
      vertex 34 7.5 3.001
      vertex 33.9743 7.10842 3.001
    endloop
  endfacet
  facet normal 0 0 1
    outer loop
      vertex 36.35 3.5 3.001
      vertex 33.9743 7.89158 3.001
      vertex 34 7.5 3.001
    endloop
  endfacet
  facet normal 0 0 1
    outer loop
      vertex 36.35 3.5 3.001
      vertex 33.7716 8.64805 3.001
      vertex 33.8978 8.27646 3.001
    endloop
  endfacet
  facet normal 0 0 1
    outer loop
      vertex 5.65 11.5 3.001
      vertex 9.41722 9.56272 3.001
      vertex 9.7 9.75167 3.001
    endloop
  endfacet
  facet normal 0 0 1
    outer loop
      vertex 11 10.1 3.001
      vertex 0 13 3.001
      vertex 5.65 11.5 3.001
    endloop
  endfacet
  facet normal 0 0 1
    outer loop
      vertex 13.0627 9.08278 3.001
      vertex 13.2517 8.8 3.001
      vertex 40 0 3.001
    endloop
  endfacet
  facet normal 0 0 1
    outer loop
      vertex 10.6606 10.0778 3.001
      vertex 5.65 11.5 3.001
      vertex 10.3271 10.0114 3.001
    endloop
  endfacet
  facet normal 0 0 1
    outer loop
      vertex 11 10.1 3.001
      vertex 5.65 11.5 3.001
      vertex 10.6606 10.0778 3.001
    endloop
  endfacet
  facet normal 0 0 1
    outer loop
      vertex 36.35 3.5 3.001
      vertex 33.3801 5.67372 3.001
      vertex 33.1213 5.37868 3.001
    endloop
  endfacet
  facet normal 0 0 1
    outer loop
      vertex 42 13 3.001
      vertex 0 13 3.001
      vertex 11.3394 10.0778 3.001
    endloop
  endfacet
  facet normal 0 0 1
    outer loop
      vertex 38.65 3.5 3.001
      vertex 36.35 3.5 3.001
      vertex 42 2 3.001
    endloop
  endfacet
  facet normal 0 0 1
    outer loop
      vertex 42 13 3.001
      vertex 11.3394 10.0778 3.001
      vertex 11.6729 10.0114 3.001
    endloop
  endfacet
  facet normal 0 0 1
    outer loop
      vertex 13.5778 7.16063 3.001
      vertex 13.5114 6.82707 3.001
      vertex 40 0 3.001
    endloop
  endfacet
  facet normal 0 0 1
    outer loop
      vertex 30.2235 4.60222 3.001
      vertex 12.8385 9.33848 3.001
      vertex 40 0 3.001
    endloop
  endfacet
  facet normal 0 0 1
    outer loop
      vertex 31.7765 4.60222 3.001
      vertex 31.3916 4.52567 3.001
      vertex 42 2 3.001
    endloop
  endfacet
  facet normal 0 0 1
    outer loop
      vertex 13.5114 8.17293 3.001
      vertex 13.5778 7.83937 3.001
      vertex 40 0 3.001
    endloop
  endfacet
  facet normal 0 0 1
    outer loop
      vertex 36.35 3.5 3.001
      vertex 33.8978 8.27646 3.001
      vertex 33.9743 7.89158 3.001
    endloop
  endfacet
  facet normal 0 0 1
    outer loop
      vertex 13.5778 7.83937 3.001
      vertex 13.6 7.5 3.001
      vertex 40 0 3.001
    endloop
  endfacet
  facet normal 0 0 1
    outer loop
      vertex 13.6 7.5 3.001
      vertex 13.5778 7.16063 3.001
      vertex 40 0 3.001
    endloop
  endfacet
  facet normal 0 0 1
    outer loop
      vertex 11 4.9 3.001
      vertex 10.6606 4.92224 3.001
      vertex 5.65 3.5 3.001
    endloop
  endfacet
  facet normal 0 0 1
    outer loop
      vertex 13.4021 6.50502 3.001
      vertex 13.2517 6.2 3.001
      vertex 40 0 3.001
    endloop
  endfacet
  facet normal 0 0 1
    outer loop
      vertex 13.2517 6.2 3.001
      vertex 13.0627 5.91722 3.001
      vertex 40 0 3.001
    endloop
  endfacet
  facet normal 0 0 1
    outer loop
      vertex 11.3394 4.92224 3.001
      vertex 11 4.9 3.001
      vertex 5.65 3.5 3.001
    endloop
  endfacet
  facet normal 0 0 1
    outer loop
      vertex 30.6084 10.4743 3.001
      vertex 31 10.5 3.001
      vertex 42 13 3.001
    endloop
  endfacet
  facet normal 0 0 1
    outer loop
      vertex 10.3271 4.98859 3.001
      vertex 10.005 5.09791 3.001
      vertex 5.65 3.5 3.001
    endloop
  endfacet
  facet normal 0 0 1
    outer loop
      vertex 40 0 3.001
      vertex 13.0627 5.91722 3.001
      vertex 12.8385 5.66152 3.001
    endloop
  endfacet
  facet normal 0 0 1
    outer loop
      vertex 10.6606 4.92224 3.001
      vertex 10.3271 4.98859 3.001
      vertex 5.65 3.5 3.001
    endloop
  endfacet
  facet normal 0 0 1
    outer loop
      vertex 40 0 3.001
      vertex 12.8385 5.66152 3.001
      vertex 12.5828 5.43728 3.001
    endloop
  endfacet
  facet normal 0 0 1
    outer loop
      vertex 31.7765 10.3978 3.001
      vertex 36.35 11.5 3.001
      vertex 42 13 3.001
    endloop
  endfacet
  facet normal 0 0 1
    outer loop
      vertex 40 0 3.001
      vertex 12.5828 5.43728 3.001
      vertex 12.3 5.24833 3.001
    endloop
  endfacet
  facet normal 0 0 1
    outer loop
      vertex 40 0 3.001
      vertex 12.3 5.24833 3.001
      vertex 11.995 5.09791 3.001
    endloop
  endfacet
  facet normal 0 0 1
    outer loop
      vertex 40 0 3.001
      vertex 11.6729 4.98859 3.001
      vertex 5.65 3.5 3.001
    endloop
  endfacet
  facet normal 0 0 1
    outer loop
      vertex 40 0 3.001
      vertex 11.995 5.09791 3.001
      vertex 11.6729 4.98859 3.001
    endloop
  endfacet
  facet normal 0 0 1
    outer loop
      vertex 11.6729 4.98859 3.001
      vertex 11.3394 4.92224 3.001
      vertex 5.65 3.5 3.001
    endloop
  endfacet
  facet normal 0 0 1
    outer loop
      vertex 10.005 5.09791 3.001
      vertex 9.7 5.24833 3.001
      vertex 5.65 3.5 3.001
    endloop
  endfacet
  facet normal 0 0 1
    outer loop
      vertex 9.7 5.24833 3.001
      vertex 9.41722 5.43728 3.001
      vertex 5.65 3.5 3.001
    endloop
  endfacet
  facet normal 0 0 1
    outer loop
      vertex 9.41722 5.43728 3.001
      vertex 9.16152 5.66152 3.001
      vertex 5.65 3.5 3.001
    endloop
  endfacet
  facet normal 0 0 1
    outer loop
      vertex 9.16152 5.66152 3.001
      vertex 8.93728 5.91722 3.001
      vertex 5.65 3.5 3.001
    endloop
  endfacet
  facet normal 0 0 1
    outer loop
      vertex 8.93728 5.91722 3.001
      vertex 8.74833 6.2 3.001
      vertex 5.65 3.5 3.001
    endloop
  endfacet
  facet normal 0 0 1
    outer loop
      vertex 8.74833 6.2 3.001
      vertex 8.59791 6.50502 3.001
      vertex 5.65 3.5 3.001
    endloop
  endfacet
  facet normal 0 0 1
    outer loop
      vertex 8.59791 6.50502 3.001
      vertex 8.48859 6.82707 3.001
      vertex 5.65 3.5 3.001
    endloop
  endfacet
  facet normal 0 0 1
    outer loop
      vertex 28.8787 5.37868 3.001
      vertex 11.995 9.90209 3.001
      vertex 12.3 9.75167 3.001
    endloop
  endfacet
  facet normal 0 0 1
    outer loop
      vertex 28 7.5 3.001
      vertex 11.6729 10.0114 3.001
      vertex 28.0257 7.10842 3.001
    endloop
  endfacet
  facet normal 0 0 1
    outer loop
      vertex 28.0257 7.89158 3.001
      vertex 11.6729 10.0114 3.001
      vertex 28 7.5 3.001
    endloop
  endfacet
  facet normal 0 0 1
    outer loop
      vertex 28.1022 8.27646 3.001
      vertex 11.6729 10.0114 3.001
      vertex 28.0257 7.89158 3.001
    endloop
  endfacet
  facet normal 0 0 1
    outer loop
      vertex 28.2284 8.64805 3.001
      vertex 11.6729 10.0114 3.001
      vertex 28.1022 8.27646 3.001
    endloop
  endfacet
  facet normal 0 0 1
    outer loop
      vertex 28.4019 9 3.001
      vertex 11.6729 10.0114 3.001
      vertex 28.2284 8.64805 3.001
    endloop
  endfacet
  facet normal 0 0 1
    outer loop
      vertex 28.6199 9.32628 3.001
      vertex 11.6729 10.0114 3.001
      vertex 28.4019 9 3.001
    endloop
  endfacet
  facet normal 0 0 1
    outer loop
      vertex 28.8787 9.62132 3.001
      vertex 11.6729 10.0114 3.001
      vertex 28.6199 9.32628 3.001
    endloop
  endfacet
  facet normal 0 0 1
    outer loop
      vertex 29.1737 9.88006 3.001
      vertex 11.6729 10.0114 3.001
      vertex 28.8787 9.62132 3.001
    endloop
  endfacet
  facet normal 0 0 1
    outer loop
      vertex 29.5 10.0981 3.001
      vertex 11.6729 10.0114 3.001
      vertex 29.1737 9.88006 3.001
    endloop
  endfacet
  facet normal 0 0 1
    outer loop
      vertex 29.8519 10.2716 3.001
      vertex 11.6729 10.0114 3.001
      vertex 29.5 10.0981 3.001
    endloop
  endfacet
  facet normal 0 0 1
    outer loop
      vertex 30.2235 10.3978 3.001
      vertex 11.6729 10.0114 3.001
      vertex 29.8519 10.2716 3.001
    endloop
  endfacet
  facet normal 0 0 1
    outer loop
      vertex 42 13 3.001
      vertex 11.6729 10.0114 3.001
      vertex 30.2235 10.3978 3.001
    endloop
  endfacet
  facet normal 0 0 1
    outer loop
      vertex 31 10.5 3.001
      vertex 31.3916 10.4743 3.001
      vertex 42 13 3.001
    endloop
  endfacet
  facet normal 0 0 1
    outer loop
      vertex 42 13 3.001
      vertex 30.2235 10.3978 3.001
      vertex 30.6084 10.4743 3.001
    endloop
  endfacet
  facet normal 0 0 1
    outer loop
      vertex 31.3916 10.4743 3.001
      vertex 31.7765 10.3978 3.001
      vertex 42 13 3.001
    endloop
  endfacet
  facet normal 0 0 1
    outer loop
      vertex 28.6199 5.67372 3.001
      vertex 28.4019 6 3.001
      vertex 11.6729 10.0114 3.001
    endloop
  endfacet
  facet normal 0 0 1
    outer loop
      vertex 28.8787 5.37868 3.001
      vertex 11.6729 10.0114 3.001
      vertex 11.995 9.90209 3.001
    endloop
  endfacet
  facet normal 0 0 1
    outer loop
      vertex 36.35 3.5 3.001
      vertex 33.7716 6.35195 3.001
      vertex 33.5981 6 3.001
    endloop
  endfacet
  facet normal 0 0 1
    outer loop
      vertex 36.35 3.5 3.001
      vertex 33.5981 6 3.001
      vertex 33.3801 5.67372 3.001
    endloop
  endfacet
  facet normal 0 0 1
    outer loop
      vertex 36.35 3.5 3.001
      vertex 32.5 4.90192 3.001
      vertex 32.148 4.72836 3.001
    endloop
  endfacet
  facet normal 0 0 1
    outer loop
      vertex 12.8385 9.33848 3.001
      vertex 13.0627 9.08278 3.001
      vertex 40 0 3.001
    endloop
  endfacet
  facet normal 0 0 1
    outer loop
      vertex 28.8787 5.37868 3.001
      vertex 28.6199 5.67372 3.001
      vertex 11.6729 10.0114 3.001
    endloop
  endfacet
  facet normal 0 0 1
    outer loop
      vertex 42 2 3.001
      vertex 31.3916 4.52567 3.001
      vertex 40 0 3.001
    endloop
  endfacet
  facet normal 0 0 1
    outer loop
      vertex 31.3916 4.52567 3.001
      vertex 31 4.5 3.001
      vertex 40 0 3.001
    endloop
  endfacet
  facet normal 0 0 1
    outer loop
      vertex 31 4.5 3.001
      vertex 30.6084 4.52567 3.001
      vertex 40 0 3.001
    endloop
  endfacet
  facet normal 0 0 1
    outer loop
      vertex 29.5 4.90192 3.001
      vertex 29.1737 5.11994 3.001
      vertex 12.8385 9.33848 3.001
    endloop
  endfacet
  facet normal 0 0 1
    outer loop
      vertex 30.6084 4.52567 3.001
      vertex 30.2235 4.60222 3.001
      vertex 40 0 3.001
    endloop
  endfacet
  facet normal 0 0 1
    outer loop
      vertex 29.8519 4.72836 3.001
      vertex 12.8385 9.33848 3.001
      vertex 30.2235 4.60222 3.001
    endloop
  endfacet
  facet normal 0 0 1
    outer loop
      vertex 29.1737 5.11994 3.001
      vertex 28.8787 5.37868 3.001
      vertex 12.5828 9.56272 3.001
    endloop
  endfacet
  facet normal 0 0 1
    outer loop
      vertex 29.1737 5.11994 3.001
      vertex 12.5828 9.56272 3.001
      vertex 12.8385 9.33848 3.001
    endloop
  endfacet
  facet normal 0 0 1
    outer loop
      vertex 29.8519 4.72836 3.001
      vertex 29.5 4.90192 3.001
      vertex 12.8385 9.33848 3.001
    endloop
  endfacet
  facet normal 0 0 1
    outer loop
      vertex 28.4019 6 3.001
      vertex 28.2284 6.35195 3.001
      vertex 11.6729 10.0114 3.001
    endloop
  endfacet
  facet normal 0 0 1
    outer loop
      vertex 36.35 3.5 3.001
      vertex 32.8263 5.11994 3.001
      vertex 32.5 4.90192 3.001
    endloop
  endfacet
  facet normal 0 0 1
    outer loop
      vertex 28.1022 6.72354 3.001
      vertex 11.6729 10.0114 3.001
      vertex 28.2284 6.35195 3.001
    endloop
  endfacet
  facet normal 0 0 1
    outer loop
      vertex 28.0257 7.10842 3.001
      vertex 11.6729 10.0114 3.001
      vertex 28.1022 6.72354 3.001
    endloop
  endfacet
  facet normal 0 0 1
    outer loop
      vertex 36.35 11.5 3.001
      vertex 38.65 11.5 3.001
      vertex 42 13 3.001
    endloop
  endfacet
  facet normal 0 0 1
    outer loop
      vertex 36.35 3.5 3.001
      vertex 33.8978 6.72354 3.001
      vertex 33.7716 6.35195 3.001
    endloop
  endfacet
  facet normal 0 0 1
    outer loop
      vertex 38.65 11.5 3.001
      vertex 38.65 3.5 3.001
      vertex 42 2 3.001
    endloop
  endfacet
  facet normal 0 0 1
    outer loop
      vertex 36.35 3.5 3.001
      vertex 33.1213 5.37868 3.001
      vertex 32.8263 5.11994 3.001
    endloop
  endfacet
  facet normal 0 0 1
    outer loop
      vertex 42 13 3.001
      vertex 38.65 11.5 3.001
      vertex 42 2 3.001
    endloop
  endfacet
  facet normal 0 0 1
    outer loop
      vertex 13.4021 8.49498 3.001
      vertex 13.5114 8.17293 3.001
      vertex 40 0 3.001
    endloop
  endfacet
  facet normal 0 0 1
    outer loop
      vertex 5.65 11.5 3.001
      vertex 9.7 9.75167 3.001
      vertex 10.005 9.90209 3.001
    endloop
  endfacet
  facet normal 0 0 1
    outer loop
      vertex 36.35 3.5 3.001
      vertex 33.5981 9 3.001
      vertex 33.7716 8.64805 3.001
    endloop
  endfacet
  facet normal 0 0 1
    outer loop
      vertex 3.35 11.5 3.001
      vertex 5.65 11.5 3.001
      vertex 0 13 3.001
    endloop
  endfacet
  facet normal 0 0 1
    outer loop
      vertex 5.65 11.5 3.001
      vertex 8.93728 9.08278 3.001
      vertex 9.16152 9.33848 3.001
    endloop
  endfacet
  facet normal 0 0 1
    outer loop
      vertex 5.65 11.5 3.001
      vertex 8.74833 8.8 3.001
      vertex 8.93728 9.08278 3.001
    endloop
  endfacet
  facet normal 0 0 1
    outer loop
      vertex 5.65 11.5 3.001
      vertex 8.59791 8.49498 3.001
      vertex 8.74833 8.8 3.001
    endloop
  endfacet
  facet normal 0 0 1
    outer loop
      vertex 5.65 11.5 3.001
      vertex 8.48859 8.17293 3.001
      vertex 8.59791 8.49498 3.001
    endloop
  endfacet
  facet normal 0 0 1
    outer loop
      vertex 5.65 11.5 3.001
      vertex 8.42224 7.83937 3.001
      vertex 8.48859 8.17293 3.001
    endloop
  endfacet
  facet normal 0 0 1
    outer loop
      vertex 5.65 11.5 3.001
      vertex 8.4 7.5 3.001
      vertex 8.42224 7.83937 3.001
    endloop
  endfacet
  facet normal 0 0 1
    outer loop
      vertex 5.65 11.5 3.001
      vertex 8.42224 7.16063 3.001
      vertex 8.4 7.5 3.001
    endloop
  endfacet
  facet normal 0 0 1
    outer loop
      vertex 5.65 11.5 3.001
      vertex 5.65 3.5 3.001
      vertex 8.42224 7.16063 3.001
    endloop
  endfacet
  facet normal 0 0 1
    outer loop
      vertex 32.5 10.0981 3.001
      vertex 36.35 11.5 3.001
      vertex 32.148 10.2716 3.001
    endloop
  endfacet
  facet normal 0 0 1
    outer loop
      vertex 32.8263 9.88006 3.001
      vertex 36.35 11.5 3.001
      vertex 32.5 10.0981 3.001
    endloop
  endfacet
  facet normal 0 0 1
    outer loop
      vertex 33.1213 9.62132 3.001
      vertex 36.35 11.5 3.001
      vertex 32.8263 9.88006 3.001
    endloop
  endfacet
  facet normal 0 0 1
    outer loop
      vertex 33.3801 9.32628 3.001
      vertex 36.35 11.5 3.001
      vertex 33.1213 9.62132 3.001
    endloop
  endfacet
  facet normal 0 0 1
    outer loop
      vertex 33.5981 9 3.001
      vertex 36.35 11.5 3.001
      vertex 33.3801 9.32628 3.001
    endloop
  endfacet
  facet normal 0 0 1
    outer loop
      vertex 36.35 3.5 3.001
      vertex 36.35 11.5 3.001
      vertex 33.5981 9 3.001
    endloop
  endfacet
  facet normal 0 -1 0
    outer loop
      vertex 2 0 3.001
      vertex 2 0 0
      vertex 40 0 0
    endloop
  endfacet
  facet normal 0 -1 0
    outer loop
      vertex 40 0 3.001
      vertex 2 0 3.001
      vertex 40 0 0
    endloop
  endfacet
  facet normal 0.707107 -0.707107 0
    outer loop
      vertex 40 0 3.001
      vertex 40 0 0
      vertex 42 2 0
    endloop
  endfacet
  facet normal 0.707107 -0.707107 0
    outer loop
      vertex 42 2 3.001
      vertex 40 0 3.001
      vertex 42 2 0
    endloop
  endfacet
  facet normal 1 0 0
    outer loop
      vertex 42 2 3.001
      vertex 42 2 0
      vertex 42 13 0
    endloop
  endfacet
  facet normal 1 0 0
    outer loop
      vertex 42 13 3.001
      vertex 42 2 3.001
      vertex 42 13 0
    endloop
  endfacet
  facet normal 0.707107 0.707107 0
    outer loop
      vertex 40 15 0
      vertex 40 15 3.001
      vertex 42 13 0
    endloop
  endfacet
  facet normal 0.707107 0.707107 0
    outer loop
      vertex 42 13 0
      vertex 40 15 3.001
      vertex 42 13 3.001
    endloop
  endfacet
  facet normal 0 1 0
    outer loop
      vertex 2 15 0
      vertex 2 15 3.001
      vertex 40 15 0
    endloop
  endfacet
  facet normal 0 1 0
    outer loop
      vertex 40 15 0
      vertex 2 15 3.001
      vertex 40 15 3.001
    endloop
  endfacet
  facet normal -0.707107 0.707107 0
    outer loop
      vertex 0 13 0
      vertex 0 13 3.001
      vertex 2 15 0
    endloop
  endfacet
  facet normal -0.707107 0.707107 0
    outer loop
      vertex 2 15 0
      vertex 0 13 3.001
      vertex 2 15 3.001
    endloop
  endfacet
  facet normal 1 0 0
    outer loop
      vertex 3.35 11.5 0
      vertex 3.35 11.5 3.001
      vertex 3.35 3.5 3.001
    endloop
  endfacet
  facet normal 1 0 0
    outer loop
      vertex 3.35 3.5 0
      vertex 3.35 11.5 0
      vertex 3.35 3.5 3.001
    endloop
  endfacet
  facet normal 0 -1 0
    outer loop
      vertex 5.65 11.5 0
      vertex 5.65 11.5 3.001
      vertex 3.35 11.5 3.001
    endloop
  endfacet
  facet normal 0 -1 0
    outer loop
      vertex 3.35 11.5 0
      vertex 5.65 11.5 0
      vertex 3.35 11.5 3.001
    endloop
  endfacet
  facet normal -1 0 0
    outer loop
      vertex 5.65 11.5 3.001
      vertex 5.65 11.5 0
      vertex 5.65 3.5 3.001
    endloop
  endfacet
  facet normal -1 0 0
    outer loop
      vertex 5.65 3.5 3.001
      vertex 5.65 11.5 0
      vertex 5.65 3.5 0
    endloop
  endfacet
  facet normal 0 1 0
    outer loop
      vertex 5.65 3.5 3.001
      vertex 5.65 3.5 0
      vertex 3.35 3.5 3.001
    endloop
  endfacet
  facet normal 0 1 0
    outer loop
      vertex 3.35 3.5 3.001
      vertex 5.65 3.5 0
      vertex 3.35 3.5 0
    endloop
  endfacet
  facet normal 0.997859 -0.065402 0
    outer loop
      vertex 28.0257 7.89158 0
      vertex 28.0257 7.89158 3.001
      vertex 28 7.5 3.001
    endloop
  endfacet
  facet normal 0.997859 -0.065402 0
    outer loop
      vertex 28 7.5 0
      vertex 28.0257 7.89158 0
      vertex 28 7.5 3.001
    endloop
  endfacet
  facet normal 0.997859 0.065402 0
    outer loop
      vertex 28 7.5 3.001
      vertex 28.0257 7.10842 3.001
      vertex 28.0257 7.10842 0
    endloop
  endfacet
  facet normal 0.997859 0.065402 0
    outer loop
      vertex 28 7.5 0
      vertex 28 7.5 3.001
      vertex 28.0257 7.10842 0
    endloop
  endfacet
  facet normal 0.980785 -0.195093 0
    outer loop
      vertex 28.1022 8.27646 0
      vertex 28.1022 8.27646 3.001
      vertex 28.0257 7.89158 3.001
    endloop
  endfacet
  facet normal 0.980785 -0.195093 0
    outer loop
      vertex 28.0257 7.89158 0
      vertex 28.1022 8.27646 0
      vertex 28.0257 7.89158 3.001
    endloop
  endfacet
  facet normal 0.946931 -0.321438 0
    outer loop
      vertex 28.2284 8.64805 0
      vertex 28.2284 8.64805 3.001
      vertex 28.1022 8.27646 3.001
    endloop
  endfacet
  facet normal 0.946931 -0.321438 0
    outer loop
      vertex 28.1022 8.27646 0
      vertex 28.2284 8.64805 0
      vertex 28.1022 8.27646 3.001
    endloop
  endfacet
  facet normal 0.896872 -0.44229 0
    outer loop
      vertex 28.4019 9 0
      vertex 28.4019 9 3.001
      vertex 28.2284 8.64805 3.001
    endloop
  endfacet
  facet normal 0.896872 -0.44229 0
    outer loop
      vertex 28.2284 8.64805 0
      vertex 28.4019 9 0
      vertex 28.2284 8.64805 3.001
    endloop
  endfacet
  facet normal 0.83147 -0.55557 0
    outer loop
      vertex 28.6199 9.32628 0
      vertex 28.6199 9.32628 3.001
      vertex 28.4019 9 3.001
    endloop
  endfacet
  facet normal 0.83147 -0.55557 0
    outer loop
      vertex 28.4019 9 0
      vertex 28.6199 9.32628 0
      vertex 28.4019 9 3.001
    endloop
  endfacet
  facet normal 0.751839 -0.659346 0
    outer loop
      vertex 28.8787 9.62132 0
      vertex 28.8787 9.62132 3.001
      vertex 28.6199 9.32628 3.001
    endloop
  endfacet
  facet normal 0.751839 -0.659346 0
    outer loop
      vertex 28.6199 9.32628 0
      vertex 28.8787 9.62132 0
      vertex 28.6199 9.32628 3.001
    endloop
  endfacet
  facet normal 0.659346 -0.751839 0
    outer loop
      vertex 29.1737 9.88006 0
      vertex 29.1737 9.88006 3.001
      vertex 28.8787 9.62132 3.001
    endloop
  endfacet
  facet normal 0.659346 -0.751839 0
    outer loop
      vertex 28.8787 9.62132 0
      vertex 29.1737 9.88006 0
      vertex 28.8787 9.62132 3.001
    endloop
  endfacet
  facet normal 0.55557 -0.83147 0
    outer loop
      vertex 29.5 10.0981 0
      vertex 29.5 10.0981 3.001
      vertex 29.1737 9.88006 3.001
    endloop
  endfacet
  facet normal 0.55557 -0.83147 0
    outer loop
      vertex 29.1737 9.88006 0
      vertex 29.5 10.0981 0
      vertex 29.1737 9.88006 3.001
    endloop
  endfacet
  facet normal 0.44229 -0.896872 0
    outer loop
      vertex 29.8519 10.2716 0
      vertex 29.8519 10.2716 3.001
      vertex 29.5 10.0981 3.001
    endloop
  endfacet
  facet normal 0.44229 -0.896872 0
    outer loop
      vertex 29.5 10.0981 0
      vertex 29.8519 10.2716 0
      vertex 29.5 10.0981 3.001
    endloop
  endfacet
  facet normal 0.321438 -0.946931 0
    outer loop
      vertex 30.2235 10.3978 0
      vertex 30.2235 10.3978 3.001
      vertex 29.8519 10.2716 3.001
    endloop
  endfacet
  facet normal 0.321438 -0.946931 0
    outer loop
      vertex 29.8519 10.2716 0
      vertex 30.2235 10.3978 0
      vertex 29.8519 10.2716 3.001
    endloop
  endfacet
  facet normal 0.195093 -0.980785 0
    outer loop
      vertex 30.6084 10.4743 0
      vertex 30.6084 10.4743 3.001
      vertex 30.2235 10.3978 3.001
    endloop
  endfacet
  facet normal 0.195093 -0.980785 0
    outer loop
      vertex 30.2235 10.3978 0
      vertex 30.6084 10.4743 0
      vertex 30.2235 10.3978 3.001
    endloop
  endfacet
  facet normal 0.065402 -0.997859 0
    outer loop
      vertex 31 10.5 0
      vertex 31 10.5 3.001
      vertex 30.6084 10.4743 3.001
    endloop
  endfacet
  facet normal 0.065402 -0.997859 0
    outer loop
      vertex 30.6084 10.4743 0
      vertex 31 10.5 0
      vertex 30.6084 10.4743 3.001
    endloop
  endfacet
  facet normal -0.065402 -0.997859 0
    outer loop
      vertex 31.3916 10.4743 0
      vertex 31.3916 10.4743 3.001
      vertex 31 10.5 3.001
    endloop
  endfacet
  facet normal -0.065402 -0.997859 0
    outer loop
      vertex 31 10.5 0
      vertex 31.3916 10.4743 0
      vertex 31 10.5 3.001
    endloop
  endfacet
  facet normal -0.195093 -0.980785 0
    outer loop
      vertex 31.7765 10.3978 0
      vertex 31.7765 10.3978 3.001
      vertex 31.3916 10.4743 3.001
    endloop
  endfacet
  facet normal -0.195093 -0.980785 0
    outer loop
      vertex 31.3916 10.4743 0
      vertex 31.7765 10.3978 0
      vertex 31.3916 10.4743 3.001
    endloop
  endfacet
  facet normal -0.321438 -0.946931 0
    outer loop
      vertex 32.148 10.2716 0
      vertex 32.148 10.2716 3.001
      vertex 31.7765 10.3978 3.001
    endloop
  endfacet
  facet normal -0.321438 -0.946931 0
    outer loop
      vertex 31.7765 10.3978 0
      vertex 32.148 10.2716 0
      vertex 31.7765 10.3978 3.001
    endloop
  endfacet
  facet normal -0.44229 -0.896872 0
    outer loop
      vertex 32.5 10.0981 0
      vertex 32.5 10.0981 3.001
      vertex 32.148 10.2716 3.001
    endloop
  endfacet
  facet normal -0.44229 -0.896872 0
    outer loop
      vertex 32.148 10.2716 0
      vertex 32.5 10.0981 0
      vertex 32.148 10.2716 3.001
    endloop
  endfacet
  facet normal -0.55557 -0.83147 0
    outer loop
      vertex 32.8263 9.88006 0
      vertex 32.8263 9.88006 3.001
      vertex 32.5 10.0981 3.001
    endloop
  endfacet
  facet normal -0.55557 -0.83147 0
    outer loop
      vertex 32.5 10.0981 0
      vertex 32.8263 9.88006 0
      vertex 32.5 10.0981 3.001
    endloop
  endfacet
  facet normal -0.659346 -0.751839 0
    outer loop
      vertex 33.1213 9.62132 0
      vertex 33.1213 9.62132 3.001
      vertex 32.8263 9.88006 3.001
    endloop
  endfacet
  facet normal -0.659346 -0.751839 0
    outer loop
      vertex 32.8263 9.88006 0
      vertex 33.1213 9.62132 0
      vertex 32.8263 9.88006 3.001
    endloop
  endfacet
  facet normal -0.751839 -0.659346 0
    outer loop
      vertex 33.3801 9.32628 3.001
      vertex 33.1213 9.62132 3.001
      vertex 33.3801 9.32628 0
    endloop
  endfacet
  facet normal -0.751839 -0.659346 0
    outer loop
      vertex 33.3801 9.32628 0
      vertex 33.1213 9.62132 3.001
      vertex 33.1213 9.62132 0
    endloop
  endfacet
  facet normal -0.83147 -0.55557 0
    outer loop
      vertex 33.5981 9 3.001
      vertex 33.3801 9.32628 3.001
      vertex 33.5981 9 0
    endloop
  endfacet
  facet normal -0.83147 -0.55557 0
    outer loop
      vertex 33.5981 9 0
      vertex 33.3801 9.32628 3.001
      vertex 33.3801 9.32628 0
    endloop
  endfacet
  facet normal -0.896872 -0.44229 0
    outer loop
      vertex 33.7716 8.64805 3.001
      vertex 33.5981 9 3.001
      vertex 33.7716 8.64805 0
    endloop
  endfacet
  facet normal -0.896872 -0.44229 0
    outer loop
      vertex 33.7716 8.64805 0
      vertex 33.5981 9 3.001
      vertex 33.5981 9 0
    endloop
  endfacet
  facet normal -0.946931 -0.321438 0
    outer loop
      vertex 33.8978 8.27646 3.001
      vertex 33.7716 8.64805 3.001
      vertex 33.8978 8.27646 0
    endloop
  endfacet
  facet normal -0.946931 -0.321438 0
    outer loop
      vertex 33.8978 8.27646 0
      vertex 33.7716 8.64805 3.001
      vertex 33.7716 8.64805 0
    endloop
  endfacet
  facet normal -0.980785 -0.195093 0
    outer loop
      vertex 33.9743 7.89158 3.001
      vertex 33.8978 8.27646 3.001
      vertex 33.9743 7.89158 0
    endloop
  endfacet
  facet normal -0.980785 -0.195093 0
    outer loop
      vertex 33.9743 7.89158 0
      vertex 33.8978 8.27646 3.001
      vertex 33.8978 8.27646 0
    endloop
  endfacet
  facet normal -0.997859 -0.065402 0
    outer loop
      vertex 34 7.5 3.001
      vertex 33.9743 7.89158 3.001
      vertex 34 7.5 0
    endloop
  endfacet
  facet normal -0.997859 -0.065402 0
    outer loop
      vertex 34 7.5 0
      vertex 33.9743 7.89158 3.001
      vertex 33.9743 7.89158 0
    endloop
  endfacet
  facet normal -0.997859 0.065402 0
    outer loop
      vertex 34 7.5 3.001
      vertex 34 7.5 0
      vertex 33.9743 7.10842 3.001
    endloop
  endfacet
  facet normal -0.997859 0.065402 0
    outer loop
      vertex 33.9743 7.10842 3.001
      vertex 34 7.5 0
      vertex 33.9743 7.10842 0
    endloop
  endfacet
  facet normal -0.980785 0.195093 0
    outer loop
      vertex 33.9743 7.10842 3.001
      vertex 33.9743 7.10842 0
      vertex 33.8978 6.72354 3.001
    endloop
  endfacet
  facet normal -0.980785 0.195093 0
    outer loop
      vertex 33.8978 6.72354 3.001
      vertex 33.9743 7.10842 0
      vertex 33.8978 6.72354 0
    endloop
  endfacet
  facet normal -0.946931 0.321438 0
    outer loop
      vertex 33.8978 6.72354 3.001
      vertex 33.8978 6.72354 0
      vertex 33.7716 6.35195 3.001
    endloop
  endfacet
  facet normal -0.946931 0.321438 0
    outer loop
      vertex 33.7716 6.35195 3.001
      vertex 33.8978 6.72354 0
      vertex 33.7716 6.35195 0
    endloop
  endfacet
  facet normal -0.896872 0.44229 0
    outer loop
      vertex 33.7716 6.35195 3.001
      vertex 33.7716 6.35195 0
      vertex 33.5981 6 3.001
    endloop
  endfacet
  facet normal -0.896872 0.44229 0
    outer loop
      vertex 33.5981 6 3.001
      vertex 33.7716 6.35195 0
      vertex 33.5981 6 0
    endloop
  endfacet
  facet normal -0.83147 0.55557 0
    outer loop
      vertex 33.5981 6 3.001
      vertex 33.5981 6 0
      vertex 33.3801 5.67372 3.001
    endloop
  endfacet
  facet normal -0.83147 0.55557 0
    outer loop
      vertex 33.3801 5.67372 3.001
      vertex 33.5981 6 0
      vertex 33.3801 5.67372 0
    endloop
  endfacet
  facet normal -0.751839 0.659346 0
    outer loop
      vertex 33.3801 5.67372 3.001
      vertex 33.3801 5.67372 0
      vertex 33.1213 5.37868 3.001
    endloop
  endfacet
  facet normal -0.751839 0.659346 0
    outer loop
      vertex 33.1213 5.37868 3.001
      vertex 33.3801 5.67372 0
      vertex 33.1213 5.37868 0
    endloop
  endfacet
  facet normal -0.659346 0.751839 0
    outer loop
      vertex 33.1213 5.37868 3.001
      vertex 33.1213 5.37868 0
      vertex 32.8263 5.11994 3.001
    endloop
  endfacet
  facet normal -0.659346 0.751839 0
    outer loop
      vertex 32.8263 5.11994 3.001
      vertex 33.1213 5.37868 0
      vertex 32.8263 5.11994 0
    endloop
  endfacet
  facet normal -0.55557 0.83147 0
    outer loop
      vertex 32.8263 5.11994 3.001
      vertex 32.8263 5.11994 0
      vertex 32.5 4.90192 3.001
    endloop
  endfacet
  facet normal -0.55557 0.83147 0
    outer loop
      vertex 32.5 4.90192 3.001
      vertex 32.8263 5.11994 0
      vertex 32.5 4.90192 0
    endloop
  endfacet
  facet normal -0.44229 0.896872 0
    outer loop
      vertex 32.5 4.90192 3.001
      vertex 32.5 4.90192 0
      vertex 32.148 4.72836 3.001
    endloop
  endfacet
  facet normal -0.44229 0.896872 0
    outer loop
      vertex 32.148 4.72836 3.001
      vertex 32.5 4.90192 0
      vertex 32.148 4.72836 0
    endloop
  endfacet
  facet normal -0.321438 0.946931 0
    outer loop
      vertex 32.148 4.72836 3.001
      vertex 32.148 4.72836 0
      vertex 31.7765 4.60222 3.001
    endloop
  endfacet
  facet normal -0.321438 0.946931 0
    outer loop
      vertex 31.7765 4.60222 3.001
      vertex 32.148 4.72836 0
      vertex 31.7765 4.60222 0
    endloop
  endfacet
  facet normal -0.195093 0.980785 0
    outer loop
      vertex 31.7765 4.60222 3.001
      vertex 31.7765 4.60222 0
      vertex 31.3916 4.52567 3.001
    endloop
  endfacet
  facet normal -0.195093 0.980785 0
    outer loop
      vertex 31.3916 4.52567 3.001
      vertex 31.7765 4.60222 0
      vertex 31.3916 4.52567 0
    endloop
  endfacet
  facet normal -0.065402 0.997859 0
    outer loop
      vertex 31.3916 4.52567 3.001
      vertex 31.3916 4.52567 0
      vertex 31 4.5 3.001
    endloop
  endfacet
  facet normal -0.065402 0.997859 0
    outer loop
      vertex 31 4.5 3.001
      vertex 31.3916 4.52567 0
      vertex 31 4.5 0
    endloop
  endfacet
  facet normal 0.065402 0.997859 0
    outer loop
      vertex 31 4.5 3.001
      vertex 31 4.5 0
      vertex 30.6084 4.52567 3.001
    endloop
  endfacet
  facet normal 0.065402 0.997859 0
    outer loop
      vertex 30.6084 4.52567 3.001
      vertex 31 4.5 0
      vertex 30.6084 4.52567 0
    endloop
  endfacet
  facet normal 0.195093 0.980785 0
    outer loop
      vertex 30.6084 4.52567 3.001
      vertex 30.6084 4.52567 0
      vertex 30.2235 4.60222 3.001
    endloop
  endfacet
  facet normal 0.195093 0.980785 0
    outer loop
      vertex 30.2235 4.60222 3.001
      vertex 30.6084 4.52567 0
      vertex 30.2235 4.60222 0
    endloop
  endfacet
  facet normal 0.321438 0.946931 0
    outer loop
      vertex 30.2235 4.60222 3.001
      vertex 30.2235 4.60222 0
      vertex 29.8519 4.72836 3.001
    endloop
  endfacet
  facet normal 0.321438 0.946931 0
    outer loop
      vertex 29.8519 4.72836 3.001
      vertex 30.2235 4.60222 0
      vertex 29.8519 4.72836 0
    endloop
  endfacet
  facet normal 0.44229 0.896872 0
    outer loop
      vertex 29.8519 4.72836 3.001
      vertex 29.8519 4.72836 0
      vertex 29.5 4.90192 3.001
    endloop
  endfacet
  facet normal 0.44229 0.896872 0
    outer loop
      vertex 29.5 4.90192 3.001
      vertex 29.8519 4.72836 0
      vertex 29.5 4.90192 0
    endloop
  endfacet
  facet normal 0.55557 0.83147 0
    outer loop
      vertex 29.5 4.90192 3.001
      vertex 29.5 4.90192 0
      vertex 29.1737 5.11994 3.001
    endloop
  endfacet
  facet normal 0.55557 0.83147 0
    outer loop
      vertex 29.1737 5.11994 3.001
      vertex 29.5 4.90192 0
      vertex 29.1737 5.11994 0
    endloop
  endfacet
  facet normal 0.659346 0.751839 0
    outer loop
      vertex 29.1737 5.11994 3.001
      vertex 29.1737 5.11994 0
      vertex 28.8787 5.37868 3.001
    endloop
  endfacet
  facet normal 0.659346 0.751839 0
    outer loop
      vertex 28.8787 5.37868 3.001
      vertex 29.1737 5.11994 0
      vertex 28.8787 5.37868 0
    endloop
  endfacet
  facet normal 0.751839 0.659346 0
    outer loop
      vertex 28.6199 5.67372 3.001
      vertex 28.8787 5.37868 3.001
      vertex 28.8787 5.37868 0
    endloop
  endfacet
  facet normal 0.751839 0.659346 0
    outer loop
      vertex 28.6199 5.67372 0
      vertex 28.6199 5.67372 3.001
      vertex 28.8787 5.37868 0
    endloop
  endfacet
  facet normal 0.83147 0.55557 0
    outer loop
      vertex 28.4019 6 3.001
      vertex 28.6199 5.67372 3.001
      vertex 28.6199 5.67372 0
    endloop
  endfacet
  facet normal 0.83147 0.55557 0
    outer loop
      vertex 28.4019 6 0
      vertex 28.4019 6 3.001
      vertex 28.6199 5.67372 0
    endloop
  endfacet
  facet normal 0.896872 0.44229 0
    outer loop
      vertex 28.2284 6.35195 3.001
      vertex 28.4019 6 3.001
      vertex 28.4019 6 0
    endloop
  endfacet
  facet normal 0.896872 0.44229 0
    outer loop
      vertex 28.2284 6.35195 0
      vertex 28.2284 6.35195 3.001
      vertex 28.4019 6 0
    endloop
  endfacet
  facet normal 0.946931 0.321438 0
    outer loop
      vertex 28.1022 6.72354 3.001
      vertex 28.2284 6.35195 3.001
      vertex 28.2284 6.35195 0
    endloop
  endfacet
  facet normal 0.946931 0.321438 0
    outer loop
      vertex 28.1022 6.72354 0
      vertex 28.1022 6.72354 3.001
      vertex 28.2284 6.35195 0
    endloop
  endfacet
  facet normal 0.980785 0.195093 0
    outer loop
      vertex 28.0257 7.10842 3.001
      vertex 28.1022 6.72354 3.001
      vertex 28.1022 6.72354 0
    endloop
  endfacet
  facet normal 0.980785 0.195093 0
    outer loop
      vertex 28.0257 7.10842 0
      vertex 28.0257 7.10842 3.001
      vertex 28.1022 6.72354 0
    endloop
  endfacet
  facet normal 1 0 0
    outer loop
      vertex 36.35 11.5 0
      vertex 36.35 11.5 3.001
      vertex 36.35 3.5 3.001
    endloop
  endfacet
  facet normal 1 0 0
    outer loop
      vertex 36.35 3.5 0
      vertex 36.35 11.5 0
      vertex 36.35 3.5 3.001
    endloop
  endfacet
  facet normal 0 -1 0
    outer loop
      vertex 38.65 11.5 0
      vertex 38.65 11.5 3.001
      vertex 36.35 11.5 3.001
    endloop
  endfacet
  facet normal 0 -1 0
    outer loop
      vertex 36.35 11.5 0
      vertex 38.65 11.5 0
      vertex 36.35 11.5 3.001
    endloop
  endfacet
  facet normal -1 0 0
    outer loop
      vertex 38.65 11.5 3.001
      vertex 38.65 11.5 0
      vertex 38.65 3.5 3.001
    endloop
  endfacet
  facet normal -1 0 0
    outer loop
      vertex 38.65 3.5 3.001
      vertex 38.65 11.5 0
      vertex 38.65 3.5 0
    endloop
  endfacet
  facet normal 0 1 0
    outer loop
      vertex 38.65 3.5 3.001
      vertex 38.65 3.5 0
      vertex 36.35 3.5 3.001
    endloop
  endfacet
  facet normal 0 1 0
    outer loop
      vertex 36.35 3.5 3.001
      vertex 38.65 3.5 0
      vertex 36.35 3.5 0
    endloop
  endfacet
  facet normal -0.997859 -0.0654021 0
    outer loop
      vertex 8.4 7.5 3.001
      vertex 8.42224 7.16063 3.001
      vertex 8.4 7.5 5.5
    endloop
  endfacet
  facet normal -0.997859 -0.0654021 0
    outer loop
      vertex 8.4 7.5 5.5
      vertex 8.42224 7.16063 3.001
      vertex 8.42224 7.16063 5.5
    endloop
  endfacet
  facet normal -0.980785 -0.195091 0
    outer loop
      vertex 8.42224 7.16063 3.001
      vertex 8.48859 6.82707 3.001
      vertex 8.42224 7.16063 5.5
    endloop
  endfacet
  facet normal -0.980785 -0.195091 0
    outer loop
      vertex 8.42224 7.16063 5.5
      vertex 8.48859 6.82707 3.001
      vertex 8.48859 6.82707 5.5
    endloop
  endfacet
  facet normal -0.94693 -0.321439 0
    outer loop
      vertex 8.48859 6.82707 3.001
      vertex 8.59791 6.50502 3.001
      vertex 8.48859 6.82707 5.5
    endloop
  endfacet
  facet normal -0.94693 -0.321439 0
    outer loop
      vertex 8.48859 6.82707 5.5
      vertex 8.59791 6.50502 3.001
      vertex 8.59791 6.50502 5.5
    endloop
  endfacet
  facet normal -0.896872 -0.442289 0
    outer loop
      vertex 8.59791 6.50502 3.001
      vertex 8.74833 6.2 3.001
      vertex 8.59791 6.50502 5.5
    endloop
  endfacet
  facet normal -0.896872 -0.442289 0
    outer loop
      vertex 8.59791 6.50502 5.5
      vertex 8.74833 6.2 3.001
      vertex 8.74833 6.2 5.5
    endloop
  endfacet
  facet normal -0.83147 -0.555569 0
    outer loop
      vertex 8.74833 6.2 3.001
      vertex 8.93728 5.91722 3.001
      vertex 8.74833 6.2 5.5
    endloop
  endfacet
  facet normal -0.83147 -0.555569 0
    outer loop
      vertex 8.74833 6.2 5.5
      vertex 8.93728 5.91722 3.001
      vertex 8.93728 5.91722 5.5
    endloop
  endfacet
  facet normal -0.75184 -0.659346 0
    outer loop
      vertex 8.93728 5.91722 3.001
      vertex 9.16152 5.66152 3.001
      vertex 8.93728 5.91722 5.5
    endloop
  endfacet
  facet normal -0.75184 -0.659346 0
    outer loop
      vertex 8.93728 5.91722 5.5
      vertex 9.16152 5.66152 3.001
      vertex 9.16152 5.66152 5.5
    endloop
  endfacet
  facet normal -0.659346 -0.75184 0
    outer loop
      vertex 9.16152 5.66152 5.5
      vertex 9.16152 5.66152 3.001
      vertex 9.41722 5.43728 3.001
    endloop
  endfacet
  facet normal -0.659346 -0.75184 0
    outer loop
      vertex 9.41722 5.43728 5.5
      vertex 9.16152 5.66152 5.5
      vertex 9.41722 5.43728 3.001
    endloop
  endfacet
  facet normal -0.555569 -0.83147 0
    outer loop
      vertex 9.41722 5.43728 5.5
      vertex 9.41722 5.43728 3.001
      vertex 9.7 5.24833 3.001
    endloop
  endfacet
  facet normal -0.555569 -0.83147 0
    outer loop
      vertex 9.7 5.24833 5.5
      vertex 9.41722 5.43728 5.5
      vertex 9.7 5.24833 3.001
    endloop
  endfacet
  facet normal -0.442289 -0.896872 0
    outer loop
      vertex 9.7 5.24833 5.5
      vertex 9.7 5.24833 3.001
      vertex 10.005 5.09791 3.001
    endloop
  endfacet
  facet normal -0.442289 -0.896872 0
    outer loop
      vertex 10.005 5.09791 5.5
      vertex 9.7 5.24833 5.5
      vertex 10.005 5.09791 3.001
    endloop
  endfacet
  facet normal -0.321439 -0.94693 0
    outer loop
      vertex 10.005 5.09791 5.5
      vertex 10.005 5.09791 3.001
      vertex 10.3271 4.98859 3.001
    endloop
  endfacet
  facet normal -0.321439 -0.94693 0
    outer loop
      vertex 10.3271 4.98859 5.5
      vertex 10.005 5.09791 5.5
      vertex 10.3271 4.98859 3.001
    endloop
  endfacet
  facet normal -0.195091 -0.980785 0
    outer loop
      vertex 10.3271 4.98859 5.5
      vertex 10.3271 4.98859 3.001
      vertex 10.6606 4.92224 3.001
    endloop
  endfacet
  facet normal -0.195091 -0.980785 0
    outer loop
      vertex 10.6606 4.92224 5.5
      vertex 10.3271 4.98859 5.5
      vertex 10.6606 4.92224 3.001
    endloop
  endfacet
  facet normal -0.0654021 -0.997859 0
    outer loop
      vertex 10.6606 4.92224 5.5
      vertex 10.6606 4.92224 3.001
      vertex 11 4.9 3.001
    endloop
  endfacet
  facet normal -0.0654021 -0.997859 0
    outer loop
      vertex 11 4.9 5.5
      vertex 10.6606 4.92224 5.5
      vertex 11 4.9 3.001
    endloop
  endfacet
  facet normal 0.0654021 -0.997859 0
    outer loop
      vertex 11 4.9 5.5
      vertex 11 4.9 3.001
      vertex 11.3394 4.92224 3.001
    endloop
  endfacet
  facet normal 0.0654021 -0.997859 0
    outer loop
      vertex 11.3394 4.92224 5.5
      vertex 11 4.9 5.5
      vertex 11.3394 4.92224 3.001
    endloop
  endfacet
  facet normal 0.195091 -0.980785 0
    outer loop
      vertex 11.3394 4.92224 5.5
      vertex 11.3394 4.92224 3.001
      vertex 11.6729 4.98859 3.001
    endloop
  endfacet
  facet normal 0.195091 -0.980785 0
    outer loop
      vertex 11.6729 4.98859 5.5
      vertex 11.3394 4.92224 5.5
      vertex 11.6729 4.98859 3.001
    endloop
  endfacet
  facet normal 0.321439 -0.94693 0
    outer loop
      vertex 11.6729 4.98859 5.5
      vertex 11.6729 4.98859 3.001
      vertex 11.995 5.09791 3.001
    endloop
  endfacet
  facet normal 0.321439 -0.94693 0
    outer loop
      vertex 11.995 5.09791 5.5
      vertex 11.6729 4.98859 5.5
      vertex 11.995 5.09791 3.001
    endloop
  endfacet
  facet normal 0.442289 -0.896872 0
    outer loop
      vertex 11.995 5.09791 5.5
      vertex 11.995 5.09791 3.001
      vertex 12.3 5.24833 3.001
    endloop
  endfacet
  facet normal 0.442289 -0.896872 0
    outer loop
      vertex 12.3 5.24833 5.5
      vertex 11.995 5.09791 5.5
      vertex 12.3 5.24833 3.001
    endloop
  endfacet
  facet normal 0.555569 -0.83147 0
    outer loop
      vertex 12.3 5.24833 5.5
      vertex 12.3 5.24833 3.001
      vertex 12.5828 5.43728 3.001
    endloop
  endfacet
  facet normal 0.555569 -0.83147 0
    outer loop
      vertex 12.5828 5.43728 5.5
      vertex 12.3 5.24833 5.5
      vertex 12.5828 5.43728 3.001
    endloop
  endfacet
  facet normal 0.659346 -0.75184 0
    outer loop
      vertex 12.5828 5.43728 5.5
      vertex 12.5828 5.43728 3.001
      vertex 12.8385 5.66152 3.001
    endloop
  endfacet
  facet normal 0.659346 -0.75184 0
    outer loop
      vertex 12.8385 5.66152 5.5
      vertex 12.5828 5.43728 5.5
      vertex 12.8385 5.66152 3.001
    endloop
  endfacet
  facet normal 0.75184 -0.659346 0
    outer loop
      vertex 12.8385 5.66152 5.5
      vertex 12.8385 5.66152 3.001
      vertex 13.0627 5.91722 3.001
    endloop
  endfacet
  facet normal 0.75184 -0.659346 0
    outer loop
      vertex 13.0627 5.91722 5.5
      vertex 12.8385 5.66152 5.5
      vertex 13.0627 5.91722 3.001
    endloop
  endfacet
  facet normal 0.83147 -0.555569 0
    outer loop
      vertex 13.0627 5.91722 5.5
      vertex 13.0627 5.91722 3.001
      vertex 13.2517 6.2 3.001
    endloop
  endfacet
  facet normal 0.83147 -0.555569 0
    outer loop
      vertex 13.2517 6.2 5.5
      vertex 13.0627 5.91722 5.5
      vertex 13.2517 6.2 3.001
    endloop
  endfacet
  facet normal 0.896872 -0.442289 0
    outer loop
      vertex 13.2517 6.2 5.5
      vertex 13.2517 6.2 3.001
      vertex 13.4021 6.50502 3.001
    endloop
  endfacet
  facet normal 0.896872 -0.442289 0
    outer loop
      vertex 13.4021 6.50502 5.5
      vertex 13.2517 6.2 5.5
      vertex 13.4021 6.50502 3.001
    endloop
  endfacet
  facet normal 0.94693 -0.321439 0
    outer loop
      vertex 13.4021 6.50502 5.5
      vertex 13.4021 6.50502 3.001
      vertex 13.5114 6.82707 3.001
    endloop
  endfacet
  facet normal 0.94693 -0.321439 0
    outer loop
      vertex 13.5114 6.82707 5.5
      vertex 13.4021 6.50502 5.5
      vertex 13.5114 6.82707 3.001
    endloop
  endfacet
  facet normal 0.980785 -0.195091 0
    outer loop
      vertex 13.5114 6.82707 5.5
      vertex 13.5114 6.82707 3.001
      vertex 13.5778 7.16063 3.001
    endloop
  endfacet
  facet normal 0.980785 -0.195091 0
    outer loop
      vertex 13.5778 7.16063 5.5
      vertex 13.5114 6.82707 5.5
      vertex 13.5778 7.16063 3.001
    endloop
  endfacet
  facet normal 0.997859 -0.0654021 0
    outer loop
      vertex 13.5778 7.16063 5.5
      vertex 13.5778 7.16063 3.001
      vertex 13.6 7.5 3.001
    endloop
  endfacet
  facet normal 0.997859 -0.0654021 0
    outer loop
      vertex 13.6 7.5 5.5
      vertex 13.5778 7.16063 5.5
      vertex 13.6 7.5 3.001
    endloop
  endfacet
  facet normal 0.997859 0.0654021 0
    outer loop
      vertex 13.6 7.5 3.001
      vertex 13.5778 7.83937 3.001
      vertex 13.5778 7.83937 5.5
    endloop
  endfacet
  facet normal 0.997859 0.0654021 0
    outer loop
      vertex 13.6 7.5 5.5
      vertex 13.6 7.5 3.001
      vertex 13.5778 7.83937 5.5
    endloop
  endfacet
  facet normal 0.980785 0.195091 0
    outer loop
      vertex 13.5778 7.83937 3.001
      vertex 13.5114 8.17293 3.001
      vertex 13.5114 8.17293 5.5
    endloop
  endfacet
  facet normal 0.980785 0.195091 0
    outer loop
      vertex 13.5778 7.83937 5.5
      vertex 13.5778 7.83937 3.001
      vertex 13.5114 8.17293 5.5
    endloop
  endfacet
  facet normal 0.94693 0.321439 0
    outer loop
      vertex 13.5114 8.17293 3.001
      vertex 13.4021 8.49498 3.001
      vertex 13.4021 8.49498 5.5
    endloop
  endfacet
  facet normal 0.94693 0.321439 0
    outer loop
      vertex 13.5114 8.17293 5.5
      vertex 13.5114 8.17293 3.001
      vertex 13.4021 8.49498 5.5
    endloop
  endfacet
  facet normal 0.896872 0.442289 0
    outer loop
      vertex 13.4021 8.49498 3.001
      vertex 13.2517 8.8 3.001
      vertex 13.2517 8.8 5.5
    endloop
  endfacet
  facet normal 0.896872 0.442289 0
    outer loop
      vertex 13.4021 8.49498 5.5
      vertex 13.4021 8.49498 3.001
      vertex 13.2517 8.8 5.5
    endloop
  endfacet
  facet normal 0.83147 0.555569 0
    outer loop
      vertex 13.2517 8.8 3.001
      vertex 13.0627 9.08278 3.001
      vertex 13.0627 9.08278 5.5
    endloop
  endfacet
  facet normal 0.83147 0.555569 0
    outer loop
      vertex 13.2517 8.8 5.5
      vertex 13.2517 8.8 3.001
      vertex 13.0627 9.08278 5.5
    endloop
  endfacet
  facet normal 0.75184 0.659346 0
    outer loop
      vertex 13.0627 9.08278 3.001
      vertex 12.8385 9.33848 3.001
      vertex 12.8385 9.33848 5.5
    endloop
  endfacet
  facet normal 0.75184 0.659346 0
    outer loop
      vertex 13.0627 9.08278 5.5
      vertex 13.0627 9.08278 3.001
      vertex 12.8385 9.33848 5.5
    endloop
  endfacet
  facet normal 0.659346 0.75184 0
    outer loop
      vertex 12.5828 9.56272 3.001
      vertex 12.5828 9.56272 5.5
      vertex 12.8385 9.33848 3.001
    endloop
  endfacet
  facet normal 0.659346 0.75184 0
    outer loop
      vertex 12.8385 9.33848 3.001
      vertex 12.5828 9.56272 5.5
      vertex 12.8385 9.33848 5.5
    endloop
  endfacet
  facet normal 0.555569 0.83147 0
    outer loop
      vertex 12.3 9.75167 3.001
      vertex 12.3 9.75167 5.5
      vertex 12.5828 9.56272 3.001
    endloop
  endfacet
  facet normal 0.555569 0.83147 0
    outer loop
      vertex 12.5828 9.56272 3.001
      vertex 12.3 9.75167 5.5
      vertex 12.5828 9.56272 5.5
    endloop
  endfacet
  facet normal 0.442289 0.896872 0
    outer loop
      vertex 11.995 9.90209 3.001
      vertex 11.995 9.90209 5.5
      vertex 12.3 9.75167 3.001
    endloop
  endfacet
  facet normal 0.442289 0.896872 0
    outer loop
      vertex 12.3 9.75167 3.001
      vertex 11.995 9.90209 5.5
      vertex 12.3 9.75167 5.5
    endloop
  endfacet
  facet normal 0.321439 0.94693 0
    outer loop
      vertex 11.6729 10.0114 3.001
      vertex 11.6729 10.0114 5.5
      vertex 11.995 9.90209 3.001
    endloop
  endfacet
  facet normal 0.321439 0.94693 0
    outer loop
      vertex 11.995 9.90209 3.001
      vertex 11.6729 10.0114 5.5
      vertex 11.995 9.90209 5.5
    endloop
  endfacet
  facet normal 0.195091 0.980785 0
    outer loop
      vertex 11.3394 10.0778 3.001
      vertex 11.3394 10.0778 5.5
      vertex 11.6729 10.0114 3.001
    endloop
  endfacet
  facet normal 0.195091 0.980785 0
    outer loop
      vertex 11.6729 10.0114 3.001
      vertex 11.3394 10.0778 5.5
      vertex 11.6729 10.0114 5.5
    endloop
  endfacet
  facet normal 0.0654021 0.997859 0
    outer loop
      vertex 11 10.1 3.001
      vertex 11 10.1 5.5
      vertex 11.3394 10.0778 3.001
    endloop
  endfacet
  facet normal 0.0654021 0.997859 0
    outer loop
      vertex 11.3394 10.0778 3.001
      vertex 11 10.1 5.5
      vertex 11.3394 10.0778 5.5
    endloop
  endfacet
  facet normal -0.0654021 0.997859 0
    outer loop
      vertex 10.6606 10.0778 3.001
      vertex 10.6606 10.0778 5.5
      vertex 11 10.1 3.001
    endloop
  endfacet
  facet normal -0.0654021 0.997859 0
    outer loop
      vertex 11 10.1 3.001
      vertex 10.6606 10.0778 5.5
      vertex 11 10.1 5.5
    endloop
  endfacet
  facet normal -0.195091 0.980785 0
    outer loop
      vertex 10.3271 10.0114 3.001
      vertex 10.3271 10.0114 5.5
      vertex 10.6606 10.0778 3.001
    endloop
  endfacet
  facet normal -0.195091 0.980785 0
    outer loop
      vertex 10.6606 10.0778 3.001
      vertex 10.3271 10.0114 5.5
      vertex 10.6606 10.0778 5.5
    endloop
  endfacet
  facet normal -0.321439 0.94693 0
    outer loop
      vertex 10.005 9.90209 3.001
      vertex 10.005 9.90209 5.5
      vertex 10.3271 10.0114 3.001
    endloop
  endfacet
  facet normal -0.321439 0.94693 0
    outer loop
      vertex 10.3271 10.0114 3.001
      vertex 10.005 9.90209 5.5
      vertex 10.3271 10.0114 5.5
    endloop
  endfacet
  facet normal -0.442289 0.896872 0
    outer loop
      vertex 9.7 9.75167 3.001
      vertex 9.7 9.75167 5.5
      vertex 10.005 9.90209 3.001
    endloop
  endfacet
  facet normal -0.442289 0.896872 0
    outer loop
      vertex 10.005 9.90209 3.001
      vertex 9.7 9.75167 5.5
      vertex 10.005 9.90209 5.5
    endloop
  endfacet
  facet normal -0.555569 0.83147 0
    outer loop
      vertex 9.41722 9.56272 3.001
      vertex 9.41722 9.56272 5.5
      vertex 9.7 9.75167 3.001
    endloop
  endfacet
  facet normal -0.555569 0.83147 0
    outer loop
      vertex 9.7 9.75167 3.001
      vertex 9.41722 9.56272 5.5
      vertex 9.7 9.75167 5.5
    endloop
  endfacet
  facet normal -0.659346 0.75184 0
    outer loop
      vertex 9.16152 9.33848 3.001
      vertex 9.16152 9.33848 5.5
      vertex 9.41722 9.56272 3.001
    endloop
  endfacet
  facet normal -0.659346 0.75184 0
    outer loop
      vertex 9.41722 9.56272 3.001
      vertex 9.16152 9.33848 5.5
      vertex 9.41722 9.56272 5.5
    endloop
  endfacet
  facet normal -0.75184 0.659346 0
    outer loop
      vertex 8.93728 9.08278 3.001
      vertex 8.93728 9.08278 5.5
      vertex 9.16152 9.33848 3.001
    endloop
  endfacet
  facet normal -0.75184 0.659346 0
    outer loop
      vertex 9.16152 9.33848 3.001
      vertex 8.93728 9.08278 5.5
      vertex 9.16152 9.33848 5.5
    endloop
  endfacet
  facet normal -0.83147 0.555569 0
    outer loop
      vertex 8.74833 8.8 3.001
      vertex 8.74833 8.8 5.5
      vertex 8.93728 9.08278 3.001
    endloop
  endfacet
  facet normal -0.83147 0.555569 0
    outer loop
      vertex 8.93728 9.08278 3.001
      vertex 8.74833 8.8 5.5
      vertex 8.93728 9.08278 5.5
    endloop
  endfacet
  facet normal -0.896872 0.442289 0
    outer loop
      vertex 8.59791 8.49498 3.001
      vertex 8.59791 8.49498 5.5
      vertex 8.74833 8.8 3.001
    endloop
  endfacet
  facet normal -0.896872 0.442289 0
    outer loop
      vertex 8.74833 8.8 3.001
      vertex 8.59791 8.49498 5.5
      vertex 8.74833 8.8 5.5
    endloop
  endfacet
  facet normal -0.94693 0.321439 0
    outer loop
      vertex 8.48859 8.17293 3.001
      vertex 8.48859 8.17293 5.5
      vertex 8.59791 8.49498 3.001
    endloop
  endfacet
  facet normal -0.94693 0.321439 0
    outer loop
      vertex 8.59791 8.49498 3.001
      vertex 8.48859 8.17293 5.5
      vertex 8.59791 8.49498 5.5
    endloop
  endfacet
  facet normal -0.980785 0.195091 0
    outer loop
      vertex 8.42224 7.83937 3.001
      vertex 8.42224 7.83937 5.5
      vertex 8.48859 8.17293 3.001
    endloop
  endfacet
  facet normal -0.980785 0.195091 0
    outer loop
      vertex 8.48859 8.17293 3.001
      vertex 8.42224 7.83937 5.5
      vertex 8.48859 8.17293 5.5
    endloop
  endfacet
  facet normal -0.997859 0.0654021 0
    outer loop
      vertex 8.4 7.5 3.001
      vertex 8.4 7.5 5.5
      vertex 8.42224 7.83937 3.001
    endloop
  endfacet
  facet normal -0.997859 0.0654021 0
    outer loop
      vertex 8.42224 7.83937 3.001
      vertex 8.4 7.5 5.5
      vertex 8.42224 7.83937 5.5
    endloop
  endfacet
  facet normal 0 0 1
    outer loop
      vertex 8.42224 7.83937 5.5
      vertex 8.4 7.5 5.5
      vertex 8.42224 7.16063 5.5
    endloop
  endfacet
  facet normal 0 0 1
    outer loop
      vertex 8.59791 6.50502 5.5
      vertex 8.42224 7.83937 5.5
      vertex 8.48859 6.82707 5.5
    endloop
  endfacet
  facet normal 0 0 1
    outer loop
      vertex 8.48859 6.82707 5.5
      vertex 8.42224 7.83937 5.5
      vertex 8.42224 7.16063 5.5
    endloop
  endfacet
  facet normal 0 0 1
    outer loop
      vertex 8.74833 6.2 5.5
      vertex 8.42224 7.83937 5.5
      vertex 8.59791 6.50502 5.5
    endloop
  endfacet
  facet normal 0 0 1
    outer loop
      vertex 8.93728 5.91722 5.5
      vertex 8.42224 7.83937 5.5
      vertex 8.74833 6.2 5.5
    endloop
  endfacet
  facet normal 0 0 1
    outer loop
      vertex 9.16152 5.66152 5.5
      vertex 8.42224 7.83937 5.5
      vertex 8.93728 5.91722 5.5
    endloop
  endfacet
  facet normal 0 0 1
    outer loop
      vertex 9.41722 5.43728 5.5
      vertex 8.42224 7.83937 5.5
      vertex 9.16152 5.66152 5.5
    endloop
  endfacet
  facet normal 0 0 1
    outer loop
      vertex 9.7 5.24833 5.5
      vertex 8.42224 7.83937 5.5
      vertex 9.41722 5.43728 5.5
    endloop
  endfacet
  facet normal 0 0 1
    outer loop
      vertex 10.005 5.09791 5.5
      vertex 8.42224 7.83937 5.5
      vertex 9.7 5.24833 5.5
    endloop
  endfacet
  facet normal 0 0 1
    outer loop
      vertex 10.3271 4.98859 5.5
      vertex 8.42224 7.83937 5.5
      vertex 10.005 5.09791 5.5
    endloop
  endfacet
  facet normal 0 0 1
    outer loop
      vertex 10.6606 4.92224 5.5
      vertex 8.42224 7.83937 5.5
      vertex 10.3271 4.98859 5.5
    endloop
  endfacet
  facet normal 0 0 1
    outer loop
      vertex 11 4.9 5.5
      vertex 8.42224 7.83937 5.5
      vertex 10.6606 4.92224 5.5
    endloop
  endfacet
  facet normal 0 0 1
    outer loop
      vertex 11.3394 4.92224 5.5
      vertex 8.42224 7.83937 5.5
      vertex 11 4.9 5.5
    endloop
  endfacet
  facet normal 0 0 1
    outer loop
      vertex 11.6729 4.98859 5.5
      vertex 8.42224 7.83937 5.5
      vertex 11.3394 4.92224 5.5
    endloop
  endfacet
  facet normal 0 0 1
    outer loop
      vertex 11.995 5.09791 5.5
      vertex 8.42224 7.83937 5.5
      vertex 11.6729 4.98859 5.5
    endloop
  endfacet
  facet normal 0 0 1
    outer loop
      vertex 12.3 5.24833 5.5
      vertex 8.42224 7.83937 5.5
      vertex 11.995 5.09791 5.5
    endloop
  endfacet
  facet normal 0 0 1
    outer loop
      vertex 12.5828 5.43728 5.5
      vertex 8.42224 7.83937 5.5
      vertex 12.3 5.24833 5.5
    endloop
  endfacet
  facet normal 0 0 1
    outer loop
      vertex 12.8385 5.66152 5.5
      vertex 8.42224 7.83937 5.5
      vertex 12.5828 5.43728 5.5
    endloop
  endfacet
  facet normal 0 0 1
    outer loop
      vertex 13.0627 5.91722 5.5
      vertex 8.42224 7.83937 5.5
      vertex 12.8385 5.66152 5.5
    endloop
  endfacet
  facet normal 0 0 1
    outer loop
      vertex 13.2517 6.2 5.5
      vertex 8.42224 7.83937 5.5
      vertex 13.0627 5.91722 5.5
    endloop
  endfacet
  facet normal 0 0 1
    outer loop
      vertex 13.4021 6.50502 5.5
      vertex 8.42224 7.83937 5.5
      vertex 13.2517 6.2 5.5
    endloop
  endfacet
  facet normal 0 0 1
    outer loop
      vertex 13.5114 6.82707 5.5
      vertex 8.42224 7.83937 5.5
      vertex 13.4021 6.50502 5.5
    endloop
  endfacet
  facet normal 0 0 1
    outer loop
      vertex 13.5778 7.16063 5.5
      vertex 8.42224 7.83937 5.5
      vertex 13.5114 6.82707 5.5
    endloop
  endfacet
  facet normal 0 0 1
    outer loop
      vertex 13.6 7.5 5.5
      vertex 8.42224 7.83937 5.5
      vertex 13.5778 7.16063 5.5
    endloop
  endfacet
  facet normal 0 0 1
    outer loop
      vertex 13.5778 7.83937 5.5
      vertex 8.42224 7.83937 5.5
      vertex 13.6 7.5 5.5
    endloop
  endfacet
  facet normal 0 0 1
    outer loop
      vertex 13.5114 8.17293 5.5
      vertex 8.42224 7.83937 5.5
      vertex 13.5778 7.83937 5.5
    endloop
  endfacet
  facet normal 0 0 1
    outer loop
      vertex 13.4021 8.49498 5.5
      vertex 8.42224 7.83937 5.5
      vertex 13.5114 8.17293 5.5
    endloop
  endfacet
  facet normal 0 0 1
    outer loop
      vertex 13.2517 8.8 5.5
      vertex 8.42224 7.83937 5.5
      vertex 13.4021 8.49498 5.5
    endloop
  endfacet
  facet normal 0 0 1
    outer loop
      vertex 13.0627 9.08278 5.5
      vertex 8.42224 7.83937 5.5
      vertex 13.2517 8.8 5.5
    endloop
  endfacet
  facet normal 0 0 1
    outer loop
      vertex 12.8385 9.33848 5.5
      vertex 8.42224 7.83937 5.5
      vertex 13.0627 9.08278 5.5
    endloop
  endfacet
  facet normal 0 0 1
    outer loop
      vertex 12.5828 9.56272 5.5
      vertex 8.42224 7.83937 5.5
      vertex 12.8385 9.33848 5.5
    endloop
  endfacet
  facet normal 0 0 1
    outer loop
      vertex 12.3 9.75167 5.5
      vertex 8.42224 7.83937 5.5
      vertex 12.5828 9.56272 5.5
    endloop
  endfacet
  facet normal 0 0 1
    outer loop
      vertex 11.995 9.90209 5.5
      vertex 8.42224 7.83937 5.5
      vertex 12.3 9.75167 5.5
    endloop
  endfacet
  facet normal 0 0 1
    outer loop
      vertex 11.6729 10.0114 5.5
      vertex 8.42224 7.83937 5.5
      vertex 11.995 9.90209 5.5
    endloop
  endfacet
  facet normal 0 0 1
    outer loop
      vertex 11.3394 10.0778 5.5
      vertex 8.42224 7.83937 5.5
      vertex 11.6729 10.0114 5.5
    endloop
  endfacet
  facet normal 0 0 1
    outer loop
      vertex 11 10.1 5.5
      vertex 8.42224 7.83937 5.5
      vertex 11.3394 10.0778 5.5
    endloop
  endfacet
  facet normal 0 0 1
    outer loop
      vertex 10.6606 10.0778 5.5
      vertex 8.42224 7.83937 5.5
      vertex 11 10.1 5.5
    endloop
  endfacet
  facet normal 0 0 1
    outer loop
      vertex 10.3271 10.0114 5.5
      vertex 8.42224 7.83937 5.5
      vertex 10.6606 10.0778 5.5
    endloop
  endfacet
  facet normal 0 0 1
    outer loop
      vertex 10.005 9.90209 5.5
      vertex 8.42224 7.83937 5.5
      vertex 10.3271 10.0114 5.5
    endloop
  endfacet
  facet normal 0 0 1
    outer loop
      vertex 9.7 9.75167 5.5
      vertex 8.42224 7.83937 5.5
      vertex 10.005 9.90209 5.5
    endloop
  endfacet
  facet normal 0 0 1
    outer loop
      vertex 9.41722 9.56272 5.5
      vertex 8.42224 7.83937 5.5
      vertex 9.7 9.75167 5.5
    endloop
  endfacet
  facet normal 0 0 1
    outer loop
      vertex 9.16152 9.33848 5.5
      vertex 8.42224 7.83937 5.5
      vertex 9.41722 9.56272 5.5
    endloop
  endfacet
  facet normal 0 0 1
    outer loop
      vertex 8.93728 9.08278 5.5
      vertex 8.42224 7.83937 5.5
      vertex 9.16152 9.33848 5.5
    endloop
  endfacet
  facet normal 0 0 1
    outer loop
      vertex 8.74833 8.8 5.5
      vertex 8.42224 7.83937 5.5
      vertex 8.93728 9.08278 5.5
    endloop
  endfacet
  facet normal 0 0 1
    outer loop
      vertex 8.59791 8.49498 5.5
      vertex 8.42224 7.83937 5.5
      vertex 8.74833 8.8 5.5
    endloop
  endfacet
  facet normal 0 0 1
    outer loop
      vertex 8.48859 8.17293 5.5
      vertex 8.42224 7.83937 5.5
      vertex 8.59791 8.49498 5.5
    endloop
  endfacet
endsolid OpenSCAD_Model
