solid OpenSCAD_Model
  facet normal -1 0 0
    outer loop
      vertex 0 0 0
      vertex 0 0 2.001
      vertex 0 44.1 0
    endloop
  endfacet
  facet normal -1 0 0
    outer loop
      vertex 0 44.1 0
      vertex 0 0 2.001
      vertex 0 44.1 2.001
    endloop
  endfacet
  facet normal 0 -1 0
    outer loop
      vertex 0 0 2.001
      vertex 0 0 0
      vertex 44.1 0 0
    endloop
  endfacet
  facet normal 0 -1 0
    outer loop
      vertex 44.1 0 2.001
      vertex 0 0 2.001
      vertex 44.1 0 0
    endloop
  endfacet
  facet normal 0 0 -1
    outer loop
      vertex 0 0 0
      vertex 0 44.1 0
      vertex 44.1 0 0
    endloop
  endfacet
  facet normal 0 0 -1
    outer loop
      vertex 44.1 0 0
      vertex 0 44.1 0
      vertex 44.1 44.1 0
    endloop
  endfacet
  facet normal 0 1 0
    outer loop
      vertex 0 44.1 0
      vertex 0 44.1 2.001
      vertex 44.1 44.1 0
    endloop
  endfacet
  facet normal 0 1 0
    outer loop
      vertex 44.1 44.1 0
      vertex 0 44.1 2.001
      vertex 44.1 44.1 2.001
    endloop
  endfacet
  facet normal 0 0.806405 0.591364
    outer loop
      vertex 0 44.1 2.001
      vertex 4.4 39.7 8.001
      vertex 44.1 44.1 2.001
    endloop
  endfacet
  facet normal 0 0.806405 0.591364
    outer loop
      vertex 44.1 44.1 2.001
      vertex 4.4 39.7 8.001
      vertex 9.15 39.7 8.001
    endloop
  endfacet
  facet normal 0 0.806405 0.591364
    outer loop
      vertex 44.1 44.1 2.001
      vertex 9.15 39.7 8.001
      vertex 14.95 39.7 8.001
    endloop
  endfacet
  facet normal 0 0.806405 0.591364
    outer loop
      vertex 44.1 44.1 2.001
      vertex 14.95 39.7 8.001
      vertex 29.15 39.7 8.001
    endloop
  endfacet
  facet normal 0 0.806405 0.591364
    outer loop
      vertex 44.1 44.1 2.001
      vertex 29.15 39.7 8.001
      vertex 34.95 39.7 8.001
    endloop
  endfacet
  facet normal 0 0.806405 0.591364
    outer loop
      vertex 44.1 44.1 2.001
      vertex 34.95 39.7 8.001
      vertex 39.7 39.7 8.001
    endloop
  endfacet
  facet normal -0.806405 0 0.591364
    outer loop
      vertex 0 0 2.001
      vertex 4.4 4.4 8.001
      vertex 0 44.1 2.001
    endloop
  endfacet
  facet normal -0.806405 0 0.591364
    outer loop
      vertex 0 44.1 2.001
      vertex 4.4 4.4 8.001
      vertex 4.4 39.7 8.001
    endloop
  endfacet
  facet normal 0 -0.806405 0.591364
    outer loop
      vertex 4.4 4.4 8.001
      vertex 0 0 2.001
      vertex 44.1 0 2.001
    endloop
  endfacet
  facet normal 0 -0.806405 0.591364
    outer loop
      vertex 9.15 4.4 8.001
      vertex 4.4 4.4 8.001
      vertex 44.1 0 2.001
    endloop
  endfacet
  facet normal 0 -0.806405 0.591364
    outer loop
      vertex 39.7 4.4 8.001
      vertex 34.95 4.4 8.001
      vertex 44.1 0 2.001
    endloop
  endfacet
  facet normal 0 -0.806405 0.591364
    outer loop
      vertex 34.95 4.4 8.001
      vertex 29.15 4.4 8.001
      vertex 44.1 0 2.001
    endloop
  endfacet
  facet normal 0 -0.806405 0.591364
    outer loop
      vertex 29.15 4.4 8.001
      vertex 14.95 4.4 8.001
      vertex 44.1 0 2.001
    endloop
  endfacet
  facet normal 0 -0.806405 0.591364
    outer loop
      vertex 14.95 4.4 8.001
      vertex 9.15 4.4 8.001
      vertex 44.1 0 2.001
    endloop
  endfacet
  facet normal 0.806405 0 0.591364
    outer loop
      vertex 39.7 39.7 8.001
      vertex 39.7 4.4 8.001
      vertex 44.1 0 2.001
    endloop
  endfacet
  facet normal 0.806405 0 0.591364
    outer loop
      vertex 44.1 44.1 2.001
      vertex 39.7 39.7 8.001
      vertex 44.1 0 2.001
    endloop
  endfacet
  facet normal 1 0 0
    outer loop
      vertex 44.1 0 2.001
      vertex 44.1 0 0
      vertex 44.1 44.1 0
    endloop
  endfacet
  facet normal 1 0 0
    outer loop
      vertex 44.1 44.1 2.001
      vertex 44.1 0 2.001
      vertex 44.1 44.1 0
    endloop
  endfacet
  facet normal 0 0 1
    outer loop
      vertex 34.95 39.7 8.001
      vertex 34.95 4.4 8.001
      vertex 39.7 4.4 8.001
    endloop
  endfacet
  facet normal 0 0 1
    outer loop
      vertex 39.7 39.7 8.001
      vertex 34.95 39.7 8.001
      vertex 39.7 4.4 8.001
    endloop
  endfacet
  facet normal 1 0 0
    outer loop
      vertex 34.95 4.4 10
      vertex 34.95 4.4 8.001
      vertex 34.95 39.7 8.001
    endloop
  endfacet
  facet normal 1 0 0
    outer loop
      vertex 34.95 39.7 10
      vertex 34.95 4.4 10
      vertex 34.95 39.7 8.001
    endloop
  endfacet
  facet normal 0 1 0
    outer loop
      vertex 27.15 39.7 12
      vertex 27.15 39.7 12.001
      vertex 29.15 39.7 10
    endloop
  endfacet
  facet normal 0 1 0
    outer loop
      vertex 29.15 39.7 10
      vertex 27.15 39.7 12.001
      vertex 29.15 39.7 14.001
    endloop
  endfacet
  facet normal 0 1 0
    outer loop
      vertex 29.15 39.7 10
      vertex 29.15 39.7 14.001
      vertex 35.15 39.7 14.001
    endloop
  endfacet
  facet normal 0 1 0
    outer loop
      vertex 29.15 39.7 10
      vertex 35.15 39.7 14.001
      vertex 37.15 39.7 12.001
    endloop
  endfacet
  facet normal 0 1 0
    outer loop
      vertex 29.15 39.7 10
      vertex 37.15 39.7 12.001
      vertex 37.15 39.7 12
    endloop
  endfacet
  facet normal 0 1 0
    outer loop
      vertex 34.95 39.7 10
      vertex 37.15 39.7 12
      vertex 35.15 39.7 10
    endloop
  endfacet
  facet normal 0 1 0
    outer loop
      vertex 29.15 39.7 10
      vertex 37.15 39.7 12
      vertex 34.95 39.7 10
    endloop
  endfacet
  facet normal 0 1 0
    outer loop
      vertex 34.95 39.7 10
      vertex 34.95 39.7 8.001
      vertex 29.15 39.7 10
    endloop
  endfacet
  facet normal 0 1 0
    outer loop
      vertex 29.15 39.7 10
      vertex 34.95 39.7 8.001
      vertex 29.15 39.7 8.001
    endloop
  endfacet
  facet normal 0 0 1
    outer loop
      vertex 14.95 39.7 8.001
      vertex 14.95 4.4 8.001
      vertex 29.15 4.4 8.001
    endloop
  endfacet
  facet normal 0 0 1
    outer loop
      vertex 29.15 39.7 8.001
      vertex 14.95 39.7 8.001
      vertex 29.15 4.4 8.001
    endloop
  endfacet
  facet normal -1 0 0
    outer loop
      vertex 29.15 4.4 8.001
      vertex 29.15 4.4 10
      vertex 29.15 39.7 8.001
    endloop
  endfacet
  facet normal -1 0 0
    outer loop
      vertex 29.15 39.7 8.001
      vertex 29.15 4.4 10
      vertex 29.15 39.7 10
    endloop
  endfacet
  facet normal 1 0 0
    outer loop
      vertex 14.95 4.4 10
      vertex 14.95 4.4 8.001
      vertex 14.95 39.7 8.001
    endloop
  endfacet
  facet normal 1 0 0
    outer loop
      vertex 14.95 39.7 10
      vertex 14.95 4.4 10
      vertex 14.95 39.7 8.001
    endloop
  endfacet
  facet normal 0 1 0
    outer loop
      vertex 7.15 39.7 12
      vertex 7.15 39.7 12.001
      vertex 9.15 39.7 10
    endloop
  endfacet
  facet normal 0 1 0
    outer loop
      vertex 9.15 39.7 10
      vertex 7.15 39.7 12.001
      vertex 9.15 39.7 14.001
    endloop
  endfacet
  facet normal 0 1 0
    outer loop
      vertex 9.15 39.7 10
      vertex 9.15 39.7 14.001
      vertex 15.15 39.7 14.001
    endloop
  endfacet
  facet normal 0 1 0
    outer loop
      vertex 9.15 39.7 10
      vertex 15.15 39.7 14.001
      vertex 17.15 39.7 12.001
    endloop
  endfacet
  facet normal 0 1 0
    outer loop
      vertex 9.15 39.7 10
      vertex 17.15 39.7 12.001
      vertex 17.15 39.7 12
    endloop
  endfacet
  facet normal 0 1 0
    outer loop
      vertex 14.95 39.7 10
      vertex 17.15 39.7 12
      vertex 15.15 39.7 10
    endloop
  endfacet
  facet normal 0 1 0
    outer loop
      vertex 9.15 39.7 10
      vertex 17.15 39.7 12
      vertex 14.95 39.7 10
    endloop
  endfacet
  facet normal 0 1 0
    outer loop
      vertex 14.95 39.7 10
      vertex 14.95 39.7 8.001
      vertex 9.15 39.7 10
    endloop
  endfacet
  facet normal 0 1 0
    outer loop
      vertex 9.15 39.7 10
      vertex 14.95 39.7 8.001
      vertex 9.15 39.7 8.001
    endloop
  endfacet
  facet normal 0 0 1
    outer loop
      vertex 4.4 39.7 8.001
      vertex 4.4 4.4 8.001
      vertex 9.15 4.4 8.001
    endloop
  endfacet
  facet normal 0 0 1
    outer loop
      vertex 9.15 39.7 8.001
      vertex 4.4 39.7 8.001
      vertex 9.15 4.4 8.001
    endloop
  endfacet
  facet normal -1 0 0
    outer loop
      vertex 9.15 4.4 8.001
      vertex 9.15 4.4 10
      vertex 9.15 39.7 8.001
    endloop
  endfacet
  facet normal -1 0 0
    outer loop
      vertex 9.15 39.7 8.001
      vertex 9.15 4.4 10
      vertex 9.15 39.7 10
    endloop
  endfacet
  facet normal 0 -1 0
    outer loop
      vertex 14.95 4.4 10
      vertex 15.15 4.4 10
      vertex 7.15 4.4 12.001
    endloop
  endfacet
  facet normal 0 -1 0
    outer loop
      vertex 7.15 4.4 12.001
      vertex 7.15 4.4 12
      vertex 9.15 4.4 10
    endloop
  endfacet
  facet normal 0 -1 0
    outer loop
      vertex 14.95 4.4 8.001
      vertex 7.15 4.4 12.001
      vertex 9.15 4.4 10
    endloop
  endfacet
  facet normal 0 -1 0
    outer loop
      vertex 9.15 4.4 8.001
      vertex 14.95 4.4 8.001
      vertex 9.15 4.4 10
    endloop
  endfacet
  facet normal 0 -1 0
    outer loop
      vertex 14.95 4.4 8.001
      vertex 14.95 4.4 10
      vertex 7.15 4.4 12.001
    endloop
  endfacet
  facet normal 0 -1 0
    outer loop
      vertex 15.15 4.4 10
      vertex 17.15 4.4 12
      vertex 7.15 4.4 12.001
    endloop
  endfacet
  facet normal 0 -1 0
    outer loop
      vertex 17.15 4.4 12
      vertex 17.15 4.4 12.001
      vertex 7.15 4.4 12.001
    endloop
  endfacet
  facet normal 0 -1 0
    outer loop
      vertex 17.15 4.4 12.001
      vertex 15.15 4.4 14.001
      vertex 7.15 4.4 12.001
    endloop
  endfacet
  facet normal 0 -1 0
    outer loop
      vertex 15.15 4.4 14.001
      vertex 9.15 4.4 14.001
      vertex 7.15 4.4 12.001
    endloop
  endfacet
  facet normal 0 -1 0
    outer loop
      vertex 34.95 4.4 10
      vertex 35.15 4.4 10
      vertex 27.15 4.4 12.001
    endloop
  endfacet
  facet normal 0 -1 0
    outer loop
      vertex 27.15 4.4 12.001
      vertex 27.15 4.4 12
      vertex 29.15 4.4 10
    endloop
  endfacet
  facet normal 0 -1 0
    outer loop
      vertex 34.95 4.4 8.001
      vertex 27.15 4.4 12.001
      vertex 29.15 4.4 10
    endloop
  endfacet
  facet normal 0 -1 0
    outer loop
      vertex 29.15 4.4 8.001
      vertex 34.95 4.4 8.001
      vertex 29.15 4.4 10
    endloop
  endfacet
  facet normal 0 -1 0
    outer loop
      vertex 34.95 4.4 8.001
      vertex 34.95 4.4 10
      vertex 27.15 4.4 12.001
    endloop
  endfacet
  facet normal 0 -1 0
    outer loop
      vertex 35.15 4.4 10
      vertex 37.15 4.4 12
      vertex 27.15 4.4 12.001
    endloop
  endfacet
  facet normal 0 -1 0
    outer loop
      vertex 37.15 4.4 12
      vertex 37.15 4.4 12.001
      vertex 27.15 4.4 12.001
    endloop
  endfacet
  facet normal 0 -1 0
    outer loop
      vertex 37.15 4.4 12.001
      vertex 35.15 4.4 14.001
      vertex 27.15 4.4 12.001
    endloop
  endfacet
  facet normal 0 -1 0
    outer loop
      vertex 35.15 4.4 14.001
      vertex 29.15 4.4 14.001
      vertex 27.15 4.4 12.001
    endloop
  endfacet
  facet normal 0 0 -1
    outer loop
      vertex 35.15 39.7 10
      vertex 35.15 4.4 10
      vertex 34.95 39.7 10
    endloop
  endfacet
  facet normal 0 0 -1
    outer loop
      vertex 34.95 39.7 10
      vertex 35.15 4.4 10
      vertex 34.95 4.4 10
    endloop
  endfacet
  facet normal -0.707107 0 -0.707107
    outer loop
      vertex 27.15 4.4 12
      vertex 27.15 39.7 12
      vertex 29.15 4.4 10
    endloop
  endfacet
  facet normal -0.707107 0 -0.707107
    outer loop
      vertex 29.15 4.4 10
      vertex 27.15 39.7 12
      vertex 29.15 39.7 10
    endloop
  endfacet
  facet normal 0.707107 0 -0.707107
    outer loop
      vertex 37.15 4.4 12
      vertex 35.15 4.4 10
      vertex 35.15 39.7 10
    endloop
  endfacet
  facet normal 0.707107 0 -0.707107
    outer loop
      vertex 37.15 39.7 12
      vertex 37.15 4.4 12
      vertex 35.15 39.7 10
    endloop
  endfacet
  facet normal 1 0 0
    outer loop
      vertex 37.15 4.4 12.001
      vertex 37.15 4.4 12
      vertex 37.15 39.7 12
    endloop
  endfacet
  facet normal 1 0 0
    outer loop
      vertex 37.15 39.7 12.001
      vertex 37.15 4.4 12.001
      vertex 37.15 39.7 12
    endloop
  endfacet
  facet normal 0.707107 0 0.707107
    outer loop
      vertex 35.15 39.7 14.001
      vertex 35.15 4.4 14.001
      vertex 37.15 4.4 12.001
    endloop
  endfacet
  facet normal 0.707107 0 0.707107
    outer loop
      vertex 37.15 39.7 12.001
      vertex 35.15 39.7 14.001
      vertex 37.15 4.4 12.001
    endloop
  endfacet
  facet normal 0 0 1
    outer loop
      vertex 29.15 39.7 14.001
      vertex 29.15 4.4 14.001
      vertex 35.15 4.4 14.001
    endloop
  endfacet
  facet normal 0 0 1
    outer loop
      vertex 35.15 39.7 14.001
      vertex 29.15 39.7 14.001
      vertex 35.15 4.4 14.001
    endloop
  endfacet
  facet normal -0.707107 0 0.707107
    outer loop
      vertex 27.15 4.4 12.001
      vertex 29.15 4.4 14.001
      vertex 27.15 39.7 12.001
    endloop
  endfacet
  facet normal -0.707107 0 0.707107
    outer loop
      vertex 27.15 39.7 12.001
      vertex 29.15 4.4 14.001
      vertex 29.15 39.7 14.001
    endloop
  endfacet
  facet normal -1 0 0
    outer loop
      vertex 27.15 4.4 12
      vertex 27.15 4.4 12.001
      vertex 27.15 39.7 12
    endloop
  endfacet
  facet normal -1 0 0
    outer loop
      vertex 27.15 39.7 12
      vertex 27.15 4.4 12.001
      vertex 27.15 39.7 12.001
    endloop
  endfacet
  facet normal 0 0 -1
    outer loop
      vertex 15.15 39.7 10
      vertex 15.15 4.4 10
      vertex 14.95 39.7 10
    endloop
  endfacet
  facet normal 0 0 -1
    outer loop
      vertex 14.95 39.7 10
      vertex 15.15 4.4 10
      vertex 14.95 4.4 10
    endloop
  endfacet
  facet normal -0.707107 0 -0.707107
    outer loop
      vertex 7.15 4.4 12
      vertex 7.15 39.7 12
      vertex 9.15 4.4 10
    endloop
  endfacet
  facet normal -0.707107 0 -0.707107
    outer loop
      vertex 9.15 4.4 10
      vertex 7.15 39.7 12
      vertex 9.15 39.7 10
    endloop
  endfacet
  facet normal 0.707107 0 -0.707107
    outer loop
      vertex 17.15 4.4 12
      vertex 15.15 4.4 10
      vertex 15.15 39.7 10
    endloop
  endfacet
  facet normal 0.707107 0 -0.707107
    outer loop
      vertex 17.15 39.7 12
      vertex 17.15 4.4 12
      vertex 15.15 39.7 10
    endloop
  endfacet
  facet normal 1 0 0
    outer loop
      vertex 17.15 4.4 12.001
      vertex 17.15 4.4 12
      vertex 17.15 39.7 12
    endloop
  endfacet
  facet normal 1 0 0
    outer loop
      vertex 17.15 39.7 12.001
      vertex 17.15 4.4 12.001
      vertex 17.15 39.7 12
    endloop
  endfacet
  facet normal 0.707107 0 0.707107
    outer loop
      vertex 15.15 39.7 14.001
      vertex 15.15 4.4 14.001
      vertex 17.15 4.4 12.001
    endloop
  endfacet
  facet normal 0.707107 0 0.707107
    outer loop
      vertex 17.15 39.7 12.001
      vertex 15.15 39.7 14.001
      vertex 17.15 4.4 12.001
    endloop
  endfacet
  facet normal 0 0 1
    outer loop
      vertex 9.15 39.7 14.001
      vertex 9.15 4.4 14.001
      vertex 15.15 4.4 14.001
    endloop
  endfacet
  facet normal 0 0 1
    outer loop
      vertex 15.15 39.7 14.001
      vertex 9.15 39.7 14.001
      vertex 15.15 4.4 14.001
    endloop
  endfacet
  facet normal -0.707107 0 0.707107
    outer loop
      vertex 7.15 4.4 12.001
      vertex 9.15 4.4 14.001
      vertex 7.15 39.7 12.001
    endloop
  endfacet
  facet normal -0.707107 0 0.707107
    outer loop
      vertex 7.15 39.7 12.001
      vertex 9.15 4.4 14.001
      vertex 9.15 39.7 14.001
    endloop
  endfacet
  facet normal -1 0 0
    outer loop
      vertex 7.15 4.4 12
      vertex 7.15 4.4 12.001
      vertex 7.15 39.7 12
    endloop
  endfacet
  facet normal -1 0 0
    outer loop
      vertex 7.15 39.7 12
      vertex 7.15 4.4 12.001
      vertex 7.15 39.7 12.001
    endloop
  endfacet
endsolid OpenSCAD_Model
